<svg width="59" height="74" viewBox="0 0 59 74" fill="none" xmlns="http://www.w3.org/2000/svg">
<g clip-path="url(#clip0_1169_413220)">
<path d="M19.6614 0.148899C20.3168 0.148899 20.9732 0.174463 21.6271 0.144387C23.4499 0.0596739 25.2743 0.155415 27.0952 0.0862409C28.7687 0.023583 30.4418 0.0210766 32.1154 0.027593C33.0937 0.0311018 34.0726 0.027593 35.0515 0.0591726C36.1587 0.092256 37.268 0.128848 38.3717 0.216569C39.2675 0.287749 40.1687 0.316822 41.067 0.354417C41.9428 0.391009 42.8192 0.404543 43.6935 0.460183C44.4868 0.510309 45.282 0.513818 46.0738 0.566451C47.1069 0.634623 48.1484 0.654673 49.1766 0.808561C50.5276 1.01258 51.8638 1.32787 53.0368 2.04969C54.6113 3.01813 55.5215 4.49184 55.9729 6.28085C56.2225 7.30285 56.4144 8.33828 56.5476 9.38217C56.6666 10.2714 56.7512 11.1667 56.8159 12.0629C56.9443 13.8264 57.0194 15.5913 57.0741 17.3588C57.1174 18.7518 57.1403 20.1453 57.1737 21.5383C57.2448 24.6697 57.208 27.8011 57.2 30.9325C57.1951 32.4513 57.1619 33.9701 57.1005 35.489C57.0418 36.8865 56.9318 38.2813 56.7706 39.6735C56.6661 40.5818 56.583 41.4931 56.5048 42.4049C56.4386 43.1728 56.267 43.9282 56.057 44.6696C55.8081 45.5674 55.521 46.4531 55.0278 47.2571C54.2968 48.4481 53.2746 49.2582 51.9703 49.7313C51.082 50.0537 50.1788 50.3048 49.2417 50.4211C48.6615 50.4933 48.0773 50.5439 47.4935 50.5775C46.3883 50.6406 45.284 50.7243 44.1757 50.7464C43.5169 50.7594 42.857 50.8121 42.1966 50.8386C40.9824 50.8888 39.7691 50.9705 38.5549 51.0236C37.9756 51.0487 37.3954 51.0497 36.8131 51.0767C35.986 51.1143 35.157 51.0968 34.3304 51.1404C33.0798 51.2071 31.8282 51.1905 30.5772 51.1905C27.9337 51.1975 25.2897 51.2101 22.6472 51.1625C21.3718 51.1394 20.0953 51.1765 18.8219 51.1173C17.6449 51.0627 16.4685 51.1133 15.2926 51.0717C14.4351 51.0411 13.5752 51.0091 12.7222 50.9213C11.1945 50.7654 9.66523 50.602 8.17081 50.2276C6.81175 49.8867 5.60646 49.2817 4.65099 48.206C3.87267 47.3303 3.41385 46.3112 3.10481 45.1954C2.748 43.9057 2.538 42.5969 2.40264 41.264C2.28453 40.1034 2.20159 38.9413 2.15382 37.7777C2.09858 36.5206 1.99158 35.2664 1.91545 34.0102C1.77113 31.6242 1.83383 29.2352 1.81592 26.8477C1.798 24.5008 1.78058 22.1534 1.83931 19.8069C1.86369 18.832 1.90101 17.8565 1.97317 16.8841C2.07768 15.462 2.14486 14.0379 2.22199 12.6143C2.27823 11.5847 2.36332 10.5551 2.47081 9.52954C2.59423 8.33553 2.68082 7.1345 3.05554 5.98009C3.57309 4.38558 4.40913 3.01763 5.79258 2.04067C6.54452 1.51133 7.4134 1.24566 8.28626 1.00907C9.24771 0.748911 10.2271 0.596527 11.2184 0.49477C12.1042 0.404042 12.9905 0.344391 13.8783 0.285242C14.9119 0.217071 15.946 0.221582 16.9786 0.18499C17.8699 0.148899 18.7656 0.15341 19.6614 0.148899ZM12.9686 17.9984C12.9404 18.0317 12.9105 18.0635 12.879 18.0936C12.0231 18.7222 11.1651 19.3468 10.3112 19.9799C10.2077 20.0566 10.1465 20.03 10.0584 19.9583C9.66374 19.6275 9.26214 19.3067 8.86403 18.9773C8.5326 18.7032 8.1728 18.6766 7.79907 18.8651C7.34074 19.0951 6.88739 19.3363 6.43404 19.5759C6.06429 19.7713 5.79059 20.3092 5.89758 20.7428C6.05583 21.3844 6.45793 21.9127 6.72217 22.5604C6.95557 22.1348 7.2865 21.9137 7.6886 21.7949C7.95926 21.7182 8.23854 21.6766 8.51966 21.6711C9.714 21.6305 10.9039 21.7162 12.0957 21.7418C13.4797 21.7709 14.8551 21.8922 16.2331 21.9985C17.7758 22.1188 19.3085 22.2727 20.8323 22.5498C22.0585 22.7724 23.2807 23.011 24.4791 23.3594C26.2561 23.8762 27.9227 24.6491 29.5316 25.5649C31.9669 26.9347 34.0964 28.7945 35.7875 31.0287C37.5133 33.3125 38.4986 35.9256 38.8525 38.7767C39.0121 40.0552 38.9476 41.3519 38.6619 42.6079C38.2637 44.3623 37.5173 45.9734 36.5558 47.4847C36.2991 47.8857 36.0512 48.2977 35.7825 48.7313C35.9039 48.7313 35.985 48.7358 36.0652 48.7313C37.1935 48.6502 38.3079 48.4314 39.3839 48.0797C40.6748 47.6671 41.9 47.1122 42.9879 46.2907C44.3783 45.2385 45.3397 43.8355 46.1106 42.2961C47.3517 39.8149 48.2007 37.1772 49.081 34.5556C49.7777 32.4829 50.252 30.345 50.7481 28.2161C51.2333 26.1334 51.6543 24.0376 51.9459 21.9173C52.1206 20.6461 52.2664 19.3718 52.3938 18.0946C52.5242 16.7994 52.6426 15.5036 52.6775 14.2018C52.7178 12.7572 52.665 11.3145 52.5745 9.8734C52.4889 8.49994 52.2176 7.16658 51.5792 5.93247C50.5132 3.86526 48.5898 2.88128 46.3216 3.13442C45.0242 3.27628 43.8423 3.78957 42.7276 4.46127C41.4238 5.24925 40.2747 6.24727 39.0948 7.19816C37.0047 8.87689 34.9445 10.5907 32.7976 12.1948C31.4764 13.1832 30.1188 14.1216 28.7553 15.0479C26.6224 16.4971 24.4502 17.8721 22.0187 18.7753C21.1054 19.1142 20.1826 19.4223 19.2503 19.6997C19.1901 19.7172 19.101 19.7849 19.0513 19.6861C18.994 19.5739 19.097 19.5468 19.1647 19.5052C19.3489 19.3934 19.5275 19.2711 19.7181 19.1728C21.1869 18.4107 22.4926 17.3651 23.5609 16.0956C23.6415 16.0013 23.7366 15.9126 23.7694 15.7768C22.9792 15.858 22.2128 15.9718 21.4439 16.0635C20.267 16.2039 19.0861 16.259 17.9042 16.2911C17.2344 16.3091 16.564 16.3066 15.8932 16.267C15.1316 16.2291 14.3683 16.2398 13.6081 16.2991C13.1386 16.3318 12.6716 16.3938 12.2097 16.4846C11.3303 16.656 10.5515 17.0821 9.75132 17.4545C9.55675 17.5452 9.35321 17.6264 9.19048 17.7703C9.14072 17.8134 9.09095 17.8681 9.11932 17.9402C9.14768 18.0124 9.21885 17.9858 9.27408 17.9818C10.4898 17.8981 11.7041 17.9813 12.9686 17.9984ZM11.184 24.0135C10.2649 23.9975 9.397 24.0546 8.53011 24.1178C8.43058 24.1253 8.27034 24.0787 8.30916 24.3088C8.45845 25.2025 8.62367 26.0943 8.81526 26.981C9.42985 29.8292 10.2141 32.6303 11.1044 35.4022C11.7678 37.4765 12.4431 39.5437 13.3821 41.5136C14.1505 43.1242 15.0537 44.635 16.3287 45.8992C17.5782 47.1388 18.9856 48.1133 20.6845 48.621C22.1481 49.0571 23.6579 49.1549 25.1703 49.212C26.912 49.2777 28.6398 49.2075 30.3458 48.7759C32.6897 48.1834 34.3553 46.7919 35.3829 44.5974C35.9716 43.3407 36.2194 42.0059 36.3001 40.6374C36.3727 39.3923 36.3105 38.1487 35.9965 36.9371C35.3993 34.6258 34.3324 32.5761 32.5672 30.94C31.572 30.0172 30.4274 29.3164 29.2241 28.7209C27.7028 27.969 26.0949 27.6307 24.3969 27.8221C23.229 27.9545 22.1665 28.3941 21.1623 28.9941C21.1035 29.0292 21.0563 29.1089 20.9712 29.0317C20.895 28.962 20.9607 28.9054 20.9871 28.8552C21.1757 28.4983 21.2797 28.1144 21.3613 27.7224C21.6276 26.4472 21.0836 25.4166 19.8878 24.9283C19.2314 24.6617 18.5357 24.5574 17.8415 24.4772C16.7999 24.3549 15.7549 24.2486 14.7063 24.1815C13.516 24.1028 12.3291 23.991 11.184 24.0135ZM26.918 13.5462C26.7553 13.3772 26.6224 13.2304 26.4796 13.095C24.5407 11.2272 22.4996 9.47008 20.366 7.83176C18.7845 6.62221 17.2309 5.37557 15.6041 4.22718C14.4361 3.4016 13.1656 2.92991 11.6991 3.09733C10.7143 3.20811 9.84886 3.56651 9.14171 4.2357C7.86725 5.44124 7.31984 7.0157 7.26411 8.72401C7.18498 11.2519 7.23425 13.7828 7.3502 16.3111C7.35617 16.4354 7.38503 16.5593 7.40693 16.7061C7.52736 16.5963 7.61992 16.5136 7.71099 16.4299C8.98296 15.2705 10.4898 14.6063 12.1768 14.4053C13.1034 14.295 14.0455 14.2976 14.981 14.293C17.1179 14.283 19.2553 14.3186 21.3852 14.0895C22.0516 14.0178 22.7219 13.9863 23.3882 13.9231C24.3507 13.8319 25.3116 13.7291 26.2745 13.6289C26.4791 13.6088 26.6891 13.5762 26.918 13.5462Z" fill="#154F3A" stroke="#154F3A" stroke-miterlimit="10"/>
<path d="M32.2778 70.2576C32.4365 69.8957 32.4415 69.4871 32.5266 69.0941C32.5375 69.044 32.5405 68.9939 32.5505 68.9468C32.6624 68.3954 32.6629 68.3904 33.2148 68.4836C33.3107 68.5056 33.4083 68.5192 33.5064 68.5242C33.6199 68.5242 33.6821 68.5799 33.7259 68.6881C34.2733 70.0506 35.3238 70.815 36.7118 71.1092C37.5279 71.2822 38.3624 71.3378 39.1796 71.0345C39.9464 70.7503 40.569 69.9247 40.6416 69.1167C40.769 67.7132 40.0813 66.849 38.7506 66.3287C37.1716 65.7101 35.6339 65.0104 34.231 64.0289C32.7475 62.9908 31.9792 61.5546 31.7756 59.7832C31.6069 58.307 31.9095 56.9345 32.7849 55.7229C33.4975 54.738 34.4684 54.0688 35.5717 53.5946C36.4422 53.2245 37.3665 52.9991 38.3087 52.9269C40.3923 52.753 42.3267 53.2066 44.1401 54.2387C44.2859 54.3219 44.2844 54.4041 44.2496 54.5355C43.9719 55.5751 43.6962 56.6152 43.4225 57.6558C43.3812 57.8122 43.2816 57.8959 43.1199 57.8934C42.9044 57.8904 42.689 57.8789 42.473 57.8794C42.3376 57.8794 42.2923 57.7841 42.2426 57.6874C41.8275 56.8809 41.2443 56.2382 40.4187 55.8513C39.4647 55.4041 38.4694 55.329 37.4856 55.7009C36.3077 56.1475 35.7379 57.7746 36.3609 58.8087C36.6864 59.3471 37.2 59.6744 37.7404 59.9441C39.0009 60.5737 40.2784 61.1662 41.5384 61.7988C42.4073 62.2354 43.2996 62.6454 44.0331 63.3025C45.3334 64.4715 46.061 65.9191 46.0565 67.7011C46.0572 67.8763 46.0429 68.0512 46.0137 68.224C45.9759 68.438 46.0869 68.5247 46.2625 68.5077C46.5158 68.4861 46.6109 68.6114 46.7104 68.8265C47.3175 70.1538 48.383 70.8721 49.7868 71.1273C50.4417 71.2466 51.0931 71.2776 51.75 71.1308C52.2418 71.0242 52.6858 70.7593 53.0149 70.376C53.3439 69.9928 53.5402 69.512 53.5739 69.0064C53.645 67.8295 53.119 66.9703 52.0426 66.4971C50.9065 65.9958 49.742 65.5607 48.6537 64.9557C47.7793 64.47 46.906 63.9702 46.2152 63.2314C45.3548 62.3095 44.8661 61.1947 44.7119 59.9381C44.5848 58.9693 44.6827 57.984 44.998 57.0598C45.3698 55.9826 46.0555 55.155 46.9438 54.4818C48.0038 53.6798 49.2116 53.2111 50.5094 52.9956C51.4151 52.8452 52.3303 52.8667 53.2464 52.9585C54.5901 53.0923 55.8108 53.571 56.9942 54.1886C57.1848 54.2888 57.2161 54.3981 57.1619 54.5896C56.8766 55.6192 56.5976 56.6506 56.3249 57.6839C56.297 57.7876 56.2522 57.8207 56.1492 57.8523C55.8571 57.942 55.5744 57.8383 55.2878 57.8393C55.1793 57.8393 55.1838 57.7225 55.1484 57.6548C54.6184 56.6493 53.8546 55.9149 52.7413 55.6232C51.9142 55.4061 51.0688 55.366 50.274 55.753C49.1613 56.2949 48.6816 57.8553 49.3036 58.8383C49.6465 59.3807 50.176 59.6995 50.7229 59.9742C51.7679 60.499 52.8309 60.9837 53.8784 61.5005C54.8523 61.9812 55.8501 62.4293 56.7105 63.1046C57.9616 64.0835 58.7613 65.3693 58.936 66.9643C59.1136 68.5844 58.6872 70.0651 57.666 71.3523C57.0997 72.0671 56.4398 72.6757 55.6202 73.0832C54.8931 73.4441 54.1143 73.6346 53.3196 73.79C52.6953 73.9022 52.0627 73.961 51.4285 73.9659C50.5462 73.9835 49.6704 73.8932 48.8194 73.6286C47.6079 73.2605 46.4278 72.7946 45.2906 72.2356C45.0707 72.1253 44.9861 72.015 45.0458 71.7609C45.1135 71.4721 45.1289 71.1709 45.1682 70.8711C45.0617 70.8631 45.0468 70.9468 45.0075 71.0035C44.3441 71.9649 43.5106 72.7343 42.4426 73.209C41.7195 73.5313 40.9497 73.7138 40.1689 73.8371C39.5966 73.9273 39.0193 73.9539 38.4431 73.9714C37.2074 74.0095 36.031 73.7143 34.877 73.2947C34.1439 73.0281 33.4223 72.7343 32.6659 72.3859C32.7281 72.6967 32.7625 72.9674 32.8411 73.2246C32.9008 73.4211 32.8481 73.4486 32.6699 73.4356C31.2636 73.3313 29.8547 73.382 28.4469 73.3855C28.1339 73.3855 27.8204 73.416 27.5079 73.4386C27.3929 73.4466 27.3506 73.4145 27.3496 73.2882C27.3416 71.9779 27.2128 70.6751 27.0928 69.3729C26.9843 68.1974 26.856 67.0234 26.7176 65.8505C26.5899 64.7687 26.4489 63.6884 26.2946 62.6093C26.2195 62.0865 26.1408 61.5602 25.9856 61.0193C25.8184 61.1927 25.7517 61.3988 25.6601 61.5852C24.6317 63.6711 23.607 65.7569 22.5862 67.8425C21.6931 69.6621 20.801 71.4833 19.9099 73.3063C19.8457 73.4371 19.7665 73.4566 19.6561 73.4336C19.2583 73.3544 18.849 73.3544 18.4513 73.4336C18.3313 73.4586 18.2522 73.4336 18.182 73.2962C17.354 71.6721 16.5139 70.0546 15.6794 68.434C14.4731 66.0924 13.268 63.7503 12.064 61.4078C12.0267 61.3356 11.9829 61.2664 11.9232 61.1637C11.7923 61.5396 11.7764 61.902 11.7316 62.2554C11.5723 63.5266 11.4161 64.7988 11.2902 66.0735C11.1941 67.0425 11.1727 68.0194 11.0697 68.9879C10.9165 70.4235 10.8791 71.8651 10.7876 73.3038C10.7771 73.4697 10.692 73.4476 10.594 73.4376C9.77636 73.3539 8.95624 73.3875 8.13712 73.3875C7.85794 73.3875 7.58275 73.4877 7.28516 73.4211C7.56234 72.5238 7.73851 71.607 7.90572 70.6877C8.1839 69.1598 8.42476 67.6254 8.64223 66.0871C8.85174 64.6068 9.07219 63.1296 9.27423 61.6469C9.43846 60.4438 9.58078 59.2408 9.73505 58.0378C9.92963 56.5195 10.1287 55.0021 10.3183 53.4833C10.3372 53.3329 10.3681 53.3084 10.5278 53.3219C11.3773 53.3966 12.2287 53.369 13.0792 53.3254C13.2658 53.3159 13.3549 53.366 13.4375 53.5259C14.1674 54.9495 14.9019 56.3697 15.6411 57.7866C16.8205 60.059 18.0004 62.3314 19.1808 64.6038C19.4893 65.1993 19.7974 65.7945 20.1049 66.3893C20.2259 66.6239 20.2482 66.6309 20.4035 66.4099C20.825 65.8039 21.1704 65.1517 21.5157 64.5011C22.6563 62.3527 23.7193 60.1641 24.7808 57.9746C25.4874 56.5159 26.188 55.0533 26.8823 53.5866C26.9794 53.3815 27.0625 53.2888 27.3302 53.3179C28.1951 53.4131 29.0655 53.368 29.9324 53.3179C30.1165 53.3069 30.1364 53.3625 30.1374 53.5184C30.1449 54.5866 30.2703 55.6458 30.3748 56.7074C30.4663 57.6438 30.5878 58.5761 30.6958 59.5105C30.8122 60.5185 30.956 61.5231 31.0969 62.5281C31.2352 63.5233 31.38 64.5173 31.5313 65.5101C31.704 66.659 31.8667 67.8099 32.0742 68.9533C32.1529 69.3874 32.2091 69.8245 32.2778 70.2576Z" fill="#154F3A" stroke="#154F3A" stroke-miterlimit="10"/>
<path d="M0.860632 53.3294C1.46577 53.3149 2.06741 53.4131 2.67354 53.3896C3.46977 53.358 4.26301 53.348 5.05725 53.3134C5.21401 53.3064 5.21749 53.369 5.216 53.4838C5.20455 54.1856 5.12344 54.8798 5.0891 55.5791C5.05078 56.3616 5.01097 57.144 4.98957 57.9275C4.92339 60.4584 4.94677 62.9903 4.97166 65.5197C4.98858 67.2635 5.05576 69.0069 5.11747 70.7498C5.14583 71.5649 5.19161 72.3799 5.21699 73.1955C5.22396 73.4186 5.15777 73.4536 4.9617 73.4416C3.75293 73.3674 2.54316 73.3765 1.33289 73.3885C0.952696 73.392 0.574985 73.4597 0.192796 73.4416C0.0932673 73.4366 0.0181232 73.4416 0.0330525 73.2998C0.138055 72.3042 0.158956 71.3037 0.199763 70.3037C0.245048 69.1869 0.270428 68.0696 0.289836 66.9518C0.31422 65.4981 0.344577 64.0444 0.316211 62.5908C0.289338 61.2223 0.270428 59.8534 0.219668 58.4854C0.186326 57.5932 0.169904 56.6999 0.12014 55.8092C0.0798309 55.0678 0.0703756 54.3254 0.028076 53.5846C0.015635 53.3841 0.0375313 53.2723 0.287845 53.3199C0.473964 53.3575 0.670035 53.3294 0.860632 53.3294Z" fill="#154F3A" stroke="#154F3A" stroke-miterlimit="10"/>
<path d="M39.0949 10.917C39.119 10.9303 39.141 10.9472 39.1601 10.9671C39.2024 11.0373 39.1323 11.0674 39.1009 11.1125C38.6267 11.7546 38.1464 12.3922 37.6776 13.0389C37.175 13.7326 36.6769 14.4329 36.2778 15.1943C35.5418 16.5948 35.394 18.0721 35.7951 19.6054C36.0678 20.6475 36.5988 21.5729 37.0889 22.5168C37.9812 24.2351 38.8989 25.9409 39.5214 27.786C39.8762 28.8387 40.1355 29.9109 40.3674 30.9941C40.562 31.9059 40.7466 32.8187 40.8422 33.7511C40.9641 34.9341 40.9372 36.115 40.8476 37.2975C40.8148 37.7221 40.7586 38.1426 40.6889 38.5622C40.6759 38.6409 40.6959 38.7487 40.5764 38.7492C40.4654 38.7492 40.4938 38.6489 40.4819 38.5792C40.247 37.1341 40.0106 35.6885 39.6199 34.2749C39.1303 32.4999 38.4649 30.7891 37.7369 29.1019C36.7033 26.7068 35.3522 24.5013 33.8592 22.3719C33.2914 21.5634 32.6694 20.7894 32.22 19.9017C31.9677 19.4034 31.7592 18.8891 31.7283 18.3177C31.6786 17.4279 32.0269 16.7091 32.6674 16.1251C33.5338 15.3377 34.4589 14.6214 35.379 13.8975C36.5734 12.9562 37.7772 12.0313 38.9173 11.0253C38.9641 10.9807 39.0059 10.923 39.0949 10.917Z" fill="#154F3A" stroke="#154F3A" stroke-miterlimit="10"/>
<path d="M19.8322 42.8816C20.2173 43.3031 20.6214 43.5924 21.1206 43.7337C21.3742 43.81 21.6404 43.8346 21.9036 43.806C22.1668 43.7775 22.4216 43.6963 22.6533 43.5673C22.8135 43.4811 22.9743 43.3934 23.1251 43.2916C24.0865 42.643 25.1251 42.5397 26.205 42.8936C27.4023 43.2871 28.5185 43.1783 29.5516 42.4344C30.1309 42.0179 30.4663 41.4094 30.7504 40.7768C31.1356 39.9161 31.3501 38.9879 31.382 38.0444C31.4934 35.0518 30.2513 32.7405 27.8522 31.0237C26.9395 30.372 25.9074 29.9986 24.8166 29.8016C24.19 29.6862 23.5434 29.8164 23.0091 30.1655C22.6598 30.3822 22.4014 30.7203 22.2827 31.1159C22.1641 31.5115 22.1934 31.9372 22.3652 32.3124C23.0166 33.8017 24.1632 34.6814 25.7491 34.919C26.4866 35.0288 27.1331 34.6774 27.6969 34.2022C27.785 34.1275 27.8601 34.0368 27.9457 33.9566C27.986 33.9185 28.0234 33.8654 28.095 33.9095C28.1871 33.9666 28.1244 34.0283 28.095 34.0784C27.7964 34.6107 27.3983 35.0493 26.8509 35.3315C26.3722 35.5822 25.8497 35.6564 25.3212 35.6995C23.9034 35.8153 22.7051 36.3511 21.8541 37.5446C21.6206 37.8786 21.4338 38.2435 21.2992 38.6289C21.2559 38.7487 21.2495 38.8133 21.4087 38.8003C21.7735 38.7732 22.1391 38.8394 22.4717 38.9928C22.8757 39.1737 23.1853 38.9752 23.4739 38.7146C23.5386 38.6559 23.568 38.5035 23.6988 38.6043C23.8153 38.694 23.8307 38.9943 23.7352 39.076C23.4366 39.3326 23.3575 39.6584 23.5386 39.9637C23.6337 40.1226 23.7874 40.2304 23.9367 40.3342C24.3513 40.6194 24.6026 41.2785 24.4841 41.7678C24.4697 41.8244 24.4777 41.8911 24.3975 41.8956C24.3174 41.9001 24.3025 41.8409 24.2886 41.7828C24.2746 41.7247 24.2667 41.668 24.2542 41.6109C24.1427 41.1096 23.9183 40.9186 23.4127 40.9206C23.3678 40.924 23.323 40.9135 23.2841 40.8906C23.2453 40.8677 23.2143 40.8334 23.1952 40.7923C22.4821 39.6289 20.9932 39.5171 19.9606 40.3808C19.8772 40.4613 19.8001 40.5483 19.7302 40.6409C19.6849 40.6911 19.6679 40.7978 19.5659 40.7502C19.435 40.6895 19.5415 40.5943 19.5659 40.5402C19.8476 39.8474 20.191 39.1868 20.5473 38.5281C20.9678 37.7552 21.4092 36.9937 21.7018 36.1561C21.9009 35.5907 21.8854 35.0318 21.7546 34.4603C21.5893 33.739 21.3823 33.0282 21.2256 32.3049C20.9369 30.9691 21.7979 29.7094 22.828 29.1891C24.0721 28.5615 25.3371 28.6151 26.6036 29.0532C28.8927 29.8447 30.626 31.3234 31.8935 33.3937C32.7048 34.7167 33.1989 36.2119 33.3367 37.7607C33.6119 40.659 32.8017 43.2244 30.9604 45.4601C30.3613 46.1899 29.5367 46.5769 28.6693 46.8791C27.264 47.3679 25.8875 47.2175 24.5249 46.7162C24.4538 46.6902 24.3309 46.6756 24.3592 46.5689C24.3876 46.4621 24.5001 46.5187 24.5722 46.5338C25.3465 46.6761 25.9785 46.3684 26.5573 45.8977C26.6519 45.8205 26.7638 45.7202 26.6966 45.5814C26.6295 45.4425 26.4881 45.4916 26.3647 45.5082C25.8327 45.5794 25.3003 45.65 24.7668 45.7087C24.5528 45.7393 24.3351 45.7292 24.1248 45.6791C23.9755 45.6395 23.8621 45.5663 23.8342 45.4099C23.8063 45.2535 23.9009 45.1593 24.0099 45.0741C24.0885 45.0144 24.1806 44.9738 24.2612 44.9142C24.3418 44.8545 24.4971 44.8315 24.4463 44.6916C24.4015 44.5683 24.2642 44.6044 24.1587 44.6059C23.7897 44.6035 23.4287 44.7132 23.1226 44.9207C21.8506 45.7959 20.1412 44.9037 19.865 43.5553C19.824 43.3332 19.8129 43.1066 19.8322 42.8816Z" fill="#154F3A" stroke="#154F3A" stroke-miterlimit="10"/>
</g>
<defs>
<clipPath id="clip0_1169_413220">
<rect width="59" height="74" fill="white"/>
</clipPath>
</defs>
</svg>
