<svg width="170" height="44" viewBox="0 0 170 44" fill="none" xmlns="http://www.w3.org/2000/svg">
<g clip-path="url(#clip0_1169_413381)">
<path fill-rule="evenodd" clip-rule="evenodd" d="M92.1797 25.8338V14.6152L93.173 14.5007V24.8497H97.1344L96.7924 25.8338H92.1797Z" fill="#113F71"/>
<path fill-rule="evenodd" clip-rule="evenodd" d="M167.182 31.6804H166.673V32.6342H167.182C167.473 32.6342 167.675 32.5968 167.787 32.5243C167.896 32.4495 167.952 32.3209 167.952 32.1409C167.952 31.982 167.889 31.8674 167.766 31.7926C167.643 31.7178 167.447 31.6804 167.182 31.6804ZM167.25 31.4443C167.612 31.4443 167.88 31.5004 168.05 31.6149C168.22 31.7295 168.303 31.9095 168.303 32.1549C168.303 32.3349 168.247 32.4869 168.136 32.6085C168.024 32.73 167.875 32.8025 167.689 32.8235L168.266 34.0204H167.868L167.317 32.8726H166.67V34.0204H166.324V31.4443H167.25ZM169.18 32.7674C169.18 32.4962 169.131 32.2391 169.031 31.996C168.931 31.7552 168.789 31.5378 168.603 31.3508C168.41 31.1567 168.194 31.0118 167.952 30.9113C167.71 30.8084 167.452 30.7593 167.182 30.7593C166.912 30.7593 166.661 30.8084 166.419 30.909C166.18 31.0095 165.968 31.1521 165.786 31.3391C165.593 31.5355 165.447 31.7575 165.347 32.003C165.244 32.2485 165.191 32.5033 165.191 32.7674C165.191 33.0316 165.244 33.2864 165.342 33.5295C165.444 33.7703 165.591 33.9877 165.779 34.1794C165.968 34.3687 166.187 34.516 166.426 34.6189C166.668 34.7217 166.919 34.7708 167.184 34.7708C167.45 34.7708 167.703 34.7217 167.947 34.6189C168.192 34.5137 168.413 34.3664 168.606 34.1724C168.794 33.9854 168.938 33.7726 169.034 33.5365C169.134 33.2957 169.183 33.0409 169.183 32.7698L169.18 32.7674ZM167.182 30.5396C167.482 30.5396 167.768 30.5957 168.038 30.7079C168.308 30.8201 168.548 30.9814 168.759 31.1942C168.966 31.3999 169.124 31.6407 169.234 31.9095C169.343 32.1807 169.399 32.4682 169.399 32.7674C169.399 33.0666 169.343 33.3565 169.238 33.6183C169.129 33.8825 168.971 34.1186 168.762 34.3267C168.543 34.5417 168.301 34.7077 168.029 34.8222C167.757 34.9345 167.478 34.9929 167.184 34.9929C166.891 34.9929 166.61 34.9368 166.347 34.8246C166.08 34.71 165.838 34.5464 165.626 34.3313C165.414 34.1186 165.254 33.8802 165.142 33.6113C165.03 33.3425 164.975 33.062 164.975 32.7651C164.975 32.4682 165.03 32.1877 165.144 31.9142C165.256 31.643 165.421 31.3999 165.633 31.1801C165.838 30.9721 166.07 30.8108 166.338 30.7032C166.601 30.5934 166.884 30.5373 167.184 30.5373L167.182 30.5396Z" fill="#113F71"/>
<path fill-rule="evenodd" clip-rule="evenodd" d="M0.917969 0.490936V43.5278H27.8455L30.702 38.5579H15.5122V4.21488C15.5215 2.04784 14.4259 0.59847 12.223 0.490936H0.917969Z" fill="#113F71"/>
<path fill-rule="evenodd" clip-rule="evenodd" d="M38.2383 43.5278V28.5339L54.8237 0.490936H73.8912C87.6689 0.490936 87.9923 26.7432 74.5053 26.8016C70.481 26.8203 57.9245 26.8016 57.9245 26.8016C57.9245 26.8016 64.2795 20.7447 65.8311 16.3825C67.3803 12.0204 65.5217 2.98525 61.9557 2.98525H55.7542V43.5278H38.2383Z" fill="#113F71"/>
<path fill-rule="evenodd" clip-rule="evenodd" d="M17.1572 36.4773H31.8817L53.1195 0.490936H39.6325L17.1572 36.4773Z" fill="#113F71"/>
<path fill-rule="evenodd" clip-rule="evenodd" d="M16.1865 0.490931H24.9003C24.9003 0.490931 27.0427 1.02392 27.0427 2.90576V18.0189L17.224 33.4126V3.04369C17.1542 1.9777 16.8099 1.05198 16.1865 0.472229V0.490931Z" fill="#113F71"/>
<path fill-rule="evenodd" clip-rule="evenodd" d="M158.375 39.182C158.375 40.1148 158.701 40.9096 159.369 41.5641C160.029 42.228 160.818 42.5553 161.748 42.5553C162.679 42.5553 163.467 42.228 164.128 41.5641C164.779 40.9096 165.105 40.1148 165.105 39.182C165.105 38.2493 164.779 37.4545 164.128 36.7906C163.467 36.136 162.676 35.8087 161.748 35.8087C160.82 35.8087 160.029 36.136 159.369 36.7906C158.701 37.4545 158.375 38.247 158.375 39.182ZM157.447 39.182C157.447 37.9711 157.854 36.9636 158.678 36.143C159.501 35.3319 160.527 34.9228 161.751 34.9228C162.974 34.9228 163.991 35.3319 164.814 36.143C165.628 36.9612 166.035 37.9688 166.035 39.182C166.035 40.3953 165.628 41.4169 164.814 42.2374C163.991 43.0486 162.972 43.4577 161.751 43.4577C160.529 43.4577 159.511 43.0486 158.687 42.2304C157.857 41.4122 157.447 40.3953 157.447 39.1844V39.182Z" fill="#113F71"/>
<path fill-rule="evenodd" clip-rule="evenodd" d="M156.687 42.4571C156.231 42.7774 155.742 43.0298 155.221 43.2028C154.7 43.3758 154.179 43.4576 153.656 43.4576C152.434 43.4576 151.415 43.0485 150.592 42.2304C149.762 41.4122 149.354 40.3953 149.354 39.1843C149.354 37.9734 149.762 36.9565 150.585 36.1454C151.408 35.3342 152.434 34.9251 153.656 34.9251C154.235 34.9251 154.763 35.0069 155.244 35.1542C155.726 35.3014 156.189 35.5399 156.638 35.8578L156.035 36.5942C155.635 36.316 155.244 36.1196 154.863 35.9957C154.479 35.8648 154.081 35.8064 153.658 35.8064C152.73 35.8064 151.939 36.1337 151.278 36.7976C150.611 37.4615 150.285 38.2539 150.285 39.1797C150.285 40.1054 150.611 40.9002 151.278 41.5618C151.939 42.2257 152.73 42.553 153.658 42.553C154.049 42.553 154.456 42.4782 154.872 42.3402C155.289 42.193 155.696 41.9872 156.086 41.7184L156.689 42.4548L156.687 42.4571Z" fill="#113F71"/>
<path fill-rule="evenodd" clip-rule="evenodd" d="M141.855 43.3735V35.1028L142.767 34.9882V36.3791C143.109 35.8789 143.499 35.5025 143.939 35.2571C144.379 35.0116 144.877 34.8877 145.421 34.8877C146.316 34.8877 147.019 35.1589 147.507 35.7059C148.005 36.2552 148.256 37.0314 148.256 38.0319V43.2566L147.361 43.3712V38.4901C147.361 37.548 147.182 36.835 146.814 36.3698C146.456 35.8952 145.909 35.6568 145.193 35.6568C144.542 35.6568 143.969 35.9023 143.49 36.3932C143.009 36.8771 142.764 37.4662 142.764 38.1628V43.2566L141.853 43.3712L141.855 43.3735Z" fill="#113F71"/>
<path fill-rule="evenodd" clip-rule="evenodd" d="M135.23 40.4584C135.23 41.0639 135.435 41.5641 135.842 41.9662C136.249 42.3683 136.763 42.5717 137.382 42.5717C138 42.5717 138.498 42.3753 138.882 41.9896C139.266 41.5969 139.452 41.0896 139.452 40.4584C139.452 39.8272 139.266 39.3293 138.882 38.9366C138.498 38.5438 138.01 38.3475 137.4 38.3475C136.791 38.3475 136.251 38.5509 135.844 38.9529C135.437 39.3457 135.232 39.853 135.232 40.4584H135.23ZM139.45 42.4408C139.156 42.7774 138.831 43.0299 138.463 43.2029C138.096 43.3758 137.698 43.4577 137.265 43.4577C136.442 43.4577 135.732 43.1701 135.156 42.581C134.576 41.999 134.283 41.2953 134.283 40.4608C134.283 39.6262 134.576 38.9296 135.156 38.3405C135.742 37.7584 136.442 37.4638 137.265 37.4638C137.682 37.4638 138.072 37.5457 138.454 37.7093C138.828 37.8729 139.163 38.102 139.447 38.4129V37.382C139.447 36.8163 139.301 36.4002 139.024 36.129C138.738 35.8672 138.298 35.7269 137.703 35.7269C137.351 35.7269 136.97 35.776 136.563 35.8836C136.156 35.9817 135.691 36.1454 135.162 36.3675L135.521 35.3038C135.918 35.1635 136.312 35.0654 136.693 34.9929C137.077 34.9274 137.442 34.8947 137.803 34.8947C138.682 34.8947 139.333 35.0981 139.743 35.5165C140.159 35.9256 140.361 36.5895 140.361 37.4825V43.2636L139.45 43.46V42.4455V42.4408Z" fill="#113F71"/>
<path fill-rule="evenodd" clip-rule="evenodd" d="M132.189 43.3899V31.8277L133.118 31.6967V43.259L132.189 43.3899Z" fill="#113F71"/>
<path fill-rule="evenodd" clip-rule="evenodd" d="M123.257 39.182C123.257 40.1148 123.583 40.9096 124.251 41.5641C124.911 42.228 125.702 42.5553 126.63 42.5553C127.558 42.5553 128.349 42.228 129.01 41.5641C129.661 40.9096 129.987 40.1148 129.987 39.182C129.987 38.2493 129.661 37.4545 129.01 36.7906C128.349 36.136 127.561 35.8087 126.63 35.8087C125.7 35.8087 124.911 36.136 124.251 36.7906C123.583 37.4545 123.257 38.247 123.257 39.182ZM122.329 39.182C122.329 37.9711 122.736 36.9636 123.56 36.143C124.383 35.3319 125.409 34.9228 126.632 34.9228C127.856 34.9228 128.873 35.3319 129.696 36.143C130.51 36.9612 130.917 37.9688 130.917 39.182C130.917 40.3953 130.51 41.4169 129.696 42.2374C128.873 43.0486 127.854 43.4577 126.632 43.4577C125.411 43.4577 124.392 43.0486 123.569 42.2304C122.739 41.4122 122.331 40.3953 122.331 39.1844L122.329 39.182Z" fill="#113F71"/>
<path fill-rule="evenodd" clip-rule="evenodd" d="M116.76 32.9918V38.5929H117.639C118.561 38.5929 119.277 38.3381 119.798 37.8472C120.312 37.3469 120.573 36.669 120.573 35.7924C120.573 34.9157 120.312 34.2285 119.798 33.7375C119.277 33.2373 118.561 32.9918 117.639 32.9918H116.76ZM115.783 43.4553V32.0404H117.658C118.847 32.0404 119.793 32.384 120.51 33.0643C121.226 33.7516 121.585 34.6609 121.585 35.79C121.585 36.9191 121.226 37.8285 120.51 38.5088C119.793 39.196 118.847 39.5397 117.658 39.5397H116.763V43.2566L115.786 43.453L115.783 43.4553Z" fill="#113F71"/>
<path fill-rule="evenodd" clip-rule="evenodd" d="M102.533 39.182C102.533 40.1148 102.859 40.9096 103.526 41.5641C104.187 42.228 104.975 42.5553 105.906 42.5553C106.836 42.5553 107.625 42.228 108.286 41.5641C108.937 40.9096 109.263 40.1148 109.263 39.182C109.263 38.2493 108.937 37.4545 108.286 36.7906C107.625 36.136 106.834 35.8087 105.906 35.8087C104.978 35.8087 104.187 36.136 103.526 36.7906C102.859 37.4545 102.533 38.247 102.533 39.182ZM101.603 39.182C101.603 37.9711 102.01 36.9636 102.833 36.143C103.657 35.3319 104.682 34.9228 105.906 34.9228C107.129 34.9228 108.146 35.3319 108.969 36.143C109.784 36.9612 110.191 37.9688 110.191 39.182C110.191 40.3953 109.784 41.4169 108.969 42.2374C108.146 43.0486 107.127 43.4577 105.906 43.4577C104.685 43.4577 103.666 43.0486 102.842 42.2304C102.012 41.4122 101.605 40.3953 101.605 39.1844L101.603 39.182Z" fill="#113F71"/>
<path fill-rule="evenodd" clip-rule="evenodd" d="M100.845 42.4571C100.389 42.7774 99.9003 43.0298 99.3792 43.2028C98.8582 43.3758 98.3371 43.4576 97.8137 43.4576C96.5925 43.4576 95.5737 43.0485 94.7502 42.2304C93.9198 41.4122 93.5127 40.3953 93.5127 39.1843C93.5127 37.9734 93.9198 36.9565 94.7432 36.1454C95.5667 35.3342 96.5925 34.9251 97.8137 34.9251C98.393 34.9251 98.921 35.0069 99.4025 35.1542C99.8817 35.3014 100.347 35.5399 100.796 35.8578L100.193 36.5942C99.7933 36.316 99.4025 36.1196 99.021 35.9957C98.6395 35.8648 98.2394 35.8064 97.8161 35.8064C96.8879 35.8064 96.097 36.1337 95.4364 36.7976C94.7688 37.4615 94.4432 38.2539 94.4432 39.1797C94.4432 40.1054 94.7688 40.9002 95.4364 41.5618C96.097 42.2257 96.8879 42.553 97.8161 42.553C98.2069 42.553 98.6139 42.4782 99.0303 42.3402C99.4467 42.193 99.8538 41.9872 100.245 41.7184L100.847 42.4548L100.845 42.4571Z" fill="#113F71"/>
<path fill-rule="evenodd" clip-rule="evenodd" d="M91.0889 32.5336L91.7751 31.6967L92.4752 32.4518L91.7751 33.2864L91.0889 32.5336Z" fill="#113F71"/>
<path fill-rule="evenodd" clip-rule="evenodd" d="M91.3193 43.3899V35.1028L92.2475 34.9882V43.259L91.3193 43.3899Z" fill="#113F71"/>
<path fill-rule="evenodd" clip-rule="evenodd" d="M82.0443 39.182C82.0443 40.1148 82.37 40.9096 83.0376 41.5641C83.6982 42.228 84.4891 42.5553 85.4173 42.5553C86.3454 42.5553 87.1363 42.228 87.7969 41.5641C88.4482 40.9096 88.7739 40.1148 88.7739 39.182C88.7739 38.2493 88.4482 37.4545 87.7969 36.7906C87.1363 36.136 86.3454 35.8087 85.4173 35.8087C84.4891 35.8087 83.6982 36.136 83.0376 36.7906C82.37 37.4545 82.0443 38.247 82.0443 39.182ZM88.7739 41.6553C88.3505 42.2374 87.8527 42.6862 87.2828 42.9971C86.7036 43.308 86.0849 43.4553 85.4173 43.4553C84.196 43.4553 83.1772 43.0462 82.3537 42.228C81.5233 41.4098 81.1162 40.3929 81.1162 39.182C81.1162 37.9711 81.5233 36.9636 82.3467 36.143C83.1702 35.3319 84.196 34.9228 85.4196 34.9228C86.1198 34.9228 86.7548 35.0794 87.327 35.3903C87.8969 35.7012 88.3784 36.1524 88.7785 36.7415V31.8113L89.6741 31.6967V43.259L88.7785 43.3735V41.653L88.7739 41.6553Z" fill="#113F71"/>
<path fill-rule="evenodd" clip-rule="evenodd" d="M73.8618 39.8857L79.2236 36.676C78.9956 36.3978 78.7095 36.1851 78.3606 36.0378C78.0093 35.8976 77.6185 35.8251 77.1719 35.8251C76.2345 35.8251 75.4436 36.1454 74.8016 36.7906C74.1572 37.4381 73.8316 38.2236 73.8316 39.1657C73.8316 39.3129 73.8316 39.4438 73.8385 39.5514C73.8479 39.6659 73.8478 39.7735 73.8641 39.888L73.8618 39.8857ZM80.396 42.2935C79.8586 42.6956 79.3283 42.9901 78.7979 43.1771C78.2768 43.3665 77.7302 43.4553 77.1673 43.4553C75.9298 43.4553 74.9016 43.0462 74.0874 42.235C73.2733 41.4168 72.8662 40.3929 72.8662 39.1797C72.8662 37.9664 73.2733 36.9519 74.0967 36.1407C74.9202 35.3295 75.946 34.9204 77.1696 34.9204C77.9442 34.9204 78.6211 35.0934 79.2073 35.4277C79.7865 35.7643 80.2331 36.2459 80.5588 36.8864L74.1875 40.6688C74.4899 41.2509 74.8969 41.7091 75.418 42.027C75.9391 42.3449 76.5252 42.5015 77.1696 42.5015C77.6837 42.5015 78.1954 42.3963 78.7025 42.1813C79.2003 41.9592 79.7702 41.6085 80.3983 41.1083V42.2865L80.396 42.2935Z" fill="#113F71"/>
<path fill-rule="evenodd" clip-rule="evenodd" d="M76.1104 34.0391L77.8201 31.2386H78.8808L76.7454 34.0391H76.1104Z" fill="#113F71"/>
<path fill-rule="evenodd" clip-rule="evenodd" d="M60.3418 43.2753L62.6563 31.664L66.4363 41.0148L70.2349 31.664L72.5308 43.2753L71.5701 43.488L69.9069 34.9718L66.4363 43.488L62.9657 34.9718L61.3025 43.488L60.3418 43.2753Z" fill="#113F71"/>
<path fill-rule="evenodd" clip-rule="evenodd" d="M156.418 21.7545C156.418 22.6873 156.744 23.4821 157.412 24.1366C158.072 24.8005 158.861 25.1278 159.791 25.1278C160.722 25.1278 161.51 24.8005 162.171 24.1366C162.822 23.4821 163.148 22.6873 163.148 21.7545C163.148 20.8218 162.822 20.027 162.171 19.3631C161.51 18.7085 160.722 18.3813 159.791 18.3813C158.861 18.3813 158.072 18.7085 157.412 19.3631C156.744 20.027 156.418 20.8195 156.418 21.7545ZM155.49 21.7545C155.49 20.5436 155.897 19.5361 156.721 18.7155C157.544 17.9044 158.57 17.4953 159.791 17.4953C161.013 17.4953 162.031 17.9044 162.855 18.7155C163.669 19.5337 164.076 20.5413 164.076 21.7545C164.076 22.9678 163.669 23.9894 162.855 24.8099C162.031 25.6211 161.013 26.0302 159.791 26.0302C158.57 26.0302 157.551 25.6211 156.728 24.8029C155.897 23.9847 155.49 22.9678 155.49 21.7569V21.7545Z" fill="#113F71"/>
<path fill-rule="evenodd" clip-rule="evenodd" d="M153.069 15.1062L153.753 14.2716L154.456 15.0243L153.753 15.8589L153.069 15.1062Z" fill="#113F71"/>
<path fill-rule="evenodd" clip-rule="evenodd" d="M153.297 25.9647V17.6776L154.225 17.5631V25.8338L153.297 25.9647Z" fill="#113F71"/>
<path fill-rule="evenodd" clip-rule="evenodd" d="M148.854 25.9484V17.6776L149.765 17.5631V19.3327C150.091 18.6945 150.491 18.2106 150.97 17.8927C151.443 17.5724 151.996 17.4182 152.617 17.4182H152.845L152.471 18.3182C151.55 18.4093 150.866 18.8184 150.426 19.5291C149.986 20.2491 149.765 21.3314 149.765 22.7551V25.8338L148.854 25.9484Z" fill="#113F71"/>
<path fill-rule="evenodd" clip-rule="evenodd" d="M140.019 21.7545C140.019 22.6873 140.345 23.4821 141.015 24.1366C141.675 24.8005 142.464 25.1278 143.394 25.1278C144.325 25.1278 145.113 24.8005 145.774 24.1366C146.425 23.4821 146.751 22.6873 146.751 21.7545C146.751 20.8218 146.425 20.027 145.774 19.3631C145.113 18.7085 144.325 18.3813 143.394 18.3813C142.464 18.3813 141.675 18.7085 141.015 19.3631C140.347 20.027 140.019 20.8195 140.019 21.7545ZM139.091 21.7545C139.091 20.5436 139.498 19.5361 140.321 18.7155C141.145 17.9044 142.171 17.4953 143.394 17.4953C144.618 17.4953 145.634 17.9044 146.458 18.7155C147.272 19.5337 147.679 20.5413 147.679 21.7545C147.679 22.9678 147.272 23.9894 146.458 24.8099C145.634 25.6211 144.615 26.0302 143.394 26.0302C142.173 26.0302 141.154 25.6211 140.331 24.8029C139.5 23.9847 139.093 22.9678 139.093 21.7569L139.091 21.7545Z" fill="#113F71"/>
<path fill-rule="evenodd" clip-rule="evenodd" d="M138.716 25.8338C138.561 25.8759 138.407 25.8993 138.26 25.9156C138.114 25.9413 137.977 25.9484 137.853 25.9484C137.039 25.9484 136.46 25.7193 136.118 25.2611C135.776 24.8029 135.604 23.959 135.604 22.7387V18.5636H134.432L134.692 17.6799H135.604V15.7467L136.516 15.1903V17.6799H138.635V18.5636H136.516V22.8533C136.516 23.7299 136.614 24.312 136.818 24.6065C137.021 24.8941 137.381 25.032 137.902 25.032C138.007 25.032 138.13 25.0226 138.27 25.0063C138.409 24.9899 138.556 24.9665 138.719 24.9338V25.8338H138.716Z" fill="#113F71"/>
<path fill-rule="evenodd" clip-rule="evenodd" d="M128.57 23.0333C128.57 23.6387 128.772 24.139 129.182 24.5387C129.589 24.9408 130.103 25.1442 130.721 25.1442C131.34 25.1442 131.838 24.9478 132.222 24.5621C132.606 24.1694 132.792 23.6621 132.792 23.0309C132.792 22.3997 132.603 21.9018 132.222 21.5068C131.838 21.114 131.35 20.9177 130.738 20.9177C130.126 20.9177 129.589 21.1234 129.182 21.5231C128.774 21.9158 128.57 22.4231 128.57 23.0309V23.0333ZM132.789 25.0133C132.496 25.3499 132.171 25.6024 131.803 25.7754C131.436 25.9484 131.038 26.0302 130.605 26.0302C129.782 26.0302 129.075 25.7426 128.495 25.1535C127.916 24.5715 127.623 23.8678 127.623 23.0333C127.623 22.1987 127.916 21.5021 128.495 20.913C129.082 20.3309 129.784 20.0363 130.605 20.0363C131.022 20.0363 131.412 20.1182 131.796 20.2818C132.171 20.4454 132.506 20.6745 132.789 20.9854V19.9545C132.789 19.3888 132.643 18.9727 132.366 18.7015C132.08 18.4397 131.64 18.2994 131.045 18.2994C130.694 18.2994 130.312 18.3485 129.905 18.4561C129.498 18.5543 129.033 18.7179 128.502 18.94L128.861 17.8763C129.261 17.7361 129.651 17.6379 130.033 17.5654C130.417 17.5 130.782 17.4672 131.14 17.4672C132.019 17.4672 132.673 17.6729 133.08 18.0891C133.497 18.4981 133.699 19.162 133.699 20.055V25.8362L132.787 26.0325V25.018L132.789 25.0133Z" fill="#113F71"/>
<path fill-rule="evenodd" clip-rule="evenodd" d="M123.802 25.9484V17.6776L124.714 17.5631V19.3327C125.039 18.6945 125.439 18.2106 125.919 17.8927C126.391 17.5724 126.944 17.4182 127.565 17.4182H127.793L127.419 18.3182C126.498 18.4093 125.814 18.8184 125.374 19.5291C124.935 20.2491 124.714 21.3314 124.714 22.7551V25.8338L123.802 25.9484Z" fill="#113F71"/>
<path fill-rule="evenodd" clip-rule="evenodd" d="M114.966 21.7545C114.966 22.6873 115.292 23.4821 115.959 24.1366C116.62 24.8005 117.409 25.1278 118.339 25.1278C119.27 25.1278 120.058 24.8005 120.719 24.1366C121.37 23.4821 121.696 22.6873 121.696 21.7545C121.696 20.8218 121.37 20.027 120.719 19.3631C120.058 18.7085 119.27 18.3813 118.339 18.3813C117.409 18.3813 116.62 18.7085 115.959 19.3631C115.292 20.027 114.966 20.8195 114.966 21.7545ZM114.038 21.7545C114.038 20.5436 114.445 19.5361 115.269 18.7155C116.092 17.9044 117.118 17.4953 118.341 17.4953C119.565 17.4953 120.582 17.9044 121.405 18.7155C122.219 19.5337 122.626 20.5413 122.626 21.7545C122.626 22.9678 122.219 23.9894 121.405 24.8099C120.582 25.6211 119.563 26.0302 118.341 26.0302C117.12 26.0302 116.101 25.6211 115.278 24.8029C114.447 23.9847 114.04 22.9678 114.04 21.7569L114.038 21.7545Z" fill="#113F71"/>
<path fill-rule="evenodd" clip-rule="evenodd" d="M105.644 21.7546C105.644 22.7037 105.969 23.5078 106.621 24.153C107.272 24.8076 108.063 25.1278 109 25.1278C109.938 25.1278 110.719 24.8006 111.38 24.1367C112.031 23.4821 112.357 22.6873 112.357 21.7546C112.357 20.8218 112.031 20.027 111.38 19.3631C110.719 18.7085 109.931 18.3813 109 18.3813C108.07 18.3813 107.281 18.7085 106.63 19.3724C105.969 20.0363 105.644 20.8288 105.644 21.7546ZM104.732 21.6236V14.3862L105.644 14.2716V19.3C106.067 18.7179 106.556 18.2691 107.135 17.9652C107.705 17.6542 108.333 17.4976 109 17.4976C110.222 17.4976 111.24 17.9067 112.064 18.7179C112.887 19.5361 113.301 20.5436 113.301 21.7569C113.301 22.9701 112.885 23.9847 112.064 24.8029C111.24 25.6211 110.222 26.0302 109 26.0302C107.779 26.0302 106.728 25.6281 105.927 24.8099C105.13 23.9917 104.729 22.9351 104.729 21.6236H104.732Z" fill="#113F71"/>
<path fill-rule="evenodd" clip-rule="evenodd" d="M98.1856 23.0333C98.1856 23.6387 98.388 24.139 98.7974 24.5387C99.2045 24.9408 99.7186 25.1442 100.337 25.1442C100.956 25.1442 101.454 24.9478 101.838 24.5621C102.221 24.1694 102.408 23.6621 102.408 23.0309C102.408 22.3997 102.221 21.9018 101.838 21.5068C101.454 21.114 100.965 20.9177 100.356 20.9177C99.7465 20.9177 99.2068 21.1234 98.7997 21.5231C98.3927 21.9158 98.188 22.4231 98.188 23.0309L98.1856 23.0333ZM102.408 25.0133C102.114 25.3499 101.789 25.6024 101.421 25.7754C101.054 25.9484 100.656 26.0302 100.223 26.0302C99.3999 26.0302 98.6904 25.7426 98.1135 25.1535C97.5343 24.5715 97.2412 23.8678 97.2412 23.0333C97.2412 22.1987 97.5343 21.5021 98.1135 20.913C98.6997 20.3309 99.4022 20.0363 100.223 20.0363C100.64 20.0363 101.031 20.1182 101.414 20.2818C101.789 20.4454 102.124 20.6745 102.408 20.9854V19.9545C102.408 19.3888 102.261 18.9727 101.984 18.7015C101.698 18.4397 101.258 18.2994 100.665 18.2994C100.314 18.2994 99.9326 18.3485 99.5255 18.4561C99.1184 18.5543 98.6532 18.7179 98.1228 18.94L98.4811 17.8763C98.8811 17.7361 99.2719 17.6379 99.6534 17.5654C100.037 17.5 100.402 17.4672 100.761 17.4672C101.64 17.4672 102.291 17.6729 102.701 18.0891C103.117 18.4981 103.319 19.162 103.319 20.055V25.8362L102.408 26.0325V25.018V25.0133Z" fill="#113F71"/>
</g>
<defs>
<clipPath id="clip0_1169_413381">
<rect width="168.478" height="43.0556" fill="white" transform="translate(0.917969 0.472229)"/>
</clipPath>
</defs>
</svg>
