<svg width="120" height="64" viewBox="0 0 120 64" fill="none" xmlns="http://www.w3.org/2000/svg">
<g clip-path="url(#clip0_1169_413226)">
<path d="M0 13.8274C0 13.8274 19.0173 -0.783621 61.2554 0.135485C61.2554 0.135485 104.183 0.36526 119.497 13.5977C119.497 13.5977 100.236 2.91983 60.7958 2.21699C60.7958 2.21699 22.7342 1.28437 0 13.8274Z" fill="#0060A9"/>
<path d="M22.8424 21.1667H15.7734V43.7524H22.8424V21.1667Z" fill="#0060A9"/>
<path d="M24.0586 28.9116H30.3707V21.1667H37.4937V28.9116H40.8457L41.8189 30.493H24.0586V28.9116Z" fill="#0060A9"/>
<path d="M24.0586 31.2904H42.319L43.3597 32.8583H24.0586V31.2904Z" fill="#0060A9"/>
<path d="M37.4667 35.6291H44.9952L43.7382 33.6558H24.0586V35.6291H30.3842V43.7524H37.4531L37.4667 35.6291Z" fill="#0060A9"/>
<path d="M37.4941 21.1667H45.2524L58.9038 43.7524H51.2807L37.4941 21.1667Z" fill="#0060A9"/>
<path d="M17.4902 51.1187V55.0249H21.6126V51.1187H23.3968V60.864H21.6126V56.5658H17.4902V60.864H15.7061V51.1187H17.4902Z" fill="#8E979D"/>
<path d="M32.0602 57.2822C32.0602 59.8773 30.2355 61.0262 28.4379 61.0262C26.451 61.0262 24.9102 59.661 24.9102 57.3903C24.9102 55.1196 26.424 53.6598 28.5595 53.6598C30.6951 53.6598 32.0602 55.1331 32.0602 57.2822ZM26.7484 57.3633C26.7484 58.7284 27.4242 59.7556 28.5055 59.7556C29.5192 59.7556 30.222 58.769 30.222 57.3362C30.222 56.2414 29.7354 54.9574 28.519 54.9574C27.3025 54.9574 26.7619 56.1874 26.7619 57.3633H26.7484Z" fill="#8E979D"/>
<path d="M33.4528 59.2285C33.8448 59.4718 34.6152 59.7421 35.2505 59.7421C36.0344 59.7421 36.3723 59.4042 36.3723 58.9447C36.3723 58.4851 36.0885 58.2418 35.2099 57.9174C33.8313 57.4579 33.2771 56.701 33.2771 55.863C33.2771 54.6195 34.3043 53.6598 35.9398 53.6598C36.7237 53.6598 37.3996 53.849 37.8186 54.0788L37.4536 55.3223C37.1698 55.1466 36.5886 54.9168 35.9668 54.9168C35.3451 54.9168 34.9802 55.2412 34.9802 55.6737C34.9802 56.1063 35.3181 56.3225 36.2101 56.6604C37.4942 57.1065 38.0754 57.7552 38.0889 58.796C38.0889 60.08 37.0887 61.0127 35.2234 61.0127C34.3719 61.0127 33.6015 60.8099 33.0879 60.5261L33.4528 59.2285Z" fill="#8E979D"/>
<path d="M39.5482 56.1738C39.5482 55.2547 39.5212 54.4978 39.4941 53.8355H41.062L41.1431 54.9168H41.1701C41.6973 54.1194 42.5218 53.6733 43.5895 53.6733C45.2115 53.6733 46.5496 55.0655 46.5496 57.2551C46.5496 59.7962 44.9412 61.0262 43.3327 61.0262C42.4542 61.0262 41.7108 60.6477 41.3459 60.08H41.3188V63.7294H39.5347V56.1603L39.5482 56.1738ZM41.3323 57.931C41.3323 58.1067 41.3459 58.2689 41.3729 58.4175C41.5621 59.1474 42.1839 59.661 42.9543 59.661C44.0761 59.661 44.7519 58.7149 44.7519 57.3362C44.7519 56.0927 44.1437 55.079 43.0084 55.079C42.265 55.079 41.5891 55.6197 41.3999 56.3901C41.3729 56.5388 41.3459 56.6875 41.3459 56.8361V57.9174L41.3323 57.931Z" fill="#8E979D"/>
<path d="M49.9018 51.8621C49.9018 52.3893 49.5098 52.8218 48.888 52.8218C48.2663 52.8218 47.9014 52.3893 47.9014 51.8621C47.9014 51.308 48.3069 50.889 48.9016 50.889C49.4963 50.889 49.8882 51.308 49.9018 51.8621ZM48.0095 60.8775V53.8355H49.7936V60.8775H48.0095Z" fill="#8E979D"/>
<path d="M53.7544 52.0244V53.8355H55.4439V55.1736H53.7544V58.2824C53.7544 59.1474 53.9841 59.5799 54.66 59.5799C54.9843 59.5799 55.1465 59.5664 55.3493 59.5124L55.3763 60.864C55.1195 60.9721 54.6329 61.0532 54.0923 61.0532C53.43 61.0532 52.8893 60.8369 52.5649 60.472C52.173 60.0665 51.9973 59.4177 51.9973 58.4851V55.1736H50.9971V53.8355H51.9973V52.5245L53.7544 52.0379V52.0244Z" fill="#8E979D"/>
<path d="M62.2554 59.188C62.2554 59.8232 62.2824 60.445 62.3635 60.8775H60.7551L60.6199 60.0936H60.5794C60.1604 60.6477 59.417 61.0397 58.4979 61.0397C57.0787 61.0397 56.2812 60.0125 56.2812 58.9447C56.2812 57.174 57.8626 56.2685 60.4578 56.282V56.1603C60.4578 55.7008 60.2685 54.9303 59.025 54.9303C58.3357 54.9303 57.6058 55.1466 57.1328 55.444L56.7813 54.2816C57.295 53.9572 58.2141 53.6598 59.3224 53.6598C61.5796 53.6598 62.2284 55.0925 62.2284 56.6469V59.1744L62.2554 59.188ZM60.5253 57.4309C59.2683 57.4173 58.0654 57.6741 58.0654 58.7419C58.0654 59.4313 58.5114 59.7556 59.0791 59.7556C59.809 59.7556 60.3091 59.2961 60.4848 58.7825C60.5253 58.6473 60.5253 58.5257 60.5253 58.3905V57.4173V57.4309Z" fill="#8E979D"/>
<path d="M64.1348 50.6051H65.9189V60.8775H64.1348V50.6051Z" fill="#8E979D"/>
<path d="M72.8793 58.1066L72.0413 60.864H70.2031L73.3254 51.1187H75.5961L78.7589 60.864H76.8396L75.961 58.1066H72.8793ZM75.6637 56.7685L74.8932 54.3626C74.704 53.7679 74.5418 53.1056 74.4067 52.5379H74.3796C74.2309 53.1056 74.0688 53.7814 73.9201 54.3626L73.1632 56.7685H75.6637Z" fill="#8E979D"/>
<path d="M79.9759 55.9306C79.9759 55.1196 79.9489 54.4438 79.9219 53.8355H81.4627L81.5573 54.8898H81.5979C81.9223 54.3356 82.6792 53.6733 83.8551 53.6733C85.0851 53.6733 86.3556 54.4708 86.3556 56.701V60.8775H84.5714V56.9037C84.5714 55.89 84.193 55.1196 83.2333 55.1196C82.517 55.1196 82.0304 55.6197 81.8412 56.1603C81.7871 56.309 81.7601 56.5253 81.7601 56.728V60.8775H79.9759V55.9306Z" fill="#8E979D"/>
<path d="M94.6274 59.8503C94.6274 61.3235 94.3301 62.3778 93.5867 63.0536C92.8703 63.7024 91.8431 63.9051 90.8699 63.9051C89.9779 63.9051 89.0182 63.7024 88.41 63.3375L88.802 61.9858C89.248 62.2426 90.0049 62.5265 90.8564 62.5265C92.0188 62.5265 92.8838 61.9183 92.8838 60.4044V59.7962H92.8568C92.4513 60.4179 91.7485 60.837 90.8024 60.837C89.0588 60.837 87.8018 59.3907 87.8018 57.3903C87.8018 55.079 89.3021 53.6733 91.0051 53.6733C92.0864 53.6733 92.7081 54.2005 93.046 54.7682H93.0731L93.1407 53.822H94.695C94.668 54.2951 94.6409 54.8763 94.6409 55.8495V59.8368L94.6274 59.8503ZM92.8568 56.6469C92.8568 56.4712 92.8433 56.309 92.8028 56.1738C92.6135 55.5251 92.1134 55.0385 91.3565 55.0385C90.3563 55.0385 89.6264 55.9035 89.6264 57.3362C89.6264 58.5392 90.2347 59.5124 91.343 59.5124C92.0053 59.5124 92.5865 59.0798 92.7892 58.4311C92.8433 58.2553 92.8568 58.0121 92.8568 57.8093V56.6604V56.6469Z" fill="#8E979D"/>
<path d="M97.8035 57.8499C97.844 59.1204 98.8307 59.6746 99.9796 59.6746C100.804 59.6746 101.385 59.5394 101.926 59.3637L102.183 60.5801C101.574 60.837 100.736 61.0262 99.7228 61.0262C97.4385 61.0262 96.0869 59.6205 96.0869 57.4714C96.0869 55.5116 97.2763 53.6869 99.5335 53.6869C101.791 53.6869 102.575 55.5656 102.575 57.12C102.575 57.4579 102.548 57.7147 102.521 57.8769H97.8035V57.8499ZM100.899 56.6064C100.912 55.9576 100.628 54.8898 99.4389 54.8898C98.3441 54.8898 97.8711 55.89 97.8035 56.6064H100.899Z" fill="#8E979D"/>
<path d="M104.007 50.6051H105.791V60.8775H104.007V50.6051Z" fill="#8E979D"/>
<path d="M108.981 57.8499C109.022 59.1204 110.008 59.6746 111.157 59.6746C111.982 59.6746 112.563 59.5394 113.104 59.3637L113.36 60.5801C112.752 60.837 111.914 61.0262 110.901 61.0262C108.616 61.0262 107.265 59.6205 107.265 57.4714C107.265 55.5116 108.454 53.6869 110.711 53.6869C112.968 53.6869 113.752 55.5656 113.752 57.12C113.752 57.4579 113.725 57.7147 113.698 57.8769H108.981V57.8499ZM112.076 56.6064C112.09 55.9576 111.806 54.8898 110.617 54.8898C109.522 54.8898 109.049 55.89 108.981 56.6064H112.076Z" fill="#8E979D"/>
<path d="M115.118 59.2285C115.51 59.4718 116.28 59.7557 116.916 59.7557C117.699 59.7557 118.037 59.4177 118.037 58.9582C118.037 58.4986 117.754 58.2554 116.875 57.931C115.496 57.4714 114.942 56.7145 114.942 55.8765C114.942 54.633 115.969 53.6733 117.605 53.6733C118.389 53.6733 119.065 53.8626 119.484 54.0923L119.119 55.3358C118.835 55.1601 118.254 54.9304 117.632 54.9304C117.01 54.9304 116.645 55.2547 116.645 55.6873C116.645 56.1198 116.983 56.336 117.875 56.6739C119.159 57.12 119.74 57.7688 119.754 58.8095C119.754 60.0936 118.754 61.0262 116.888 61.0262C116.037 61.0262 115.267 60.8234 114.753 60.5396L115.118 59.242V59.2285Z" fill="#8E979D"/>
</g>
<defs>
<clipPath id="clip0_1169_413226">
<rect width="119.753" height="63.8102" fill="white" transform="translate(0 0.0949097)"/>
</clipPath>
</defs>
</svg>
