<svg width="85" height="72" viewBox="0 0 85 72" fill="none" xmlns="http://www.w3.org/2000/svg">
<mask id="mask0_1169_413253" style="mask-type:luminance" maskUnits="userSpaceOnUse" x="3" y="3" width="80" height="66">
<path d="M82.0199 3.16748H3.99219V68.7439H82.0199V3.16748Z" fill="white"/>
</mask>
<g mask="url(#mask0_1169_413253)">
<path d="M15.0202 56.7327H9.84052L12.4511 50.4655L15.0202 56.7327ZM15.4007 57.726L16.542 60.4846C16.6804 60.8997 16.7966 61.0989 16.7966 61.5734C16.7966 62.4464 15.51 62.4464 14.7837 62.4464V62.9431H23.0845V62.4464C21.6374 62.4464 21.0093 60.7392 20.5264 59.5411L14.2372 44.2814H13.9771L8.0005 58.5768C7.38486 60.0405 6.6364 62.3122 4.87109 62.4505V62.9472H10.5862V62.4505C9.29543 62.3744 8.31178 62.2541 8.31178 60.9287C8.31178 60.4044 8.54836 59.8538 8.80015 59.1869L9.40196 57.726H15.4007Z" fill="#0075C9"/>
<path d="M38.8345 45.7161H39.5581C42.9226 45.7161 43.2325 48.4471 43.2325 49.2785C43.2325 51.5654 41.9874 52.8908 38.8345 52.8908V45.7161ZM38.8345 53.9436H39.6106C43.5701 53.9436 43.8191 56.9789 43.8191 58.094C43.8191 60.2896 42.408 61.9013 40.2816 61.9013C39.096 61.9013 38.8345 61.4296 38.8345 60.1582V53.9436ZM34.857 59.4913C34.857 61.727 34.857 62.4436 32.418 62.4436V62.9417H40.8571C47.0094 62.9417 48.3818 59.8524 48.3818 57.9737C48.3818 54.8844 45.9774 53.7804 43.5397 53.2809V53.2214C45.4295 52.7594 47.4756 51.7342 47.4756 49.1928C47.4756 48.6394 47.4756 44.6688 41.4188 44.6688H32.418V45.1627C34.857 45.1627 34.857 45.8807 34.857 48.1178V59.4913Z" fill="#0075C9"/>
<path d="M75.0461 50.5762H74.5758C74.0362 47.7055 71.8365 45.438 69.0184 45.438C65.6012 45.438 63.3544 48.6975 63.3544 53.5811C63.3544 59.6781 65.5542 62.0853 68.9907 62.0853C71.5003 62.0853 73.2047 60.7101 74.7639 58.7484V60.3172C72.8699 62.4754 70.8279 63.3608 68.0817 63.3608C62.4469 63.3608 58.8125 59.4733 58.8125 54.1386C58.8125 48.6726 63.0722 44.2482 68.1758 44.2482C69.5455 44.2482 70.7297 44.5567 71.9983 45.0783C72.3788 45.2457 73.065 45.5763 73.4953 45.5763C74.1745 45.5763 74.5024 44.8846 74.5799 44.2455H75.0461V50.5762Z" fill="#0075C9"/>
<path d="M53.6018 31.7915C53.5423 31.8576 53.4733 31.9145 53.3971 31.9603L52.0316 32.8222H51.6719L52.9779 31.5092C53.0315 31.4583 53.0893 31.412 53.1508 31.3709C53.2147 31.3232 53.2924 31.2975 53.3722 31.2976C53.4485 31.2978 53.5219 31.3264 53.5783 31.3778C53.6087 31.4035 53.6329 31.4358 53.649 31.4722C53.665 31.5087 53.6726 31.5483 53.671 31.5881C53.6734 31.6633 53.6489 31.7369 53.6018 31.7956" fill="#0075C9"/>
<path d="M8.0001 33.1999C8.19283 33.2924 8.39213 33.3705 8.59637 33.4337C8.65005 33.4346 8.70294 33.4207 8.74929 33.3936C8.79564 33.3666 8.83367 33.3273 8.85923 33.2801C8.92269 33.1876 8.96171 33.0805 8.97268 32.9688H9.21894V35.347H8.99896C8.84381 34.9165 8.63808 34.506 8.38609 34.124C7.98903 33.5831 7.53802 33.3036 7.0372 33.3036C6.47552 33.3036 6.06878 33.5969 5.83774 34.1946C5.6067 34.7922 5.49049 35.5711 5.49049 36.5686C5.47345 37.1746 5.54144 37.78 5.69247 38.3671C5.9498 39.2507 6.43171 39.6929 7.1382 39.6939C7.5783 39.69 8.00353 39.5341 8.34182 39.2525C8.62102 39.0107 8.87419 38.7404 9.09719 38.446L9.3393 38.6922C9.09691 39.0515 8.80802 39.3772 8.48016 39.6607C8.06704 40.0058 7.54507 40.1935 7.00677 40.1905C6.61591 40.198 6.2279 40.1227 5.8683 39.9693C5.5087 39.816 5.18567 39.5882 4.9205 39.301C4.309 38.6383 3.99219 37.7529 3.99219 36.6309C3.99219 35.5089 4.2924 34.6248 4.88453 33.9359C5.25088 33.488 5.75478 33.1735 6.3181 33.0411C6.88141 32.9088 7.47264 32.9661 8.0001 33.204" fill="#0075C9"/>
<path d="M9.85352 39.983V39.7229C10.0299 39.7306 10.205 39.6899 10.3599 39.6053C10.5148 39.4933 10.5951 39.2982 10.5951 39.0021V34.0535C10.5951 33.7574 10.5148 33.5596 10.3571 33.453C10.2005 33.3755 10.0282 33.3353 9.85352 33.3354V33.0753H14.6957V35.1367H14.4785C14.3747 34.4727 14.1907 34.0299 13.9251 33.7851C13.6594 33.5402 13.2126 33.4198 12.5319 33.4198C12.2732 33.4198 12.1086 33.4503 12.0408 33.5167C11.973 33.5831 11.937 33.7104 11.937 33.9054V36.2822C12.424 36.2822 12.7477 36.1868 12.9151 35.9737C13.0825 35.7607 13.2209 35.3608 13.3094 34.7936H13.5225V38.1942H13.315C13.2569 37.6173 13.1351 37.2092 12.947 36.9726C12.7588 36.736 12.4295 36.617 11.9426 36.617V39.0921C11.9426 39.3093 11.9868 39.4573 12.0809 39.5334C12.175 39.6095 12.3673 39.6496 12.655 39.6496C13.1232 39.67 13.5852 39.5369 13.9707 39.2705C14.3083 39.016 14.6127 38.5442 14.8783 37.8525H15.1107L14.7718 39.9802L9.85352 39.983Z" fill="#0075C9"/>
<path d="M15.4482 39.7229C15.7623 39.7119 15.9518 39.6427 16.0418 39.5085C16.1421 39.3241 16.1872 39.1147 16.1718 38.9053V34.0631C15.9214 33.7173 15.7651 33.5098 15.7083 33.4461C15.6427 33.3821 15.5574 33.3421 15.4662 33.3327V33.0753H17.2357L20.1216 37.3641H20.1603V34.3343C20.1603 33.9954 20.1133 33.7505 20.0095 33.5969C19.9058 33.4434 19.6996 33.3617 19.3967 33.3354V33.0753H21.1786V33.3299C20.9899 33.3519 20.8113 33.4272 20.6639 33.5471C20.574 33.6357 20.5325 33.8376 20.5325 34.1503V40.185H20.3015L16.6007 34.6968H16.5481V38.7158C16.5316 38.9426 16.5671 39.1702 16.6519 39.3812C16.7653 39.5901 16.9922 39.7049 17.3436 39.7174V39.9775H15.4482V39.7229Z" fill="#0075C9"/>
<path d="M21.5913 33.0753H26.6036V35.134H26.3657C26.2799 34.3993 26.053 33.8888 25.6891 33.6398C25.408 33.4752 25.0864 33.3928 24.7608 33.4018V38.7835C24.7608 39.164 24.8079 39.4089 24.9172 39.532C25.0265 39.6551 25.2409 39.716 25.5854 39.716V39.9789H22.6012V39.716C22.9374 39.716 23.1546 39.6579 23.2639 39.532C23.3732 39.4061 23.4272 39.1543 23.4272 38.7835V33.4018C23.1007 33.3929 22.7782 33.4753 22.4961 33.6398C22.0949 33.9027 21.8694 34.4049 21.8223 35.134H21.583L21.5913 33.0753Z" fill="#0075C9"/>
<path d="M29.1662 36.4662V33.8612C29.1558 33.739 29.1941 33.6177 29.2727 33.5236C29.3447 33.453 29.4927 33.4198 29.7168 33.4198C29.9034 33.4108 30.0879 33.4626 30.2425 33.5674C30.3972 33.6722 30.5137 33.8243 30.5746 34.0009C30.6793 34.304 30.7262 34.624 30.7129 34.9444C30.7129 35.5891 30.5898 36.0028 30.3587 36.1812C30.1277 36.3597 29.7168 36.4579 29.1634 36.4662M27.0771 39.983H29.8897V39.7229C29.6047 39.7146 29.4069 39.6454 29.3087 39.5168C29.2105 39.3881 29.1703 39.1502 29.1703 38.7932V36.79H29.4083L31.1418 39.983H32.8504V39.7229C32.7825 39.7218 32.7158 39.7053 32.6553 39.6745C32.5908 39.6417 32.5377 39.5901 32.5031 39.5265L30.9287 36.6281C31.2163 36.5483 31.4754 36.3886 31.6758 36.1674C31.9857 35.8492 32.1462 35.4106 32.1462 34.8545C32.1462 34.1019 31.81 33.5858 31.1362 33.2939C30.7029 33.1373 30.2438 33.0641 29.7832 33.0781H27.0799V33.3354C27.3566 33.3645 27.5434 33.4198 27.6222 33.5001C27.7426 33.6177 27.8076 33.875 27.8076 34.2693V38.7932C27.8076 39.1695 27.755 39.4158 27.6541 39.5362C27.5531 39.6565 27.3566 39.7119 27.0799 39.7229L27.0771 39.983Z" fill="#0075C9"/>
<path d="M36.246 39.8544C35.6096 39.8544 35.1808 39.395 34.9469 38.4875C34.8044 37.8554 34.7412 37.208 34.7588 36.5603C34.7428 35.9156 34.8046 35.2714 34.9428 34.6414C35.1725 33.7228 35.6096 33.258 36.246 33.258C36.697 33.258 37.0609 33.5347 37.3237 34.0881C37.5866 34.6414 37.7236 35.4715 37.7236 36.5603C37.7346 37.2075 37.6734 37.8539 37.541 38.4875C37.3016 39.395 36.8727 39.8544 36.246 39.8544ZM36.246 32.919C35.8294 32.9119 35.4171 33.0039 35.0431 33.1874C34.6691 33.3709 34.344 33.6408 34.0947 33.9746C33.5413 34.6594 33.2646 35.5407 33.2646 36.6115C33.2646 37.5864 33.5275 38.4165 34.0532 39.1018C34.3007 39.433 34.6203 39.7035 34.9879 39.8928C35.3555 40.082 35.7613 40.1851 36.1747 40.1942C36.588 40.2033 36.998 40.1181 37.3735 39.9451C37.749 39.7721 38.0802 39.5159 38.342 39.1958C38.9157 38.517 39.203 37.6408 39.2039 36.5672C39.2039 35.484 38.9161 34.611 38.342 33.9262C38.0914 33.6097 37.7714 33.3549 37.4069 33.1815C37.0423 33.0081 36.6428 32.9207 36.2391 32.9259" fill="#0075C9"/>
<path d="M41.6865 39.7229C42.002 39.7229 42.2109 39.651 42.3077 39.514C42.4131 39.3293 42.4612 39.1174 42.446 38.9053V34.0521C42.446 33.7754 42.3962 33.5941 42.2897 33.507C42.1227 33.3952 41.9262 33.3355 41.7253 33.3354V33.0753H43.8281L45.4745 37.8054H45.5533L47.1886 33.0753H49.2942V33.3299C49.0884 33.3274 48.8876 33.3942 48.7242 33.5194C48.6163 33.6218 48.5707 33.8681 48.5707 34.2637V38.7849C48.5707 39.1598 48.6163 39.4047 48.7242 39.5279C48.8321 39.651 49.0092 39.7063 49.2942 39.7174V39.9775H46.5273V39.7174C46.7245 39.7217 46.919 39.6709 47.089 39.5707C47.2149 39.4725 47.2757 39.2719 47.2757 38.9731V33.9774H47.2149L45.1632 39.983H44.928L42.8459 34.0714L42.8085 34.0853V38.7213C42.8085 39.0616 42.8583 39.3106 42.9648 39.4642C43.0714 39.6178 43.2927 39.7105 43.6483 39.7229V39.983H41.6865V39.7229Z" fill="#0075C9"/>
<path d="M49.6084 39.983V39.7229C49.7864 39.7297 49.9631 39.6892 50.1203 39.6053C50.2752 39.4933 50.3499 39.2982 50.3499 39.0021V34.0535C50.3499 33.7574 50.2752 33.5596 50.112 33.453C49.956 33.374 49.7833 33.3337 49.6084 33.3354V33.0753H54.4575V35.1367H54.2403C54.1282 34.4727 53.9539 34.0299 53.6979 33.7851C53.442 33.5402 52.9758 33.4198 52.2965 33.4198C52.0447 33.4198 51.8814 33.4503 51.8067 33.5167C51.732 33.5831 51.7044 33.7104 51.7044 33.9054V36.2822C52.1844 36.2822 52.5137 36.1868 52.6866 35.9737C52.8596 35.7607 52.9896 35.3608 53.0768 34.7936H53.2884V38.1942H53.0768C53.02 37.6173 52.8886 37.2092 52.7074 36.9726C52.5261 36.736 52.1844 36.617 51.7044 36.617V39.0921C51.7044 39.3093 51.7472 39.4573 51.8427 39.5334C51.9382 39.6095 52.1194 39.6496 52.4113 39.6496C52.879 39.6696 53.3404 39.5365 53.7256 39.2705C54.0659 39.016 54.3675 38.5433 54.6304 37.8525H54.8656L54.5308 39.9802L49.6084 39.983Z" fill="#0075C9"/>
<path d="M57.242 39.0492V34.0147C57.2305 33.87 57.2528 33.7246 57.307 33.59C57.3734 33.4724 57.5131 33.4198 57.7289 33.4198C58.3861 33.4198 58.8634 33.8349 59.1442 34.6649C59.3289 35.2703 59.4148 35.9014 59.3988 36.534C59.3988 37.7473 59.2355 38.5732 58.9201 38.998C58.7837 39.197 58.6004 39.3594 58.3864 39.4709C58.1724 39.5824 57.9342 39.6394 57.693 39.6371C57.5131 39.6371 57.3941 39.5956 57.3374 39.4919C57.2708 39.3535 57.2381 39.2013 57.242 39.0478M55.1875 39.9816H57.8341C58.797 39.9816 59.5579 39.6173 60.1168 38.8887C60.6244 38.2158 60.8878 37.3903 60.8639 36.5478C60.8639 35.5167 60.6149 34.6963 60.1168 34.0867C59.5828 33.4115 58.7887 33.0767 57.7511 33.0767H55.1875V33.334C55.3517 33.3409 55.5126 33.3829 55.6593 33.4572C55.8156 33.5596 55.8917 33.7491 55.8917 34.0189V39.0478C55.8917 39.3162 55.8101 39.5057 55.6427 39.6122C55.5019 39.6845 55.3458 39.722 55.1875 39.7215V39.9816Z" fill="#0075C9"/>
<path d="M61.2578 39.7229C61.433 39.7317 61.6075 39.6965 61.7655 39.6205C61.9399 39.5112 62.0243 39.3106 62.0243 39.0035V34.0521C62.0243 33.7505 61.9426 33.5526 61.7808 33.4489C61.6185 33.3685 61.4388 33.3295 61.2578 33.3354V33.0753H64.188V33.3299C64.0015 33.3261 63.8165 33.3629 63.6457 33.4378C63.4797 33.5374 63.398 33.7449 63.398 34.0465V38.998C63.398 39.283 63.4658 39.4794 63.6028 39.5735C63.7777 39.6818 63.9831 39.7304 64.188 39.7119V39.9719H61.2578V39.7229Z" fill="#0075C9"/>
<path d="M68.6914 33.1999C68.8845 33.296 69.0859 33.3742 69.2932 33.4337C69.3459 33.4349 69.3978 33.4212 69.4429 33.394C69.488 33.3668 69.5244 33.3273 69.5478 33.2801C69.6108 33.1862 69.6537 33.0802 69.6737 32.9688H69.9089V35.347H69.6931C69.5345 34.9162 69.3255 34.5057 69.0705 34.124C68.6762 33.5831 68.228 33.3036 67.7258 33.3036C67.1724 33.3036 66.7712 33.5969 66.5304 34.1946C66.2897 34.7922 66.1777 35.5711 66.1777 36.5686C66.1634 37.1745 66.2313 37.7795 66.3796 38.3671C66.637 39.2511 67.124 39.6939 67.8254 39.6939C68.2663 39.6923 68.6927 39.5361 69.0304 39.2525C69.311 39.0131 69.5635 38.7425 69.783 38.446L70.0348 38.6922C69.7911 39.053 69.4993 39.3789 69.1673 39.6607C68.7563 40.0057 68.2361 40.1935 67.6995 40.1905C67.3085 40.1988 66.9203 40.1238 66.5605 39.9704C66.2008 39.817 65.8779 39.5888 65.6132 39.301C64.992 38.6383 64.6904 37.7529 64.6904 36.6309C64.6904 35.5089 64.9782 34.6248 65.5745 33.9359C65.9418 33.4888 66.4459 33.175 67.0092 33.0427C67.5724 32.9105 68.1636 32.9671 68.6914 33.204" fill="#0075C9"/>
<path d="M73.6805 39.8543C73.0455 39.8543 72.6152 39.395 72.3773 38.4875C72.2401 37.8546 72.1774 37.2078 72.1905 36.5603C72.1751 35.9158 72.236 35.2717 72.3717 34.6414C72.6069 33.7228 73.0455 33.258 73.6805 33.258C74.1329 33.258 74.494 33.5347 74.7665 34.088C75.0391 34.6414 75.1567 35.4715 75.1567 36.5603C75.1722 37.2079 75.1095 37.8549 74.9699 38.4875C74.7347 39.395 74.2975 39.8543 73.6805 39.8543ZM73.6805 32.919C73.2631 32.912 72.8499 33.0037 72.4746 33.1867C72.0993 33.3697 71.7725 33.6387 71.5209 33.9718C70.98 34.6566 70.7061 35.5379 70.7061 36.6087C70.7061 37.5841 70.9592 38.4072 71.4905 39.099C71.7383 39.4297 72.058 39.6998 72.4256 39.8888C72.7931 40.0777 73.1988 40.1806 73.612 40.1897C74.0251 40.1988 74.435 40.1137 74.8104 39.9411C75.1859 39.7684 75.5172 39.5126 75.7792 39.193C76.3589 38.5138 76.6439 37.6366 76.6439 36.5645C76.6439 35.4923 76.3589 34.6082 75.7792 33.9234C75.5285 33.607 75.2086 33.3523 74.8441 33.1789C74.4795 33.0055 74.08 32.918 73.6764 32.9232" fill="#0075C9"/>
<path d="M43.7798 20.1108C45.6654 21.0931 47.9413 22.3811 48.6482 23.2306C48.6482 23.2306 49.6747 24.2405 49.7342 25.6765C49.7674 26.645 49.4575 27.1983 49.055 27.944H45.6253C45.6253 27.944 46.8483 26.4554 44.4909 25.1453C44.4909 25.1453 36.7891 21.0931 33.2986 19.3029C33.2986 19.3029 28.2337 17.0893 28.6958 13.0468C28.6958 13.0468 28.9642 7.83669 36.6646 7.22658C36.6646 7.22658 38.1767 7.03705 38.1767 8.97944C38.1767 8.97944 37.972 12.0507 35.7487 12.1614C35.7487 12.1614 33.5352 12.1614 33.466 13.5449C33.466 13.5449 33.3069 14.7319 35.4278 15.8262C35.4278 15.8262 35.5495 15.8968 35.7681 16.0047L43.7798 20.1108Z" fill="#0075C9"/>
<path d="M39.6514 23.5778L41.2313 24.3954L41.086 27.4654C41.086 27.4654 41.0971 27.9441 40.6862 27.9441H40.2449C40.1848 27.9428 40.1257 27.9292 40.0712 27.904C40.0167 27.8787 39.968 27.8425 39.9283 27.7975C39.8885 27.7525 39.8585 27.6998 39.8401 27.6426C39.8217 27.5855 39.8154 27.5251 39.8215 27.4654L39.6514 23.5778Z" fill="#0075C9"/>
<path d="M41.2848 17.9125L39.572 17.0672L38.8955 7.07996H42.0014L41.2848 17.9125Z" fill="#0075C9"/>
<path d="M31.3684 28.7866C31.3684 28.7866 32.0601 30.1037 33.2762 30.5104H4.08496V28.8032L31.3684 28.7866Z" fill="#0075C9"/>
<path d="M43.0874 4.71418C43.0874 5.56778 41.9239 6.2609 40.4699 6.2609C39.0159 6.2609 37.8164 5.56916 37.8164 4.71418C37.8164 3.85919 38.9979 3.16608 40.4588 3.16608C41.9198 3.16608 43.0874 3.85643 43.0874 4.71418Z" fill="#0075C9"/>
<path d="M35.8934 30.5076H76.5439V28.7769H37.2769C35.8934 28.7769 35.4286 27.8196 35.4286 27.8196C35.4286 27.8196 34.4726 26.3213 36.3873 25.1453C36.3873 25.1453 37.5384 24.3775 39.3327 23.4353L35.1574 21.2439C33.9884 21.8457 31.5604 23.6719 31.5604 25.8578C31.5604 25.8578 31.3902 30.5076 35.8865 30.5076" fill="#0075C9"/>
<path d="M41.6367 18.0647C42.5567 17.5113 45.444 15.8193 45.444 15.8193C47.5704 14.725 47.4003 13.5338 47.4003 13.5338C47.3366 12.1504 45.1244 12.1504 45.1244 12.1504C42.904 12.0466 42.7048 8.97806 42.7048 8.97806C42.7048 7.03429 44.2044 7.22659 44.2044 7.22659C51.9131 7.83255 52.1746 13.0468 52.1746 13.0468C52.6491 17.0907 47.5704 19.3001 47.5704 19.3001C47.035 19.5768 46.3253 19.8729 45.6225 20.2243L41.6367 18.0647Z" fill="#0075C9"/>
<path d="M76.5263 41.1534H4.11133V42.8814H76.5263V41.1534Z" fill="#0075C9"/>
<path d="M76.5263 64.6793H4.11133V68.1615H76.5263V64.6793Z" fill="#0075C9"/>
<path d="M79.6972 65.4983C79.8588 65.4866 80.0204 65.5207 80.1635 65.5966C80.214 65.6301 80.2547 65.6765 80.2814 65.731C80.3081 65.7854 80.3199 65.846 80.3157 65.9065C80.3208 65.9636 80.3107 66.0211 80.2864 66.0731C80.2621 66.1251 80.2245 66.1698 80.1773 66.2025C80.0417 66.2798 79.8862 66.3154 79.7304 66.3049H79.3694V65.4983H79.6972ZM78.816 67.7022H79.3694V66.63H79.7678L80.27 67.7022H80.8801L80.3032 66.547C80.4649 66.518 80.6115 66.4339 80.7182 66.309C80.8229 66.1763 80.8759 66.0102 80.8677 65.8414C80.8711 65.7387 80.8473 65.6368 80.7987 65.5462C80.7501 65.4556 80.6784 65.3794 80.591 65.3254C80.3454 65.1968 80.0695 65.1371 79.7927 65.1525H78.8118L78.816 67.7022ZM80.4941 64.6862C80.7348 64.7875 80.954 64.9335 81.1402 65.1165C81.3151 65.2984 81.4528 65.5127 81.5456 65.7474C81.6391 65.9886 81.6861 66.2454 81.6839 66.5041C81.6851 66.7529 81.6347 66.9993 81.5359 67.2277C81.4395 67.4578 81.2984 67.6666 81.1208 67.8419C80.7448 68.2089 80.2392 68.4127 79.7138 68.4091C79.4684 68.4078 79.2257 68.3575 79 68.2611C78.7657 68.1581 78.5535 68.0111 78.3747 67.8281C78.1942 67.652 78.0528 67.4399 77.9596 67.2055C77.8636 66.9754 77.8138 66.7286 77.813 66.4792C77.8112 66.2208 77.8635 65.9649 77.9665 65.728C78.0683 65.4921 78.2143 65.2779 78.3968 65.0971C78.5718 64.9205 78.7795 64.7795 79.0083 64.6821C79.4884 64.5007 80.0188 64.5036 80.4969 64.6904M78.8865 64.3694C78.6137 64.4781 78.3661 64.6415 78.1588 64.8495C77.942 65.0645 77.769 65.3196 77.6497 65.6007C77.5364 65.8792 77.4786 66.1772 77.4795 66.4778C77.4774 66.771 77.5353 67.0615 77.6497 67.3314C77.7549 67.6096 77.9224 67.86 78.1395 68.0633C78.3512 68.2764 78.6002 68.449 78.8741 68.5724C79.1498 68.6875 79.4455 68.7467 79.7443 68.7467C80.043 68.7467 80.3388 68.6875 80.6145 68.5724C80.8912 68.4547 81.1443 68.2878 81.3616 68.0799C81.575 67.8735 81.7428 67.6246 81.8541 67.3494C81.9691 67.0724 82.0269 66.775 82.0242 66.4751C82.0271 66.1764 81.9707 65.8801 81.8582 65.6035C81.7461 65.3327 81.5815 65.0868 81.374 64.8799C81.1656 64.6608 80.9121 64.4894 80.6311 64.3777C80.3522 64.2605 80.0524 64.2012 79.7498 64.2034C79.4544 64.2041 79.1618 64.2614 78.8879 64.3722" fill="#0075C9"/>
</g>
</svg>
