<svg width="174" height="54" viewBox="0 0 174 54" fill="none" xmlns="http://www.w3.org/2000/svg">
<g clip-path="url(#clip0_1169_413284)">
<path d="M26.0535 8.37801e-05C25.479 0.00342878 24.9044 0.0768343 24.3295 0.202105C23.5495 0.372197 22.8045 0.648991 22.2317 1.2152C20.9187 2.51362 20.5085 4.10454 20.8354 5.89459C20.9719 6.64315 21.2178 7.36848 21.3157 8.12879C21.3915 8.71722 21.3473 8.8348 20.8194 9.07155C19.8224 9.51849 18.9064 10.0973 18.1403 10.8763C17.3247 11.7053 16.7509 12.6838 16.4963 13.8312C16.1531 15.2175 16.0711 16.6317 16.0495 18.0517C15.9251 18.066 15.8685 17.9671 15.8014 17.8956C15.5716 17.6497 15.3456 17.4004 15.1215 17.1494C14.1712 16.0846 13.2203 15.0203 12.2728 13.953C11.5423 13.1301 10.7968 12.3185 10.12 11.4499C9.56827 10.7417 8.92418 10.1609 8.02227 9.94946C6.98921 9.70735 6.01668 9.78126 5.27614 10.6478C5.08147 10.8754 4.95206 10.8843 4.69129 10.7845C3.32882 10.2637 1.9637 11.0439 1.86662 12.4346C1.77671 13.7225 1.66576 15.0078 1.54793 16.2929C1.45136 17.3456 1.3845 18.4009 1.29177 19.4539C1.16498 20.8923 1.06618 22.332 0.979089 23.7731C0.949631 24.2617 0.951096 24.7509 0.918053 25.2382C0.830705 26.522 0.785258 27.8017 1.17871 29.0511C1.42615 29.8365 1.67721 30.6213 2.03121 31.3681H2.03173C2.11702 31.7683 2.31694 32.1262 2.46448 32.5029C3.27418 34.5696 4.16379 36.6027 5.07954 38.6239C5.43175 39.4013 5.72233 40.2125 6.21721 40.9209C6.35348 41.184 6.52274 41.4225 6.72151 41.6442C7.71282 42.7503 9.00072 43.4147 10.3091 44.0475C11.7636 44.7506 13.2674 45.3415 14.7423 45.9979C16.0397 46.5751 17.3337 47.1597 18.6291 47.7408C20.0282 48.4702 21.4493 49.1552 22.8366 49.9081C25.101 51.1366 27.3293 52.422 29.43 53.9166C29.5873 54.0287 29.7071 54.0264 29.8683 53.9182C31.346 52.9262 32.8347 51.9528 34.3754 51.0584C35.4344 50.4437 36.5048 49.8502 37.5873 49.2787C38.2332 48.9375 38.8836 48.6041 39.532 48.2676L39.5325 48.2681C39.5628 48.265 39.597 48.2706 39.6226 48.2581C41.6147 47.2817 43.6099 46.3124 45.6417 45.4203C46.2884 45.1366 46.91 44.7926 47.5878 44.5803V44.5798C48.783 44.054 50.0259 43.6383 51.1945 43.0519C52.5308 42.3815 53.3973 41.3171 53.8 39.8795C53.8015 39.7142 53.8185 39.5552 53.9696 39.449C53.9755 39.4104 53.9815 39.3718 53.9871 39.3333C54.0248 39.251 54.0669 39.1709 54.0992 39.0869C54.7329 37.435 55.4129 35.8029 56.1824 34.2084C56.6991 33.1378 57.2977 32.1071 57.7424 31.0021C57.7424 30.8825 57.7227 30.7555 57.8584 30.6853C57.8779 30.6444 57.8967 30.6032 57.916 30.5621H57.9165C58.4157 29.3288 58.6453 28.03 58.6304 26.7167C58.6153 25.3831 58.6097 24.0472 58.5534 22.7122C58.4873 21.1541 58.4699 19.5933 58.4223 18.0338C58.3772 16.5651 58.3769 15.0956 58.3477 13.6263C58.3383 13.1403 58.2076 12.6801 57.9555 12.261C57.4383 11.4014 56.5089 11.05 55.6136 11.4081C55.2355 11.559 54.9577 11.4809 54.6611 11.2345C53.8537 10.5638 52.9166 10.3698 51.8984 10.572C51.0103 10.7485 50.3201 11.2797 49.6946 11.8919C47.8967 13.6516 46.1104 15.423 44.3194 17.1898C44.2684 17.2402 44.2222 17.299 44.1628 17.336C44.088 17.3822 44.0904 17.3056 44.0753 17.2632C44.22 16.6584 44.3065 16.0475 44.2689 15.4235C44.3032 14.4175 44.0821 13.4594 43.6835 12.5444C43.1492 11.3172 42.2916 10.3449 41.2186 9.55596C41.079 9.4533 40.9687 9.34464 40.9549 9.16689C40.9006 8.47502 40.6728 7.83426 40.3701 7.21851C39.4469 5.34086 38.0202 3.92683 36.2596 2.83043C35.9031 2.60849 35.5049 2.49119 35.0689 2.48225C34.1209 2.4631 33.279 2.75346 32.5149 3.29183C31.6642 3.89124 31.0983 4.68564 31.0005 5.73403C30.8906 6.91063 31.0967 8.0518 31.5688 9.13646C31.982 10.085 32.6819 10.7592 33.6266 11.1826C33.8717 11.2924 34.0918 11.2723 34.2339 11.0195C34.4096 10.7071 34.3153 10.3399 34.0218 10.1256C33.8988 10.036 33.7728 9.95613 33.6811 9.82333C33.0912 8.97031 32.9229 8.00646 32.9762 7.00302C33.0038 6.47844 33.3806 6.08033 33.7791 6.0433C34.2441 5.99988 34.673 6.11253 35.0544 6.38399C35.5437 6.73261 35.9299 7.18074 36.2606 7.67493C37.1151 8.95138 37.7526 10.3472 38.4629 11.7024C38.8425 12.4267 39.3631 12.977 40.0949 13.3415C40.4922 13.5394 40.8281 13.814 41.0945 14.18C41.396 14.5945 41.5246 15.0758 41.6893 15.5452C41.7495 15.9677 41.8422 16.3883 41.8634 16.8127C41.9475 18.4858 41.8167 20.1537 41.6758 21.8189C41.5752 23.0044 41.4122 24.1851 41.3241 25.3714C41.2742 26.0446 41.1201 26.6005 40.3996 26.826C38.9969 27.6047 37.5757 28.3476 36.1441 29.0716C35.3426 29.4772 34.5498 29.9002 33.7531 30.3152C33.2203 30.5399 32.7061 30.7987 32.2202 31.1128H32.2197C32.1728 31.133 32.1273 31.1586 32.0786 31.1711C31.9098 31.2146 31.7433 31.374 31.5658 31.221C31.3978 31.076 31.42 30.8825 31.4627 30.6843C31.5165 30.4366 31.5428 30.1831 31.5973 29.9356C31.7436 29.2739 32.2077 28.8825 32.8816 28.7783C33.3099 28.7122 33.7351 28.7401 34.1618 28.7324C34.3506 28.7291 34.4461 28.6701 34.4425 28.4676C34.4312 27.7963 34.4276 27.1249 34.4215 26.4533H34.422C34.4228 25.6573 34.4478 24.8603 34.415 24.0655C34.3968 23.6211 34.3888 23.171 34.2905 22.7297C34.1035 21.8905 33.6259 21.2277 33.0362 20.6322C32.8997 20.4943 32.8578 20.4171 33.0627 20.2945C34.0451 19.7066 34.8233 18.8826 35.6112 18.0707L35.6107 18.0702C36.2079 17.4832 36.7651 16.8607 37.2197 16.1563C37.5639 15.6225 37.5201 15.0178 37.1456 14.6005C36.704 14.1086 36.0836 13.905 35.4691 14.2199C34.9345 14.4936 34.3743 14.719 33.7936 14.8873C33.3643 15.0117 33.3675 15.0167 33.2753 14.602C33.2423 14.4536 33.2012 14.3071 33.1603 14.1605C32.8734 13.1336 32.4461 12.1508 32.2102 11.1063C32.1257 10.7308 31.8859 10.4268 31.5158 10.2578C30.8503 9.95385 30.1494 9.89974 29.428 9.93703C29.0297 9.95746 28.622 10.1103 28.2293 9.90012C28.1653 9.80792 28.1023 9.71545 28.0372 9.62427C27.9399 9.48789 27.9774 9.37769 28.0972 9.27859C28.3017 9.10952 28.5163 8.95121 28.7051 8.76631C29.0737 8.40518 29.5246 8.10226 29.6517 7.55419C29.7206 7.25665 29.7518 6.95303 29.7582 6.64784C29.7669 6.22925 29.7426 5.80784 29.7812 5.39232C29.8673 4.46856 29.9399 3.54952 29.8308 2.6204C29.694 1.45555 28.9072 0.521767 27.7771 0.218104C27.2023 0.0635901 26.628 -0.00326722 26.0535 8.37801e-05ZM25.9324 3.24588C26.7533 3.22279 27.6454 3.54719 28.0006 4.50788C28.3052 5.33204 28.2953 6.14675 27.9006 6.9446C27.5143 7.72559 26.9673 8.38102 26.3141 8.95233C26.214 9.03968 26.0987 9.11465 26.0895 9.26509C26.0773 9.46321 26.402 9.90722 26.6288 10.0253C26.628 10.0268 26.6271 10.0278 26.6263 10.0293C26.6099 10.2813 26.4899 10.4875 26.3552 10.6972C25.9576 11.3175 25.7138 11.9878 25.6813 12.7358C25.6374 13.7401 26.007 14.5969 26.6028 15.3656C26.8067 15.6287 26.8279 15.8357 26.6593 16.1048C26.3714 16.5646 26.1467 17.0579 25.9354 17.5564C25.8756 17.6975 25.7667 17.8347 25.8313 18.0058C25.7339 18.0507 25.693 18.1419 25.6577 18.2328C25.1395 19.5746 25.0109 20.9461 25.3951 22.3415C25.5283 22.8247 25.7503 23.2737 26.1125 23.642C26.863 24.4051 27.6124 24.4568 28.4539 23.7951C28.979 23.3821 28.9787 23.3819 29.5245 23.7193C30.0455 24.0416 30.4459 23.9066 30.6572 23.3327C30.7453 23.0934 30.8166 22.8475 30.9544 22.6294C31.1806 22.2716 31.4758 22.1881 31.8449 22.3924C32.2445 22.6136 32.5668 22.9222 32.8345 23.2918C32.99 23.5066 33.0438 23.7432 32.9726 23.9881C32.6898 24.9614 32.8584 25.9558 32.821 26.9401C32.8178 27.0245 32.7973 27.144 32.912 27.1825C32.9112 27.1862 32.9109 27.1899 32.91 27.1935C32.3901 27.2602 31.8674 27.2236 31.3456 27.2299C30.7247 27.2374 30.4906 27.4073 30.2765 27.9921C30.1195 28.4212 30.1072 28.8724 30.0513 29.3165C30.0193 29.5698 29.9363 29.7949 29.7547 29.9724C29.4855 30.2357 29.2245 30.1776 29.0903 29.8288C29.0239 29.6569 28.9885 29.476 28.9862 29.2901C28.9826 29.0145 28.9631 28.7391 28.9572 28.4645C28.94 27.6621 29.1825 26.9836 29.9233 26.5451C30.2855 26.3305 30.6459 26.1221 31.0444 25.9814C31.5263 25.8111 31.818 25.4687 31.9425 24.9753C32.0063 24.7235 31.9973 24.4695 31.9965 24.2146C31.9952 23.8374 31.911 23.6766 31.7078 23.6474C31.5188 23.6204 31.3263 23.7866 31.211 24.0764C31.2034 24.0956 31.1926 24.1144 31.1905 24.1343C31.1347 24.6556 30.7682 24.8649 30.324 25.0082C29.7879 25.1811 29.2415 25.3168 28.7035 25.4831C27.8693 25.7413 27.3937 26.3073 27.2172 27.1531C27.0717 27.8506 27.081 28.5533 27.1076 29.2571C27.1453 30.2455 27.5759 30.9807 28.4914 31.4335C29.1236 31.7463 29.7438 32.0841 30.388 32.3737C30.4771 32.4136 30.5668 32.4707 30.6692 32.4111C30.6712 32.5276 30.6146 32.61 30.5231 32.683C30.3871 32.7913 30.2499 32.8984 30.1149 33.0082C29.7296 33.3216 29.728 33.3197 29.4045 32.9573C29.3502 32.8961 29.2925 32.8382 29.2334 32.7818C28.3297 31.9201 27.385 31.1078 26.3506 30.4034C26.2707 30.349 26.1944 30.2751 26.084 30.3146C26.0987 30.2157 26.0074 30.166 25.9384 30.1166C25.6669 29.9225 25.3741 29.7616 25.0849 29.5958C25.0044 29.5498 24.9188 29.5368 24.8347 29.5759C24.8008 29.5574 24.7669 29.5389 24.7332 29.5205C24.737 29.3923 24.6062 29.3511 24.5116 29.301C23.9168 28.9864 23.3047 28.7111 22.6805 28.4585C21.8308 28.115 20.9606 27.8192 20.1435 27.3981C19.965 27.306 19.8069 27.1704 19.6001 27.1377C19.5487 27.0198 19.4289 26.9665 19.332 26.8918C18.8222 26.4974 18.5071 26.0044 18.47 25.3409C18.4508 24.9956 18.4316 24.6489 18.4029 24.3039C18.3125 23.2172 18.2629 22.1289 18.2383 21.0396C18.2102 19.7754 18.2704 18.5116 18.4299 17.2566C18.5547 16.2746 18.7202 15.2979 19.1439 14.3869C19.204 14.2576 19.2894 14.1292 19.2669 13.9739C19.3837 13.969 19.4362 13.8608 19.4921 13.7699C20.0384 12.8822 20.785 12.1944 21.6444 11.6185C22.027 11.3621 22.4214 11.1246 22.8135 10.8833C23.5141 10.4521 23.7677 9.81048 23.6776 9.02616C23.5951 8.3057 23.4731 7.589 23.1983 6.91118C23.0991 6.66677 23.1566 6.52309 23.3864 6.38543C24.4704 5.73622 25.1868 4.82585 25.3431 3.53969C25.3623 3.3839 25.4304 3.2993 25.5867 3.27631C25.6993 3.25969 25.8151 3.24918 25.9324 3.24588ZM30.6092 12.5498C30.8294 12.5227 31.2465 12.712 31.2996 12.895C31.3762 13.1598 31.4163 13.4353 31.4967 13.6976C31.5999 14.0334 31.5595 14.2733 31.2806 14.5361C30.9379 14.8589 30.7324 15.2983 30.9064 15.7881C31.077 16.2693 31.4933 16.4237 31.968 16.4924C32.8479 16.6199 33.7023 16.5212 34.545 16.261C34.6255 16.236 34.7063 16.1663 34.8172 16.2365C34.6681 16.6092 34.4605 16.9437 34.2143 17.2581C34.143 17.349 34.0288 17.4297 34.0567 17.5674C33.9183 17.5353 33.8439 17.645 33.7596 17.7205C33.3751 18.0656 32.9236 18.2224 32.4103 18.2178C32.2158 18.2161 32.0211 18.2137 31.8264 18.2199C30.9998 18.2469 30.4779 18.7812 30.4746 19.6041C30.4723 20.2474 30.4738 20.8907 30.4741 21.534C30.4743 21.7273 30.4371 21.8907 30.1989 21.8892C29.4015 21.8838 28.6023 21.9489 27.8095 21.7939C27.4376 21.7211 27.1764 21.5248 27.0055 21.1953C26.5324 20.2841 26.5872 19.3899 27.0821 18.5047C27.1544 18.3751 27.2759 18.2572 27.2482 18.0887C27.3611 18.0668 27.4134 17.9751 27.4693 17.8917C27.9414 17.1865 28.3836 16.4627 28.7781 15.7118C28.9856 15.3172 29.1176 14.8913 29.0177 14.4423C28.9642 14.2013 29.0597 14.1424 29.2624 14.0962C29.9704 13.9345 30.3872 13.5036 30.4556 12.7663C30.462 12.6966 30.4556 12.62 30.5286 12.5753C30.5504 12.5619 30.5777 12.5537 30.6092 12.5498ZM8.70568 15.2205C9.05477 15.2259 9.3541 15.4008 9.45112 15.837C9.90349 17.8694 10.3261 19.9077 10.7544 21.9455C10.781 22.0724 10.7579 22.21 10.7579 22.3425C10.7612 22.3428 10.7641 22.3431 10.7669 22.3431C10.7669 22.4348 10.7705 22.5267 10.7664 22.6184C10.7472 23.0263 10.5341 23.3312 10.2326 23.3871C9.76918 23.4729 9.35376 23.2768 9.19495 22.8753C9.04458 22.4953 8.98624 22.0911 8.92579 21.6891C8.78977 20.7855 8.66163 19.8806 8.52305 18.9776C8.35834 17.9041 8.18342 16.8324 8.02025 15.7587C7.98259 15.5105 8.12541 15.3263 8.34544 15.2679C8.46718 15.2356 8.58931 15.2186 8.70568 15.2205ZM50.9318 15.3008C51.0048 15.2987 51.0809 15.3153 51.1619 15.3586C51.3771 15.4738 51.3322 15.6861 51.3865 15.8654C51.2677 16.627 51.1567 17.3902 51.0278 18.15C50.8091 19.44 50.5861 20.7294 50.3484 22.0163C50.2793 22.3897 50.2548 22.7946 49.9177 23.0648C49.6979 23.2411 49.4732 23.4136 49.1737 23.2599C48.9621 23.1513 48.8504 22.7988 48.9076 22.4982C49.2895 20.4844 49.6682 18.4703 50.0542 16.4575C50.1293 16.0663 50.2174 15.6705 50.5881 15.431C50.6977 15.3601 50.81 15.3043 50.9318 15.3008ZM54.678 15.397C54.957 15.4052 55.1959 15.6099 55.2788 15.9742C55.3285 16.1925 55.3672 16.4163 55.3659 16.6411C55.359 17.7735 55.4685 18.9028 55.4329 20.036C55.3871 21.505 55.4914 22.9728 55.4945 24.4416C55.4947 24.5542 55.5222 24.6657 55.525 24.7768C55.548 25.6408 55.6461 26.5036 55.525 27.3691C55.3949 28.2995 55.0877 29.1708 54.6845 30.0138C54.6207 30.1473 54.5239 30.279 54.5824 30.4398C54.4702 30.4326 54.4506 30.5329 54.4158 30.6059C54.0805 31.3057 53.7622 32.0127 53.4433 32.7199C52.7714 34.2086 52.1126 35.7032 51.361 37.1549C50.9893 37.8733 50.503 38.4938 49.8396 38.9681C49.7766 39.0134 49.6999 39.0534 49.679 39.1312C49.3164 39.2427 49.0188 39.4809 48.6859 39.6495C45.7878 41.1182 42.828 42.456 39.8602 43.7767C39.5805 43.901 39.2972 44.02 39.0257 44.1612C38.9435 44.204 38.8202 44.2523 38.8556 44.3513C38.8554 44.3511 38.8548 44.3511 38.8546 44.3508C38.7226 44.2683 38.6209 44.3661 38.5134 44.4121C37.7226 44.748 36.9677 45.157 36.198 45.536C34.7584 46.2447 33.3579 47.0232 32.0095 47.8934C31.9268 47.9467 31.817 47.9809 31.7889 48.0854C31.6681 48.1089 31.5632 48.1744 31.4582 48.242C30.9938 48.5414 30.5383 48.8546 30.0939 49.1818C29.8587 49.3552 29.6788 49.3651 29.438 49.1868C28.6406 48.5961 27.8008 48.0659 26.9545 47.5477C26.8372 47.4759 26.7267 47.3646 26.5648 47.419C26.5635 47.4197 26.562 47.4197 26.5608 47.4205C26.6229 47.2626 26.4245 47.2326 26.3386 47.1801C25.3537 46.5761 24.3401 46.0213 23.3093 45.5006C21.6853 44.6797 20.0165 43.9543 18.3584 43.205C16.5889 42.4056 14.8131 41.619 13.0718 40.7588C12.9789 40.7129 12.8834 40.676 12.7816 40.671C12.7427 40.559 12.6172 40.5378 12.5249 40.4915C11.7767 40.1145 11.0263 39.7411 10.2886 39.3432C9.65103 38.9994 9.08039 38.588 8.66363 37.9789C8.29913 37.4459 7.99377 36.8801 7.71457 36.3029C6.95943 34.7427 6.26813 33.1526 5.54578 31.5771C5.49378 31.4637 5.46761 31.316 5.30214 31.2953C5.29845 31.2955 5.29526 31.2943 5.29163 31.2943C5.38125 31.1751 5.30044 31.059 5.25561 30.9546C5.06554 30.514 4.85105 30.0844 4.65125 29.6477C4.26036 28.7929 4.00809 27.9125 4.01987 26.9576C4.03549 25.6781 4.30642 24.4248 4.36507 23.1491C4.4058 22.2637 4.48408 21.3779 4.50816 20.4924C4.53839 19.3804 4.63646 18.2721 4.64824 17.1598C4.65029 16.9673 4.68728 16.7729 4.72929 16.5842C4.80383 16.2502 4.92754 15.9387 5.22058 15.7257C5.53667 15.4959 5.84108 15.5315 6.08109 15.8395C6.28704 16.1036 6.39655 16.4104 6.43831 16.7408C6.56869 17.7736 6.67881 18.8089 6.81303 19.8415C7.14577 22.4031 7.44008 24.9696 7.91268 27.5118C8.23979 29.2719 8.99287 30.7944 10.2716 32.0635C11.0782 32.8639 11.9866 33.5132 12.9797 34.0587C14.0289 34.6349 15.0485 35.2669 16.1761 35.6903C16.6031 35.8507 17.0381 35.9579 17.4974 35.9073C17.9333 35.8593 18.2452 35.6294 18.3989 35.2205C18.5572 34.7983 18.4757 34.4148 18.1443 34.0976C17.9439 33.9058 17.7189 33.745 17.4794 33.6053C16.5682 33.0746 15.6501 32.5569 14.7417 32.0216C13.8337 31.4865 12.9054 30.9801 12.0942 30.2981C11.6072 29.8885 11.2374 29.3905 11.0545 28.7743C10.9088 28.2839 10.8043 27.7841 10.7429 27.2758C10.6824 26.7745 10.9435 26.5391 11.4343 26.6458C11.8805 26.7429 12.2872 26.9427 12.6835 27.1521C14.3856 28.0526 16.1372 28.8523 17.8726 29.6841C18.4264 29.9497 18.9765 30.223 19.5331 30.4827C19.6349 30.5301 19.7476 30.6479 19.8683 30.5501C19.9306 30.6836 20.0671 30.7174 20.1825 30.775C21.6013 31.4825 23.0175 32.1932 24.4015 32.9683C25.5524 33.6129 26.5566 34.4027 27.2882 35.5178C28.4388 37.2715 29.1326 39.1966 29.503 41.2487C29.5811 41.681 29.6078 42.1195 29.6931 42.5501C29.7046 42.6083 29.714 42.6876 29.7852 42.6917C29.882 42.6971 29.8835 42.6035 29.8927 42.5381C29.9173 42.366 29.893 42.191 29.9158 42.0183C30.1642 40.1299 30.7001 38.3308 31.5702 36.6311C32.3092 35.1874 33.3309 34.0009 34.7471 33.1888C36.2461 32.3291 37.7668 31.5075 39.3293 30.7655C39.4182 30.7234 39.5315 30.7042 39.542 30.574C39.5419 30.5735 39.542 30.573 39.542 30.5725C39.5971 30.624 39.678 30.5964 39.7511 30.579C39.8912 30.5455 40.0173 30.474 40.1453 30.4099C41.2329 29.8659 42.3393 29.3604 43.4308 28.8246C44.4856 28.3069 45.565 27.8395 46.5927 27.2648C47.0822 26.9913 47.5919 26.7457 48.1531 26.6423C48.5614 26.5672 48.7341 26.7063 48.7389 27.1157C48.7469 27.7769 48.5998 28.4087 48.3652 29.0236C48.3268 29.1242 48.2467 29.2318 48.3362 29.3349C48.3322 29.335 48.3273 29.3347 48.3237 29.3349C47.9464 30.0219 47.357 30.5034 46.7222 30.9281C45.6185 31.6665 44.4422 32.2863 43.3062 32.9723C42.6784 33.351 41.9835 33.6245 41.4451 34.143C41.1198 34.4561 41.0319 34.826 41.191 35.195C41.3698 35.6103 41.6819 35.8265 42.1435 35.8375C42.4658 35.8454 42.7733 35.7942 43.0761 35.6923C44.1486 35.3307 45.1145 34.7515 46.0984 34.2098C46.9649 33.733 47.8171 33.2299 48.5568 32.5697C49.5419 31.69 50.3865 30.6974 50.9077 29.4651C50.9134 29.4674 50.9161 29.4727 50.9222 29.4746C51.0639 29.4347 51.0885 29.3033 51.1339 29.1942C51.2481 28.9205 51.3351 28.6376 51.404 28.3492C52.0093 25.8165 52.4459 23.2505 52.9044 20.6894C53.1237 19.4643 53.2897 18.2302 53.4592 16.9967C53.5325 16.4634 53.7265 15.967 54.1576 15.6025C54.3288 15.4578 54.5106 15.3921 54.678 15.397ZM47.4102 18.4827C47.4505 18.4814 47.4928 18.4875 47.5357 18.5022C47.6956 18.5571 47.7583 18.7089 47.7704 18.8683C47.7817 19.0205 47.7729 19.174 47.7729 19.3272C47.776 19.3272 47.7796 19.3277 47.783 19.3277C47.6977 20.5554 47.6194 21.7833 47.5218 23.01C47.4982 23.3068 47.377 23.5844 47.1511 23.7966C46.961 23.9751 46.7619 24.1342 46.4707 24.0101C46.191 23.8911 46.1172 23.6529 46.119 23.3881C46.1221 22.9294 46.2317 22.4826 46.3001 22.0313C46.4323 21.1584 46.5383 20.2805 46.7278 19.417C46.7903 19.132 46.9126 18.8773 47.0986 18.6553C47.1821 18.5555 47.2892 18.4863 47.4102 18.4827L47.4102 18.4827ZM11.9481 18.6189C12.1263 18.6117 12.3245 18.7082 12.4609 18.8678C12.7073 19.1559 12.6779 19.5189 12.7261 19.8535C12.89 20.9887 13.0536 22.1228 13.3264 23.2389C13.3477 23.3273 13.3477 23.4206 13.3579 23.5113C13.392 23.7595 13.2796 23.941 13.0678 24.036C12.8582 24.13 12.6772 24.0271 12.5114 23.8844C12.2525 23.6612 12.1701 23.3628 12.1222 23.0459C11.9311 21.7822 11.7465 20.5175 11.5444 19.2554C11.5024 18.9931 11.5346 18.79 11.78 18.6623C11.8319 18.6353 11.8887 18.6213 11.9481 18.6189ZM14.9824 21.1404C15.2517 21.1404 15.4026 21.3339 15.4912 21.5664C15.68 22.0616 15.7284 22.5924 15.8444 23.1062C15.9692 23.6589 16.0794 24.215 16.1826 24.7069C16.1828 25.0974 16.0624 25.2578 15.7904 25.294C15.4428 25.3405 15.1664 25.1877 15.0845 24.8626C14.9828 24.4601 14.9059 24.0508 14.8288 23.6425C14.7235 23.0852 14.6277 22.5265 14.5301 21.9679C14.5181 21.8982 14.5163 21.8257 14.5181 21.7549C14.5248 21.4515 14.7048 21.1636 14.9269 21.1429C14.9459 21.1411 14.9645 21.1404 14.9824 21.1404ZM44.4054 21.2317C44.4307 21.2315 44.4574 21.2335 44.4854 21.2392C44.7242 21.2872 44.6823 21.5025 44.6735 21.6657C44.6208 22.6622 44.5232 23.656 44.4789 24.6531C44.4728 24.7879 44.4154 24.9101 44.3408 25.0222C44.1346 25.3322 43.8148 25.3428 43.5799 25.0521C43.5105 24.966 43.4943 24.8408 43.3803 24.7887C43.3687 24.7929 43.3634 24.8003 43.3543 24.8057C43.3543 24.8019 43.3542 24.7981 43.3543 24.7942C43.4109 24.7429 43.4313 24.6732 43.4303 24.6027C43.4231 24.1563 43.5064 23.7215 43.5879 23.2858C43.6048 23.1964 43.6099 23.1045 43.5379 23.0299C43.5379 23.0206 43.5378 23.0113 43.5379 23.002C43.6484 23.0313 43.6578 22.9222 43.6785 22.8513C43.7609 22.5671 43.8134 22.2758 43.8721 21.9859C43.9043 21.8258 43.9364 21.6643 44.0217 21.522C44.1131 21.3696 44.2278 21.2333 44.4054 21.2317Z" fill="url(#paint0_linear_1169_413284)"/>
<path fill-rule="evenodd" clip-rule="evenodd" d="M160.676 25.0179C158.002 25.0179 155.328 25.0138 152.654 25.0243C152.381 25.0253 152.25 24.9663 152.219 24.6775C152.186 24.3751 152.114 24.0745 152.032 23.781C151.976 23.5826 152.009 23.5034 152.222 23.4444C152.881 23.2618 153.527 23.031 154.189 22.8596C154.462 22.7888 154.542 22.6611 154.555 22.4032C154.615 21.1801 154.684 19.957 154.691 18.7322C154.703 16.4852 154.72 14.238 154.705 11.991C154.696 10.6965 154.713 9.39855 154.509 8.11187C154.454 7.76965 154.292 7.53826 153.983 7.37889C153.415 7.08672 152.809 6.90488 152.202 6.72866C152.021 6.6763 151.979 6.61859 152.026 6.43623C152.114 6.10141 152.178 5.75995 152.236 5.41875C152.271 5.22209 152.36 5.17025 152.563 5.17076C155.35 5.17919 158.136 5.18838 160.923 5.1728C163.318 5.15926 165.713 5.13474 168.103 4.95393C168.266 4.94167 168.382 4.97998 168.462 5.12095C168.467 5.12989 168.474 5.1373 168.48 5.14547C169.094 5.9377 169.097 5.93796 168.87 7.24711C168.676 8.37237 168.47 9.49585 168.282 10.6224C168.253 10.7976 168.203 10.865 168.017 10.863C167.372 10.8558 166.728 10.8525 166.085 10.7787C165.905 10.758 165.829 10.7092 165.795 10.5133C165.632 9.5694 165.43 8.6316 165.275 7.68664C165.234 7.43533 165.122 7.37455 164.908 7.34952C163.552 7.19092 162.192 7.1498 160.83 7.19296C160.25 7.21135 159.664 7.15797 159.097 7.3559C158.926 7.41567 158.86 7.47951 158.846 7.66442C158.689 9.78393 158.67 11.9065 158.674 14.0301C158.674 14.2722 158.818 14.227 158.955 14.2209C160.866 14.1351 162.777 14.047 164.689 13.9617C165.042 13.9458 165.447 14.414 165.386 14.7616C165.301 15.2534 165.205 15.7441 165.128 16.2372C165.093 16.4579 164.996 16.5294 164.768 16.5207C162.896 16.4512 161.025 16.3943 159.153 16.3343C159.061 16.3315 158.967 16.3424 158.876 16.3302C158.707 16.3075 158.675 16.3856 158.676 16.5376C158.683 18.2318 158.646 19.9269 158.803 21.6176C158.889 22.55 159.089 22.7743 160.028 22.8905C161.467 23.0685 162.909 23.0368 164.351 22.9288C164.708 22.902 165.063 22.8563 165.42 22.8218C165.581 22.8059 165.659 22.7375 165.698 22.5631C165.924 21.5691 166.176 20.5812 166.401 19.5872C166.446 19.3911 166.518 19.3088 166.72 19.3101C167.416 19.3142 168.111 19.3198 168.806 19.3875C168.995 19.4061 169.052 19.4748 169.055 19.6426C169.076 20.8371 169.127 22.0311 169.091 23.2261C169.077 23.7054 169.059 24.1853 169.062 24.6647C169.064 24.9278 168.993 25.0266 168.699 25.0253C166.025 25.0125 163.351 25.0182 160.676 25.0179Z" fill="#A51C3C"/>
<path fill-rule="evenodd" clip-rule="evenodd" d="M114.864 21.4434C114.864 20.7907 114.867 20.1376 114.862 19.4848C114.86 19.2928 114.924 19.1927 115.131 19.1725C115.876 19.0989 116.622 19.0816 117.37 19.0915C117.521 19.0936 117.587 19.1482 117.611 19.2969C117.767 20.2538 118.013 21.1893 118.274 22.1225C118.338 22.3511 118.45 22.4929 118.655 22.595C119.766 23.1482 120.954 23.2973 122.174 23.2618C122.913 23.2406 123.641 23.1441 124.329 22.8461C124.505 22.77 124.643 22.6624 124.742 22.4982C125.327 21.5254 125.535 20.5074 125.038 19.4412C124.776 18.8785 124.288 18.5051 123.77 18.1831C122.802 17.5814 121.735 17.1914 120.686 16.7623C119.569 16.3057 118.47 15.8202 117.447 15.1687C114.077 13.0223 114.117 8.45999 117.431 6.23321C118.845 5.28314 120.415 4.80735 122.097 4.71438C124.284 4.59358 126.371 5.00579 128.318 6.03553C128.874 6.32898 129.15 6.87246 129.054 7.48438C128.862 8.7141 128.599 9.93054 128.36 11.1511C128.331 11.3 128.289 11.3988 128.089 11.3934C127.403 11.3761 126.718 11.3572 126.034 11.3112C125.848 11.2987 125.804 11.2167 125.783 11.0456C125.658 10.0028 125.506 8.96413 125.255 7.94179C125.212 7.76608 125.128 7.65728 124.981 7.56381C124.372 7.17408 123.695 6.98866 122.986 6.92073C122.133 6.839 121.297 6.93835 120.464 7.15365C119.668 7.35924 119.322 7.89838 119.156 8.63519C118.81 10.1729 119.249 11.4095 120.546 12.3307C121.462 12.981 122.493 13.4042 123.518 13.8399C124.74 14.3591 125.975 14.8533 127.077 15.6108C128.166 16.3583 128.983 17.3066 129.293 18.6211C129.867 21.0573 128.793 23.3257 126.531 24.4803C125.212 25.1538 123.8 25.4393 122.332 25.4784C120.181 25.5361 118.087 25.2593 116.1 24.3833C115.725 24.218 115.369 24.0188 115.021 23.8033C114.857 23.7016 114.789 23.5681 114.791 23.3727C114.799 22.7296 114.794 22.0865 114.794 21.4434C114.817 21.4434 114.84 21.4434 114.864 21.4434Z" fill="#A51C3C"/>
<path fill-rule="evenodd" clip-rule="evenodd" d="M96.8003 21.4521C96.8003 20.7996 96.8075 20.1468 96.7963 19.4943C96.7922 19.2527 96.9054 19.1865 97.1218 19.1659C97.8365 19.0979 98.5524 19.0852 99.2694 19.0895C99.4364 19.0903 99.515 19.1309 99.5465 19.3204C99.7051 20.2766 99.951 21.2131 100.213 22.146C100.273 22.3629 100.388 22.4944 100.583 22.5909C101.813 23.1993 103.123 23.3298 104.469 23.2409C105.083 23.2003 105.685 23.0928 106.257 22.8484C106.424 22.7771 106.556 22.6819 106.655 22.5304C107.395 21.4 107.705 19.4976 105.971 18.3545C105.024 17.7303 103.982 17.3171 102.943 16.8921C101.761 16.4089 100.574 15.9369 99.4963 15.2382C98.1923 14.3925 97.2317 13.291 96.9666 11.7155C96.6069 9.57837 97.3275 7.84119 99.0153 6.49935C100.291 5.48492 101.777 4.95753 103.378 4.77544C105.797 4.50038 108.105 4.90594 110.269 6.04551C110.824 6.33845 111.083 6.88474 110.984 7.50483C110.789 8.72332 110.534 9.9298 110.298 11.1401C110.257 11.348 110.167 11.3955 109.971 11.3912C109.316 11.3763 108.662 11.3554 108.008 11.3148C107.8 11.302 107.733 11.2223 107.711 11.0213C107.603 10.0174 107.436 9.02238 107.219 8.03554C107.163 7.78551 107.035 7.62589 106.816 7.50075C105.794 6.91794 104.686 6.8214 103.547 6.92968C102.924 6.98868 102.318 7.13247 101.759 7.43511C101.609 7.51658 101.501 7.62257 101.423 7.77529C100.746 9.10513 100.672 11.0208 102.377 12.2544C103.356 12.9629 104.46 13.4164 105.559 13.8853C106.733 14.3862 107.917 14.8658 108.98 15.5898C110.165 16.3976 111.032 17.4305 111.279 18.8829C111.686 21.2759 110.705 23.2642 108.552 24.4295C107.219 25.151 105.772 25.4345 104.272 25.4771C102.057 25.54 99.9044 25.246 97.8736 24.308C97.5593 24.1629 97.2663 23.9731 96.963 23.8043C96.7845 23.7047 96.7148 23.5571 96.7179 23.3505C96.7268 22.7179 96.7212 22.085 96.7212 21.4521C96.7473 21.4521 96.7739 21.4521 96.8003 21.4521Z" fill="#A51C3C"/>
<path fill-rule="evenodd" clip-rule="evenodd" d="M78.6647 21.4838C78.6998 20.8006 78.6872 20.1169 78.7385 19.4342C78.7525 19.2447 78.8271 19.1916 78.9885 19.1748C79.7331 19.0964 80.4795 19.0823 81.2275 19.0905C81.3889 19.0923 81.4468 19.1467 81.476 19.3142C81.6417 20.2686 81.8822 21.2062 82.143 22.1391C82.2029 22.3539 82.3115 22.4903 82.5093 22.5884C83.7391 23.1972 85.0493 23.3285 86.3943 23.2429C86.9676 23.2064 87.5304 23.1063 88.0711 22.901C88.3285 22.8031 88.534 22.6573 88.6697 22.4091C89.1954 21.4478 89.3885 20.4566 88.8982 19.4274C88.6403 18.8859 88.1759 18.5217 87.6771 18.2084C86.6156 17.541 85.4353 17.1296 84.2857 16.6528C83.1804 16.1943 82.0871 15.7155 81.105 15.0172C79.4846 13.8646 78.6903 12.31 78.8243 10.3198C78.9375 8.63825 79.7853 7.35898 81.112 6.37392C82.5433 5.31098 84.1878 4.81628 85.9453 4.71565C88.1974 4.58668 90.3404 5.02417 92.3309 6.11496C92.7059 6.32055 93.0241 6.96516 92.9457 7.37788C92.708 8.63007 92.46 9.88023 92.2297 11.1337C92.1918 11.3403 92.1088 11.4013 91.9085 11.3909C91.2648 11.3577 90.6206 11.3309 89.9761 11.3183C89.7417 11.3137 89.6633 11.2182 89.6398 10.9943C89.535 10.0003 89.366 9.01648 89.1513 8.0396C89.0996 7.80464 88.9927 7.64247 88.7801 7.51911C87.7414 6.91664 86.6146 6.82035 85.4535 6.93349C84.8815 6.98917 84.3269 7.12376 83.8036 7.37532C83.5815 7.48208 83.4163 7.6274 83.3126 7.85342C82.6443 9.3107 82.6963 11.053 84.2834 12.2337C85.1863 12.9054 86.2107 13.3393 87.235 13.7768C88.4927 14.3141 89.7709 14.8114 90.9103 15.588C92.1045 16.402 92.9616 17.4455 93.218 18.9109C93.6168 21.1911 92.6404 23.2343 90.5952 24.37C89.2325 25.1267 87.753 25.4337 86.2099 25.4769C84.0485 25.5374 81.9457 25.2588 79.9506 24.3756C79.5761 24.2099 79.218 24.015 78.8747 23.7913C78.7346 23.6998 78.6608 23.5864 78.6621 23.4133C78.6678 22.7702 78.6647 22.1271 78.6647 21.4838Z" fill="#A51C3C"/>
<path fill-rule="evenodd" clip-rule="evenodd" d="M140.75 5.17666C143.238 5.19249 145.973 5.16414 148.7 4.97924C149.299 4.93863 149.634 5.09085 149.92 5.58759C150.086 5.87465 150.177 6.128 150.152 6.46563C150.048 7.88051 149.885 9.28901 149.755 10.7011C149.737 10.8885 149.667 10.9475 149.475 10.9654C148.819 11.0265 148.167 10.9764 147.513 10.9434C147.334 10.9345 147.276 10.8538 147.241 10.686C147.027 9.64809 146.791 8.61451 146.584 7.57506C146.541 7.35644 146.449 7.29208 146.247 7.27702C145.215 7.19938 144.181 7.18022 143.147 7.17767C142.952 7.17714 142.908 7.24739 142.909 7.42719C142.917 8.25441 142.913 9.08188 142.913 9.9091C142.913 12.7997 142.905 15.6902 142.917 18.581C142.922 19.7632 142.92 20.9477 143.116 22.1213C143.169 22.4431 143.335 22.654 143.621 22.8014C144.187 23.0936 144.792 23.2774 145.401 23.4511C145.58 23.5022 145.641 23.5701 145.589 23.764C145.502 24.0886 145.435 24.4193 145.382 24.7513C145.348 24.962 145.259 25.0266 145.041 25.0243C143.852 25.0123 142.664 25.0187 141.476 25.0187C139.919 25.0187 138.361 25.0146 136.804 25.0233C136.588 25.0246 136.5 24.9694 136.469 24.7442C136.424 24.4121 136.337 24.085 136.256 23.7589C136.214 23.589 136.249 23.5045 136.432 23.4521C137.12 23.257 137.801 23.0384 138.488 22.8422C138.681 22.7873 138.761 22.7051 138.776 22.4916C138.878 20.9539 138.935 19.4141 138.941 17.8736C138.954 14.4211 138.942 10.9687 138.95 7.51658C138.951 7.26272 138.911 7.17001 138.624 7.17333C137.652 7.18508 136.681 7.22339 135.71 7.276C135.468 7.28928 135.36 7.36385 135.309 7.61593C135.097 8.65436 134.849 9.68564 134.634 10.7238C134.582 10.9764 134.468 11.0494 134.226 11.0471C133.54 11.0405 132.855 11.0244 132.171 10.9562C131.946 10.9337 131.886 10.8553 131.879 10.6362C131.828 8.9215 131.831 7.2073 131.877 5.49233C131.884 5.23515 131.954 5.17079 132.206 5.17155C134.973 5.17998 137.739 5.17666 140.75 5.17666Z" fill="#A51C3C"/>
<path fill-rule="evenodd" clip-rule="evenodd" d="M68.9747 15.1779C68.9747 13.503 68.9865 11.8279 68.9688 10.1532C68.9616 9.4813 68.9142 8.80885 68.8123 8.141C68.7541 7.7602 68.5669 7.51094 68.2241 7.34749C67.6686 7.08239 67.0861 6.89314 66.4954 6.72969C66.3166 6.68014 66.2702 6.62753 66.3212 6.43931C66.4119 6.10551 66.4669 5.76226 66.5317 5.42182C66.5638 5.25377 66.6237 5.17051 66.8281 5.17102C69.594 5.17971 72.3602 5.17945 75.1264 5.17179C75.3354 5.17126 75.4092 5.24023 75.4412 5.43663C75.4971 5.77809 75.5693 6.11802 75.6564 6.45335C75.7015 6.62651 75.65 6.68142 75.4876 6.72816C74.8103 6.92277 74.1397 7.13985 73.4619 7.33165C73.2488 7.39193 73.1479 7.4831 73.132 7.71704C73.0508 8.92863 72.9924 10.142 72.9863 11.3554C72.9722 14.1844 72.9794 17.0134 72.9965 19.8424C73.0009 20.5654 73.0503 21.2889 73.1543 22.0081C73.2125 22.4121 73.4015 22.6775 73.7698 22.8494C74.3185 23.1053 74.8905 23.2907 75.4707 23.4552C75.63 23.5004 75.711 23.5469 75.6561 23.7453C75.5609 24.088 75.4991 24.4407 75.4341 24.7911C75.4031 24.9574 75.3365 25.0235 75.1518 25.023C72.3756 25.0164 69.5992 25.0164 66.8227 25.0233C66.6388 25.0238 66.5699 24.963 66.5394 24.7954C66.4774 24.4547 66.4185 24.1118 66.3271 23.7785C66.271 23.5736 66.315 23.5001 66.5205 23.4429C67.209 23.2508 67.8899 23.0314 68.5769 22.8335C68.7467 22.7845 68.8205 22.7045 68.8338 22.5237C68.9178 21.3737 68.9634 20.2216 68.9806 19.0693C69 17.7724 68.9852 16.4752 68.9852 15.1781C68.9816 15.1779 68.978 15.1779 68.9747 15.1779Z" fill="#A51C3C"/>
<path d="M81.1643 46.7955C81.0176 46.794 80.9666 46.8465 80.9707 46.991C80.9787 47.2664 80.9728 47.542 80.9728 47.8176C80.9728 48.7666 80.972 49.7163 80.9743 50.6658C80.975 50.7777 80.9261 50.9237 81.1324 50.9217C81.9 50.9138 82.6701 50.943 83.4352 50.8968C84.0531 50.8592 84.5129 50.4629 84.5954 50.0104C84.7007 49.4327 84.4833 49.0419 83.8765 48.7334C83.9331 48.6979 83.9846 48.6663 84.0356 48.6336C84.6375 48.2431 84.6368 47.4468 84.0341 47.0589C83.7961 46.9056 83.5293 46.8201 83.2526 46.8129C82.5569 46.7951 81.8603 46.8039 81.1643 46.7955ZM82.5982 47.6545C82.7102 47.6544 82.8221 47.6555 82.9339 47.658C83.1647 47.6633 83.3393 47.764 83.3551 48.0081C83.3718 48.2658 83.2049 48.3962 82.9649 48.4276C82.8353 48.4445 82.7013 48.4306 82.4971 48.4306C82.4118 48.4138 82.1886 48.5214 82.1079 48.3852C82.0034 48.208 82.072 47.9692 82.0779 47.7577C82.0812 47.639 82.1849 47.6575 82.2625 47.657C82.3744 47.6557 82.4862 47.6547 82.5982 47.6545ZM82.2475 49.2143C82.2569 49.2142 82.2668 49.2145 82.277 49.2153C82.5524 49.2334 82.8289 49.2311 83.103 49.2602C83.3151 49.2829 83.4714 49.4091 83.4852 49.6328C83.4993 49.8616 83.3446 49.9864 83.142 50.0418C82.9543 50.0929 82.7597 50.1115 82.6342 50.0977C81.992 50.0755 82.0812 50.2452 82.0684 49.4323C82.0664 49.2971 82.1016 49.224 82.2205 49.2153C82.2289 49.2148 82.238 49.2143 82.2475 49.2143Z" fill="#BC955B"/>
<path fill-rule="evenodd" clip-rule="evenodd" d="M70.2668 35.0084C70.2668 35.689 70.2532 36.3576 70.2734 37.025C70.2816 37.2954 70.2086 37.3723 69.9346 37.3649C69.2386 37.3463 69.2383 37.3603 69.2383 36.6536C69.2383 35.6019 69.2442 34.5502 69.2335 33.4985C69.2312 33.2776 69.2857 33.2194 69.5178 33.1951C70.0083 33.1445 70.3249 33.31 70.6018 33.7238C71.0363 34.3732 71.5383 34.9778 72.0581 35.6622C72.0581 34.9083 72.0721 34.2302 72.0511 33.5529C72.0424 33.2717 72.1213 33.1913 72.4046 33.1994C73.0945 33.2194 73.0947 33.2048 73.0947 33.8862C73.0947 34.9481 73.0881 36.0101 73.1001 37.072C73.1027 37.3018 73.034 37.3488 72.8088 37.3677C72.3286 37.4078 71.994 37.2829 71.7184 36.8475C71.3539 36.2713 70.9026 35.7498 70.4843 35.2081C70.432 35.1402 70.4036 35.0426 70.2668 35.0084Z" fill="#BC955B"/>
<path d="M151.353 39.9946C150.919 39.9896 150.483 40.0214 150.049 39.9976C149.823 39.9853 149.776 40.0733 149.781 40.2789C149.793 40.8707 149.785 41.463 149.785 42.0552C149.785 42.6679 149.789 43.2804 149.782 43.8929C149.78 44.0665 149.819 44.1589 150.019 44.1523C150.643 44.1303 151.268 44.1753 151.892 44.1183C153.012 44.0164 153.718 43.2734 153.797 42.1006C153.863 41.1204 153.169 40.2627 152.132 40.0635C151.874 40.0137 151.614 39.9976 151.353 39.9946ZM151.118 40.904C151.144 40.9045 151.172 40.9071 151.203 40.9115C151.283 40.9229 151.367 40.9209 151.448 40.912C152.316 40.8185 152.861 41.5997 152.608 42.4977C152.451 43.0542 152.11 43.2504 151.376 43.2504C150.88 43.2504 150.88 43.2504 150.88 42.7501C150.88 42.2411 150.895 41.731 150.873 41.2227C150.863 40.9901 150.935 40.8997 151.118 40.904Z" fill="#BC955B"/>
<path d="M155.02 33.2043C154.682 33.2068 154.345 33.2173 154.008 33.2053C153.814 33.1984 153.83 33.3233 153.831 33.4482C153.831 34.0601 153.831 34.6719 153.831 35.2839C153.831 35.8958 153.832 36.5083 153.83 37.1205C153.83 37.249 153.821 37.3676 154.012 37.3599C154.716 37.3311 155.424 37.4226 156.125 37.3041C157.216 37.1197 157.838 36.3182 157.819 35.1447C157.802 34.165 157.071 33.3921 156.031 33.2527C155.695 33.2075 155.357 33.2018 155.02 33.2043L155.02 33.2043ZM155.097 34.1141C155.115 34.1133 155.134 34.1139 155.155 34.1151C155.369 34.1287 155.588 34.1005 155.799 34.1296C156.357 34.2062 156.739 34.7361 156.711 35.3656C156.682 36.0067 156.298 36.4202 155.698 36.4586C154.929 36.5078 154.929 36.5076 154.929 35.7442V35.2848C154.929 34.9684 154.938 34.6513 154.925 34.3351C154.919 34.178 154.97 34.1193 155.097 34.1141Z" fill="#BC955B"/>
<path d="M107.123 33.2038C106.786 33.2064 106.449 33.2171 106.112 33.2043C105.92 33.1969 105.931 33.3135 105.931 33.4417C105.933 34.0534 105.932 34.665 105.932 35.2769C105.932 35.8885 105.93 36.5004 105.934 37.1115C105.935 37.2116 105.886 37.3613 106.072 37.3549C106.836 37.3294 107.609 37.4516 108.363 37.2736C109.401 37.029 109.991 36.1806 109.919 35.0903C109.855 34.1234 109.142 33.3901 108.134 33.2527C107.798 33.2068 107.461 33.2012 107.124 33.2038L107.123 33.2038ZM107.55 34.1161C107.678 34.1156 107.805 34.12 107.928 34.142C108.47 34.2391 108.849 34.7746 108.809 35.3362C108.761 36.0219 108.387 36.424 107.762 36.462C107.03 36.5067 107.03 36.5067 107.03 35.7702C107.03 35.597 107.03 35.4243 107.03 35.2514C107.03 34.936 107.03 34.6201 107.03 34.3047C107.03 34.2099 107.028 34.1158 107.166 34.1191C107.293 34.1222 107.422 34.1165 107.55 34.1161Z" fill="#BC955B"/>
<path d="M143.998 33.1978C143.741 33.197 143.691 33.3237 143.696 33.5679C143.707 34.1389 143.7 34.7105 143.7 35.2818C143.7 35.2818 143.701 35.2816 143.701 35.2818C143.701 35.8835 143.698 36.4858 143.704 37.0875C143.705 37.2106 143.683 37.3668 143.897 37.3589C144.581 37.3328 145.267 37.4109 145.95 37.3105C147.033 37.1511 147.726 36.3216 147.694 35.2245C147.661 34.1291 146.914 33.3443 145.83 33.2437C145.237 33.1882 144.644 33.2358 144.052 33.1998C144.033 33.1985 144.015 33.1978 143.998 33.1978ZM145.454 34.1116C146.431 34.0975 146.844 35.1732 146.412 35.9627C146.211 36.3305 145.877 36.4611 145.468 36.4695C144.794 36.4833 144.793 36.4912 144.793 35.8325C144.793 35.6494 144.794 35.4659 144.794 35.2828C144.794 34.9674 144.803 34.6515 144.791 34.3366C144.784 34.1583 144.852 34.0998 145.021 34.1156C145.133 34.1261 145.246 34.126 145.357 34.1166C145.39 34.1138 145.422 34.1121 145.454 34.1116L145.454 34.1116Z" fill="#BC955B"/>
<path d="M103.528 39.9408C102.227 39.94 101.267 40.8535 101.269 42.0902C101.27 43.3012 102.242 44.2216 103.52 44.2231C104.792 44.2246 105.755 43.3027 105.756 42.0822C105.756 40.8525 104.809 39.9418 103.528 39.9408ZM103.489 40.8691C103.508 40.8685 103.528 40.8685 103.547 40.8691C104.151 40.8821 104.64 41.4231 104.64 42.0787C104.641 42.7575 104.151 43.2747 103.512 43.2704C102.881 43.2663 102.399 42.7361 102.408 42.0567C102.417 41.4026 102.891 40.8882 103.489 40.8691Z" fill="#BC955B"/>
<path d="M167.218 39.9408C165.942 39.9426 165.005 40.8353 165.003 42.0513C165.001 43.3121 165.933 44.2231 167.226 44.2231C168.532 44.2233 169.467 43.2981 169.476 41.9959C169.484 40.8502 168.483 39.9387 167.218 39.9408ZM167.249 40.8686C167.869 40.8783 168.339 41.3955 168.339 42.0672C168.339 42.767 167.874 43.2732 167.234 43.2709C166.601 43.2686 166.114 42.7448 166.118 42.0682C166.121 41.4009 166.631 40.8591 167.249 40.8686Z" fill="#BC955B"/>
<path d="M101.22 46.787C100.761 46.7812 100.3 46.8139 99.8409 46.7975C99.6644 46.7914 99.6823 46.9168 99.6823 47.0284C99.6816 47.6404 99.6816 48.2517 99.6816 48.8636C99.6816 49.465 99.6832 50.0664 99.6808 50.6678C99.6801 50.8093 99.6747 50.9275 99.8804 50.9237C100.524 50.9114 101.17 50.9451 101.812 50.9037C102.885 50.8345 103.641 50.0204 103.697 48.9314C103.75 47.9068 103.077 47.0496 102.044 46.8584C101.77 46.8078 101.495 46.7905 101.22 46.787H101.22ZM100.956 47.6689C100.965 47.6691 100.974 47.6697 100.985 47.6705C101.107 47.6802 101.23 47.6697 101.353 47.673C102.27 47.6978 102.795 48.4535 102.497 49.3221C102.339 49.7841 102.003 50.0308 101.51 50.0459C100.777 50.0684 100.777 50.0687 100.777 49.3505C100.777 49.1873 100.776 49.0244 100.776 48.8612C100.776 48.5351 100.782 48.2089 100.774 47.883C100.77 47.7353 100.816 47.6665 100.955 47.669L100.956 47.6689Z" fill="#BC955B"/>
<path d="M100.721 33.1459C99.4224 33.14 98.4425 34.057 98.4404 35.2798C98.4386 36.4792 99.3856 37.4183 100.607 37.4277C101.966 37.4385 102.919 36.558 102.927 35.2848C102.935 34.0814 101.976 33.151 100.721 33.1459ZM100.711 34.0976C101.339 34.103 101.805 34.608 101.805 35.2848C101.807 35.9609 101.307 36.5061 100.692 36.4994C100.066 36.4925 99.5801 35.9599 99.5801 35.2818C99.5801 34.5994 100.065 34.0923 100.711 34.0976Z" fill="#BC955B"/>
<path d="M119.502 39.9408C118.257 39.9456 117.268 40.8501 117.267 41.9869C117.264 43.2876 118.199 44.221 119.505 44.2231C120.797 44.2251 121.742 43.3106 121.74 42.0597C121.739 40.8259 120.799 39.9359 119.502 39.9408ZM119.532 40.869C120.162 40.879 120.629 41.404 120.626 42.0966C120.622 42.7678 120.147 43.2716 119.519 43.2708C118.872 43.2698 118.396 42.7429 118.404 42.0373C118.412 41.3891 118.924 40.8591 119.532 40.869Z" fill="#BC955B"/>
<path d="M166.053 46.7361C164.76 46.7374 163.802 47.6409 163.803 48.8586C163.803 50.0475 164.793 51.0286 165.975 51.0125C167.34 50.9936 168.309 50.0978 168.307 48.8581C168.305 47.6419 167.342 46.7349 166.053 46.7361ZM166.065 47.6639C166.689 47.6634 167.161 48.1724 167.163 48.8476C167.165 49.5482 166.7 50.063 166.065 50.0622C165.43 50.0617 164.943 49.5424 164.942 48.8631C164.941 48.183 165.427 47.6645 166.065 47.6639Z" fill="#BC955B"/>
<path d="M125.951 46.795C125.797 46.7917 125.733 46.837 125.733 47.002C125.739 48.2373 125.738 49.4729 125.733 50.7082C125.733 50.8643 125.779 50.9258 125.942 50.9232C126.577 50.9137 127.213 50.9415 127.846 50.9052C128.848 50.8478 129.647 50.0687 129.723 49.1235C129.817 47.9617 129.224 47.1146 128.156 46.8633C127.74 46.7653 127.32 46.8177 126.972 46.7975C126.585 46.7975 126.268 46.8027 125.951 46.795ZM127.001 47.6694C127.009 47.6695 127.017 47.6696 127.027 47.6704C127.139 47.6784 127.252 47.6704 127.365 47.6725C128.331 47.6886 128.866 48.4771 128.526 49.3804C128.373 49.7832 128.027 50.0285 127.585 50.0453C126.834 50.0734 126.834 50.0736 126.834 49.336C126.834 49.1728 126.834 49.0096 126.834 48.8462C126.834 48.5195 126.84 48.1922 126.832 47.8655C126.829 47.7295 126.874 47.668 127.001 47.6695L127.001 47.6694Z" fill="#BC955B"/>
<path d="M106.682 46.7361C105.434 46.7567 104.491 47.6052 104.457 48.7613C104.42 50.0406 105.332 50.9691 106.656 51.0005C107.919 51.0307 108.911 50.1362 108.944 48.9379C108.978 47.7115 108.063 46.7701 106.805 46.7366C106.764 46.7356 106.723 46.7354 106.682 46.7361ZM106.735 47.6639C107.339 47.6716 107.838 48.2239 107.826 48.8716C107.813 49.5573 107.327 50.0676 106.689 50.0628C106.077 50.0579 105.559 49.4916 105.572 48.8411C105.586 48.1802 106.104 47.6558 106.735 47.6639Z" fill="#BC955B"/>
<path d="M160.588 46.786C160.128 46.7801 159.667 46.8149 159.208 46.797C159.03 46.7901 159.048 46.9096 159.048 47.022V48.8282C159.048 49.4508 159.053 50.0731 159.044 50.6957C159.042 50.8663 159.091 50.9275 159.268 50.9242C159.882 50.913 160.497 50.9381 161.11 50.9092C162.163 50.8594 162.962 50.0704 163.039 49.0432C163.122 47.9414 162.484 47.07 161.411 46.8609C161.138 46.8075 160.864 46.7896 160.588 46.786ZM160.384 47.6629C160.41 47.6635 160.439 47.6657 160.47 47.6699C160.591 47.6863 160.714 47.6833 160.836 47.6879C161.717 47.7211 162.078 48.5677 161.869 49.2726C161.723 49.7638 161.356 50.0394 160.823 50.0453C160.146 50.053 160.146 50.0532 160.146 49.3864V48.8671C160.146 48.5719 160.164 48.2749 160.14 47.9812C160.122 47.7486 160.199 47.659 160.384 47.6629Z" fill="#BC955B"/>
<path d="M83.7696 39.9931C83.3032 39.9881 82.8349 40.0176 82.3687 40.0026C82.2376 39.9983 82.2227 40.0798 82.2227 40.1817C82.2234 41.4375 82.2234 42.6932 82.2234 43.9492C82.2234 44.0465 82.2322 44.1458 82.36 44.1443C82.6651 44.1407 83.0133 44.2496 83.2605 44.0959C83.4286 43.9914 83.2963 43.6576 83.3166 43.4275C83.3229 43.3567 83.3134 43.2845 83.3191 43.2135C83.3237 43.1547 83.3214 43.081 83.3546 43.0414C83.4492 42.9293 84.1201 43.0206 84.1926 43.1526C84.3397 43.421 84.4822 43.6917 84.6239 43.9632C84.6774 44.0659 84.7274 44.1546 84.87 44.1518C85.2151 44.1444 85.5601 44.1492 85.9687 44.1492C85.6928 43.7184 85.4601 43.3469 85.2177 42.9815C85.1342 42.8553 85.1389 42.78 85.2688 42.6812C85.8292 42.2557 85.9194 41.67 85.7721 41.0336C85.6325 40.4296 85.1827 40.1486 84.6069 40.0564C84.3287 40.0117 84.0497 39.9961 83.7699 39.9931L83.7696 39.9931ZM83.7496 40.8386C83.9211 40.8366 84.1003 40.8666 84.2689 40.8965C84.6685 40.9672 84.8584 41.2624 84.7767 41.6537C84.7321 41.8667 84.6115 42.0198 84.3924 42.0847C84.0825 42.1766 83.7657 42.1276 83.4514 42.137C83.342 42.1404 83.3168 42.0709 83.3173 41.9784C83.3186 41.816 83.3181 41.6533 83.3181 41.4567C83.3485 41.2932 83.2166 40.991 83.3716 40.9169C83.4876 40.8614 83.6164 40.8402 83.7498 40.8386H83.7496Z" fill="#BC955B"/>
<path d="M136.635 33.2003C136.427 33.2026 136.383 33.3115 136.383 33.5026C136.385 34.6863 136.387 35.8704 136.382 37.0541C136.381 37.2832 136.455 37.368 136.702 37.3644C137.477 37.3537 137.476 37.3652 137.48 36.5807C137.48 36.4709 137.441 36.3483 137.511 36.253C137.6 36.1312 138.268 36.2188 138.345 36.3588C138.496 36.6361 138.644 36.9159 138.788 37.1968C138.838 37.2938 138.895 37.3617 139.019 37.3594C139.365 37.3538 139.71 37.3579 140.118 37.3579C139.845 36.9296 139.613 36.5578 139.372 36.1926C139.286 36.0639 139.298 35.9934 139.425 35.8943C139.998 35.4466 140.096 34.8382 139.913 34.1859C139.744 33.5829 139.261 33.3323 138.671 33.2516C138.009 33.161 137.342 33.2365 136.679 33.2007C136.664 33.2 136.649 33.2 136.635 33.2002L136.635 33.2003ZM137.797 34.0732C137.886 34.0732 138.001 34.082 138.147 34.0931C138.391 34.1115 138.643 34.0982 138.818 34.3201C139.089 34.6641 138.929 35.1896 138.507 35.3063C138.381 35.341 138.244 35.3414 138.112 35.3422C137.478 35.3463 137.478 35.3445 137.478 34.7047C137.478 34.1861 137.477 34.0734 137.797 34.0732Z" fill="#BC955B"/>
<path d="M71.2025 46.7925C71.0159 46.7968 70.9659 46.8745 70.9678 47.0713C70.9773 48.0809 70.9718 49.0908 70.9718 50.1007C70.9718 50.9731 70.9718 50.9686 71.8599 50.9252C72.0217 50.9173 72.0751 50.866 72.0685 50.7097C72.0593 50.4855 72.0649 50.261 72.0674 50.0368C72.0682 49.9676 72.0463 49.8895 72.1045 49.8328C72.2131 49.7266 72.8674 49.8204 72.942 49.9555C73.0895 50.2234 73.2321 50.4941 73.3717 50.7661C73.4222 50.8647 73.4796 50.9255 73.6039 50.9232C73.9494 50.9161 74.2949 50.9207 74.694 50.9207C74.4315 50.5046 74.1953 50.1281 73.9561 49.7534C73.8938 49.6556 73.8438 49.5971 73.9806 49.4881C74.5346 49.047 74.7162 48.367 74.4859 47.7078C74.2981 47.1709 73.7785 46.8271 73.0826 46.8084C72.4691 46.7916 71.8554 46.8086 71.242 46.7929C71.2283 46.7927 71.2149 46.7922 71.2024 46.7924L71.2025 46.7925ZM72.6678 47.6644C72.7903 47.665 72.9154 47.6609 73.0346 47.6839C73.3681 47.7485 73.5436 47.9788 73.5329 48.3164C73.5226 48.6476 73.3252 48.8581 72.983 48.9C72.9121 48.9084 72.8401 48.9104 72.7689 48.916C72.0663 48.9727 72.0665 48.9732 72.0665 48.275C72.0665 47.6631 72.0664 47.6619 72.6678 47.6644Z" fill="#BC955B"/>
<path d="M111.703 46.7905C111.25 46.7854 110.795 46.8198 110.344 46.792C110.085 46.7764 110.044 46.8765 110.047 47.1038C110.058 48.1031 110.052 49.1031 110.052 50.1027C110.052 50.9478 110.052 50.9423 110.905 50.9247C111.085 50.9211 111.165 50.8786 111.153 50.6848C111.138 50.4511 111.149 50.2159 111.151 49.9815C111.151 49.9002 111.148 49.828 111.263 49.7999C111.651 49.7051 111.935 49.8223 112.127 50.177C112.229 50.3652 112.333 50.5526 112.426 50.7451C112.486 50.8687 112.564 50.9283 112.71 50.9237C113.036 50.9138 113.363 50.9207 113.761 50.9207C113.502 50.5121 113.283 50.1471 113.045 49.7949C112.948 49.6506 112.932 49.5752 113.092 49.4562C113.641 49.0501 113.705 48.4605 113.594 47.857C113.488 47.2839 113.071 46.9737 112.515 46.8639C112.246 46.8107 111.975 46.7935 111.703 46.7905ZM111.651 47.6579C111.794 47.6646 111.939 47.6574 112.079 47.6814C112.416 47.7394 112.608 47.9711 112.604 48.2924C112.598 48.6265 112.417 48.8318 112.078 48.901C111.825 48.9528 111.57 48.9189 111.315 48.9304C111.174 48.9365 111.146 48.8569 111.149 48.7374C111.153 48.544 111.149 48.3508 111.149 48.1577C111.149 47.6638 111.149 47.6636 111.652 47.6579H111.651Z" fill="#BC955B"/>
<path fill-rule="evenodd" clip-rule="evenodd" d="M121.863 35.2717C121.863 34.6692 121.87 34.0665 121.859 33.4646C121.855 33.2664 121.911 33.2 122.116 33.2023C123.038 33.2122 123.959 33.212 124.881 33.2023C125.081 33.2002 125.158 33.2628 125.155 33.4602C125.145 34.2494 125.234 34.0826 124.564 34.0956C124.114 34.1048 123.663 34.1076 123.213 34.0931C123.004 34.0862 122.956 34.1626 122.957 34.3564C122.959 34.8531 122.95 34.8531 123.46 34.8531C123.88 34.8531 124.3 34.859 124.72 34.8501C124.878 34.8467 124.927 34.8955 124.933 35.0574C124.956 35.7115 124.962 35.7105 124.31 35.7118C123.942 35.7128 123.573 35.7261 123.205 35.7161C123.022 35.7113 122.952 35.7603 122.957 35.9544C122.975 36.5827 122.898 36.4573 123.449 36.4659C123.951 36.4736 124.453 36.4751 124.954 36.4639C125.156 36.4593 125.217 36.5283 125.22 36.728C125.227 37.3585 125.235 37.3583 124.614 37.3583C123.805 37.3583 122.996 37.3494 122.187 37.3639C121.94 37.3683 121.847 37.3141 121.856 37.0482C121.877 36.4565 121.863 35.8637 121.863 35.2717Z" fill="#BC955B"/>
<path fill-rule="evenodd" clip-rule="evenodd" d="M141.179 48.8283C141.179 48.236 141.186 47.6433 141.175 47.0513C141.171 46.849 141.238 46.7908 141.439 46.7931C142.36 46.8028 143.282 46.804 144.204 46.7925C144.427 46.7895 144.477 46.8663 144.475 47.074C144.469 47.6639 144.479 47.6639 143.876 47.6639C143.456 47.6639 143.035 47.6811 142.617 47.6578C142.348 47.6427 142.266 47.7424 142.306 47.9873C142.307 47.9972 142.306 48.0077 142.306 48.0179C142.305 48.4194 142.305 48.4197 142.698 48.4199C143.118 48.4201 143.538 48.4304 143.958 48.4158C144.187 48.4079 144.289 48.46 144.279 48.718C144.252 49.4083 144.363 49.2862 143.688 49.298C143.32 49.3046 142.95 49.3209 142.583 49.3038C142.337 49.2923 142.275 49.3955 142.305 49.6093C142.311 49.6491 142.311 49.6915 142.305 49.7316C142.266 49.9781 142.352 50.0705 142.617 50.0608C143.169 50.0401 143.723 50.0631 144.276 50.0501C144.478 50.0452 144.536 50.1073 144.536 50.3078C144.537 50.921 144.545 50.921 143.928 50.921C143.098 50.921 142.268 50.9149 141.439 50.9253C141.237 50.9279 141.172 50.8684 141.175 50.6666C141.186 50.0539 141.179 49.441 141.179 48.8283Z" fill="#BC955B"/>
<path fill-rule="evenodd" clip-rule="evenodd" d="M111.026 35.2646C111.026 34.6626 111.035 34.0601 111.022 33.4584C111.017 33.2513 111.09 33.201 111.286 33.203C112.197 33.2115 113.108 33.2127 114.018 33.2023C114.228 33.1997 114.3 33.2505 114.298 33.4715C114.293 34.0974 114.303 34.0974 113.673 34.0974C113.243 34.0974 112.813 34.1053 112.384 34.0938C112.187 34.0885 112.112 34.1467 112.117 34.3521C112.135 34.9744 112.059 34.8411 112.62 34.8519C113.04 34.8598 113.46 34.8608 113.879 34.8498C114.057 34.8452 114.1 34.9103 114.104 35.0792C114.119 35.7115 114.125 35.7105 113.488 35.7118C113.12 35.7125 112.751 35.7258 112.383 35.7164C112.189 35.7113 112.089 35.7639 112.12 35.9733C112.128 36.0231 112.128 36.076 112.12 36.126C112.081 36.3858 112.168 36.4869 112.451 36.4744C112.982 36.4509 113.515 36.478 114.047 36.4629C114.278 36.4565 114.368 36.5071 114.362 36.7619C114.346 37.358 114.36 37.3583 113.769 37.3583C112.94 37.3583 112.11 37.3527 111.281 37.3626C111.079 37.3649 111.019 37.3029 111.022 37.1019C111.034 36.4894 111.026 35.8768 111.026 35.2646Z" fill="#BC955B"/>
<path fill-rule="evenodd" clip-rule="evenodd" d="M154.888 42.0757C154.888 41.4732 154.897 40.8705 154.883 40.2682C154.878 40.0489 154.953 39.9955 155.163 39.9975C156.075 40.008 156.986 40.0067 157.898 39.9983C158.097 39.9962 158.187 40.0297 158.185 40.2598C158.18 40.8684 158.192 40.8684 157.571 40.8684C157.13 40.8684 156.69 40.8802 156.25 40.8636C156.027 40.8551 155.972 40.9361 155.979 41.1442C155.999 41.7485 155.909 41.6389 156.481 41.6474C156.901 41.6535 157.321 41.6543 157.741 41.6461C157.901 41.6428 157.947 41.6984 157.954 41.857C157.981 42.507 157.987 42.5057 157.352 42.507C156.983 42.508 156.614 42.5264 156.246 42.5101C156.02 42.4999 155.972 42.5862 155.979 42.7915C155.999 43.3462 155.917 43.2518 156.456 43.2579C156.958 43.2632 157.46 43.2673 157.962 43.2548C158.167 43.2497 158.257 43.2959 158.245 43.5225C158.21 44.1873 158.398 44.1449 157.632 44.1487C156.833 44.153 156.034 44.1357 155.236 44.1569C154.94 44.1645 154.874 44.0639 154.883 43.7911C154.901 43.2198 154.888 42.6477 154.888 42.0757Z" fill="#BC955B"/>
<path fill-rule="evenodd" clip-rule="evenodd" d="M138.953 42.0476C138.953 41.4454 138.96 40.8429 138.949 40.2409C138.946 40.0532 139.004 39.9965 139.192 39.9983C140.134 40.0065 141.076 40.0057 142.018 39.9988C142.191 39.9975 142.243 40.0514 142.248 40.2243C142.267 40.8687 142.273 40.8684 141.638 40.8684C141.188 40.8684 140.737 40.8771 140.288 40.8644C140.094 40.859 140.048 40.9274 140.047 41.11C140.044 41.6484 140.036 41.6484 140.573 41.6484C140.973 41.6484 141.372 41.6553 141.771 41.6451C141.947 41.6407 142.022 41.6791 142.024 41.8775C142.032 42.5068 142.041 42.5055 141.403 42.5068C141.034 42.5078 140.665 42.5247 140.298 42.5099C140.086 42.5014 140.025 42.5829 140.05 42.7737C140.058 42.8339 140.059 42.8973 140.05 42.9573C140.013 43.1953 140.103 43.273 140.35 43.2645C140.892 43.2456 141.435 43.2699 141.977 43.2533C142.211 43.2462 142.31 43.3123 142.307 43.5526C142.298 44.2902 142.37 44.1403 141.737 44.1472C140.918 44.1559 140.099 44.1441 139.28 44.152C139.04 44.1546 138.938 44.0882 138.947 43.8236C138.967 43.2324 138.954 42.6398 138.954 42.0476L138.953 42.0476Z" fill="#BC955B"/>
<path fill-rule="evenodd" clip-rule="evenodd" d="M79.3261 40.0019C79.7969 40.0019 80.2677 40.0083 80.7385 39.9986C80.9109 39.995 80.9639 40.0489 80.9683 40.2233C80.9847 40.8684 80.9916 40.8682 80.362 40.8682C79.9014 40.8682 79.4409 40.873 78.9803 40.8656C78.8238 40.8633 78.7703 40.9124 78.7633 41.0743C78.7395 41.6484 78.7329 41.6482 79.3179 41.6482C79.707 41.6482 80.0961 41.6548 80.4847 41.6451C80.6591 41.6408 80.7367 41.6775 80.7401 41.877C80.7508 42.5065 80.7598 42.5053 80.1169 42.5065C79.7485 42.5076 79.3799 42.5203 79.0118 42.5111C78.8307 42.5063 78.758 42.553 78.7636 42.7481C78.7815 43.3716 78.7049 43.2485 79.2587 43.2569C79.7603 43.2646 80.2621 43.2648 80.7634 43.2551C80.9337 43.2518 80.9934 43.3113 81.0111 43.4768C81.0815 44.1362 81.0749 44.1492 80.4291 44.1492C79.6207 44.149 78.812 44.1441 78.0033 44.1518C77.7546 44.1543 77.6493 44.0915 77.6534 43.808C77.6714 42.6348 77.667 41.4612 77.6558 40.2877C77.6534 40.0609 77.7108 39.9866 77.9447 39.996C78.4045 40.0152 78.8655 40.0019 79.3261 40.0019Z" fill="#BC955B"/>
<path fill-rule="evenodd" clip-rule="evenodd" d="M130.838 48.8398C130.838 48.2481 130.847 47.6558 130.833 47.0646C130.828 46.8452 130.903 46.791 131.113 46.7931C132.034 46.803 132.955 46.8007 133.876 46.7944C134.05 46.7931 134.13 46.8255 134.134 47.0265C134.148 47.664 134.157 47.6637 133.521 47.6637C133.07 47.6637 132.62 47.6734 132.17 47.6591C131.974 47.6533 131.927 47.7212 131.933 47.904C131.952 48.5318 131.86 48.4079 132.452 48.4184C132.861 48.4256 133.271 48.4263 133.68 48.4166C133.854 48.4123 133.904 48.472 133.908 48.6444C133.923 49.2985 133.929 49.297 133.281 49.2988C132.913 49.3 132.544 49.3151 132.176 49.3059C131.991 49.3013 131.931 49.356 131.931 49.5467C131.931 50.0542 131.921 50.0542 132.424 50.0542C132.935 50.0542 133.447 50.0596 133.959 50.0511C134.125 50.0483 134.189 50.0905 134.195 50.2708C134.215 50.9208 134.222 50.9205 133.56 50.9205C132.752 50.9205 131.943 50.9103 131.135 50.9264C130.884 50.9315 130.826 50.8492 130.832 50.6143C130.848 50.0236 130.838 49.4313 130.838 48.8398Z" fill="#BC955B"/>
<path fill-rule="evenodd" clip-rule="evenodd" d="M114.899 48.8502C114.899 48.2582 114.906 47.6657 114.894 47.074C114.89 46.8681 114.939 46.7895 115.163 46.7923C116.084 46.8043 117.006 46.8022 117.927 46.7933C118.117 46.7915 118.168 46.8492 118.17 47.0362C118.175 47.6637 118.183 47.6637 117.551 47.6637C117.121 47.6637 116.691 47.6749 116.261 47.6588C116.043 47.6509 115.964 47.7263 115.991 47.9367C116.001 48.0067 116.001 48.0805 115.991 48.1507C115.963 48.3711 116.064 48.4288 116.273 48.4235C116.743 48.4122 117.215 48.4273 117.685 48.4225C117.902 48.4202 117.984 48.4919 117.979 48.7261C117.966 49.2969 117.98 49.2959 117.399 49.2982C117.01 49.2997 116.621 49.3145 116.232 49.3059C116.042 49.3015 115.972 49.37 115.991 49.5539C116.001 49.6448 116.001 49.7382 115.991 49.8292C115.974 50.0021 116.043 50.0595 116.217 50.057C116.791 50.0485 117.364 50.0639 117.937 50.0491C118.16 50.0432 118.238 50.093 118.233 50.3315C118.22 50.9202 118.233 50.9205 117.633 50.9205C116.834 50.9205 116.036 50.91 115.237 50.9261C114.977 50.9314 114.879 50.8786 114.891 50.5953C114.916 50.0151 114.898 49.432 114.898 48.8502H114.899Z" fill="#BC955B"/>
<path fill-rule="evenodd" clip-rule="evenodd" d="M135.08 34.6647C135.08 35.0222 135.085 35.38 135.078 35.7371C135.06 36.6772 134.447 37.3364 133.506 37.4196C133.117 37.4541 132.728 37.438 132.359 37.2812C131.697 36.999 131.353 36.4826 131.328 35.7813C131.301 34.9957 131.324 34.2085 131.319 33.4222C131.318 33.2718 131.355 33.211 131.522 33.2023C132.42 33.1553 132.419 33.1504 132.419 34.0484C132.419 34.5796 132.414 35.1108 132.422 35.6418C132.429 36.1595 132.753 36.4994 133.221 36.4992C133.682 36.4989 133.973 36.1868 133.982 35.6502C133.993 34.9556 133.993 34.2612 133.982 33.5667C133.978 33.3034 134.039 33.1895 134.34 33.1987C135.079 33.2207 135.08 33.2041 135.08 33.9294C135.08 34.1746 135.08 34.4198 135.08 34.6647H135.08Z" fill="#BC955B"/>
<path fill-rule="evenodd" clip-rule="evenodd" d="M93.3995 34.6654C93.3995 35.0125 93.4013 35.3596 93.3988 35.7064C93.3931 36.6524 92.8101 37.3095 91.8626 37.4155C91.4325 37.4635 91.004 37.4375 90.6021 37.2454C89.9881 36.952 89.6753 36.4481 89.6525 35.7876C89.6251 34.9928 89.6454 34.1963 89.6387 33.4002C89.6374 33.2562 89.6856 33.1895 89.8326 33.2064C89.8426 33.2076 89.8529 33.2069 89.8631 33.2064C90.7473 33.1688 90.7473 33.1688 90.7473 34.0568C90.7473 34.5875 90.745 35.118 90.7481 35.6487C90.7507 36.1457 91.0619 36.4864 91.5191 36.4989C91.9884 36.5119 92.2955 36.2001 92.3024 35.6768C92.3116 34.9729 92.3088 34.2685 92.304 33.5647C92.3022 33.3146 92.3578 33.1872 92.6626 33.1974C93.3988 33.2217 93.3996 33.2035 93.3996 33.9304C93.3996 34.1758 93.3995 34.4208 93.3995 34.6654Z" fill="#BC955B"/>
<path d="M131.528 39.9961C131.318 39.9941 131.222 40.0649 131.144 40.251C130.673 41.3691 130.191 42.4823 129.712 43.5966C129.474 44.1503 129.472 44.1498 130.066 44.1498C130.592 44.1498 130.6 44.1531 130.783 43.6814C130.856 43.495 130.946 43.4088 131.162 43.4205C131.55 43.4412 131.94 43.4463 132.328 43.42C132.604 43.4013 132.745 43.4959 132.798 43.7592C132.859 44.0616 133.029 44.2202 133.358 44.1508C133.407 44.1405 133.46 44.1497 133.511 44.1497C133.583 44.1497 133.654 44.1497 133.726 44.1503C134.118 44.1497 134.121 44.149 133.967 43.7836C133.546 42.7779 133.122 41.7728 132.698 40.7678C132.373 39.9957 132.373 40.0043 131.528 39.9961ZM131.789 41.1469C131.965 41.6005 132.12 42.0061 132.279 42.4099C132.325 42.5271 132.296 42.5842 132.165 42.576C132.155 42.5752 132.145 42.5752 132.135 42.576C131.211 42.6424 131.211 42.6424 131.536 41.7904C131.611 41.593 131.69 41.3967 131.789 41.1469Z" fill="#BC955B"/>
<path d="M150.291 33.2018C150.095 33.2018 150.008 33.2689 149.933 33.4472C149.451 34.5947 148.954 35.7356 148.463 36.8795C148.258 37.3574 148.262 37.3252 148.769 37.3674C149.218 37.4047 149.518 37.3115 149.597 36.8242C149.622 36.6702 149.726 36.6213 149.885 36.6266C150.233 36.6389 150.582 36.6306 150.93 36.6306C151.441 36.6306 151.45 36.6274 151.627 37.1145C151.694 37.2966 151.782 37.3741 151.981 37.3624C152.266 37.3458 152.553 37.3579 152.886 37.3579C152.83 37.21 152.795 37.1054 152.752 37.0032C152.329 35.9972 151.904 34.9916 151.482 33.9854C151.151 33.1952 151.152 33.201 150.291 33.2018ZM150.566 34.358C150.753 34.8423 150.907 35.245 151.064 35.647C151.112 35.7726 151.038 35.7814 150.944 35.7811C150.649 35.7799 150.354 35.7806 150.012 35.7806C150.195 35.312 150.364 34.876 150.566 34.358Z" fill="#BC955B"/>
<path d="M96.1552 46.7925C95.9628 46.792 95.8665 46.8489 95.792 47.0294C95.5163 47.6991 95.2208 48.3607 94.935 49.0262C94.6701 49.643 94.4077 50.2608 94.126 50.9207C94.3486 50.9207 94.5295 50.9209 94.7103 50.9207C95.2367 50.9207 95.2394 50.9217 95.4428 50.4339C95.4981 50.3008 95.5566 50.2106 95.7264 50.2144C96.1975 50.2244 96.6687 50.2213 97.1398 50.2154C97.2763 50.2139 97.366 50.2683 97.3829 50.394C97.4518 50.9002 97.7775 50.9899 98.2119 50.9222C98.2918 50.9097 98.3764 50.9125 98.457 50.9222C98.7029 50.9521 98.7545 50.8895 98.6487 50.6464C98.2053 49.6271 97.7795 48.6001 97.3489 47.5752C97.0184 46.7881 97.0194 46.794 96.1552 46.7925ZM96.4323 47.9378C96.6083 48.3927 96.7585 48.7927 96.9181 49.1888C96.9737 49.3265 96.94 49.3749 96.7951 49.3729C96.5494 49.3685 96.303 49.3693 96.0571 49.3724C95.9352 49.3739 95.8801 49.3291 95.928 49.2073C96.0879 48.8014 96.2502 48.3962 96.4323 47.9378Z" fill="#BC955B"/>
<path d="M87.376 46.7925C87.1839 46.7923 87.082 46.8502 87.0083 47.029C86.748 47.6605 86.4728 48.2855 86.2033 48.9135C85.9228 49.5673 85.6425 50.2214 85.3428 50.9207C85.5907 50.9207 85.7771 50.9012 85.9576 50.9247C86.3326 50.9732 86.5836 50.8762 86.6526 50.4638C86.6759 50.3259 86.7463 50.2078 86.9417 50.2134C87.4123 50.2277 87.8833 50.221 88.3541 50.2159C88.4883 50.2144 88.5755 50.2622 88.5962 50.394C88.6731 50.8841 88.9846 50.9996 89.4252 50.9228C89.4949 50.9105 89.5694 50.9136 89.6398 50.9222C89.9108 50.9557 89.9743 50.8895 89.8545 50.6155C89.4136 49.6072 88.9972 48.5879 88.5702 47.5732C88.2395 46.7871 88.239 46.7935 87.376 46.7925ZM87.6491 47.9333C87.829 48.3991 87.9894 48.8112 88.1469 49.2252C88.1882 49.3333 88.1331 49.3724 88.0289 49.3719C87.7745 49.3704 87.5203 49.3688 87.2659 49.3724C87.1004 49.3747 87.1117 49.2923 87.1579 49.1774C87.3156 48.7833 87.4701 48.3876 87.6491 47.9333Z" fill="#BC955B"/>
<path d="M77.4346 46.791C77.22 46.7895 77.1352 46.8708 77.0579 47.0539C76.5984 48.1431 76.1263 49.227 75.6581 50.3126C75.3955 50.921 75.3961 50.897 76.0513 50.9297C76.4135 50.9478 76.6321 50.8611 76.6997 50.4882C76.7381 50.2757 76.8705 50.1999 77.0949 50.2124C77.4622 50.2326 77.8348 50.247 78.1991 50.2084C78.4998 50.1765 78.6633 50.254 78.7164 50.5541C78.7697 50.8562 78.9491 50.983 79.2567 50.9222C79.3059 50.9125 79.3588 50.9207 79.4098 50.9207H79.6554C80.0281 50.9199 80.0306 50.9191 79.8926 50.59C79.4715 49.5845 79.0495 48.5793 78.6268 47.5746C78.2959 46.7878 78.295 46.7969 77.4346 46.791ZM77.7028 47.9343C77.8864 48.4037 78.0408 48.7992 78.1961 49.1948C78.2445 49.3176 78.228 49.3813 78.072 49.3749C77.8374 49.3649 77.6015 49.3636 77.3671 49.3749C77.1942 49.3831 77.1483 49.3382 77.218 49.1699C77.3765 48.7847 77.523 48.395 77.7028 47.9343Z" fill="#BC955B"/>
<path d="M155.546 46.791C155.31 46.7877 155.209 46.8755 155.123 47.0808C154.657 48.1887 154.176 49.2899 153.702 50.394C153.476 50.9201 153.478 50.9207 154.063 50.9207C154.592 50.9207 154.6 50.924 154.795 50.4344C154.863 50.2625 154.959 50.2098 155.136 50.2139C155.586 50.2233 156.037 50.2188 156.487 50.2094C156.605 50.2068 156.697 50.2206 156.716 50.3486C156.797 50.9012 157.161 50.9909 157.635 50.9237C157.774 50.904 157.918 50.9207 158.11 50.9207C157.623 49.7597 157.159 48.6531 156.694 47.5467C156.377 46.7931 156.376 46.803 155.546 46.791ZM155.784 47.9343C155.98 48.4433 156.152 48.8897 156.338 49.3719C156.006 49.3719 155.722 49.3636 155.438 49.3754C155.253 49.3828 155.232 49.3202 155.296 49.1649C155.454 48.7815 155.602 48.3943 155.784 47.9343Z" fill="#BC955B"/>
<path fill-rule="evenodd" clip-rule="evenodd" d="M130.101 36.0972C130.101 36.1993 130.101 36.3015 130.101 36.4036C130.101 36.9704 130.1 36.9681 129.554 37.1892C128.949 37.4344 128.329 37.5192 127.694 37.3348C126.702 37.047 126.104 36.1748 126.167 35.1272C126.223 34.1794 126.959 33.379 127.939 33.2013C128.668 33.0687 129.336 33.222 129.961 33.6132C130.152 33.7332 130.157 33.8293 130.007 33.984C129.857 34.1378 129.76 34.3692 129.584 34.4614C129.374 34.572 129.246 34.2816 129.051 34.2142C128.567 34.0464 128.107 34.0116 127.693 34.3659C127.299 34.703 127.233 35.1578 127.338 35.6262C127.444 36.0944 127.771 36.3771 128.244 36.4813C128.528 36.5436 128.789 36.456 129.049 36.3544C129.155 36.3127 129.174 36.2371 129.172 36.137C129.168 35.9125 129.178 35.6873 129.168 35.463C129.161 35.3026 129.196 35.2299 129.384 35.2237C130.102 35.2007 130.101 35.1933 130.101 35.9128C130.101 35.9748 130.101 36.0359 130.101 36.0972Z" fill="#BC955B"/>
<path fill-rule="evenodd" clip-rule="evenodd" d="M119.132 33.1339C119.645 33.1471 120.123 33.2728 120.578 33.5016C120.717 33.5711 120.751 33.6449 120.673 33.7848C120.56 33.9892 120.512 34.2762 120.343 34.3906C120.164 34.512 119.95 34.2578 119.74 34.1963C119.465 34.1156 119.194 34.0236 118.901 34.0492C118.758 34.0614 118.637 34.1061 118.597 34.2578C118.558 34.408 118.637 34.5158 118.755 34.5929C118.955 34.7232 119.19 34.7663 119.412 34.8432C119.614 34.9134 119.823 34.9671 120.019 35.0511C120.443 35.2327 120.722 35.5315 120.749 36.018C120.779 36.5495 120.574 36.9492 120.096 37.199C119.329 37.5997 117.923 37.4183 117.282 36.8355C117.246 36.8026 117.186 36.7431 117.195 36.7221C117.312 36.4626 117.43 36.2024 117.572 35.9562C117.618 35.8763 117.695 35.9736 117.747 36.0106C118.059 36.2315 118.396 36.395 118.77 36.4821C118.943 36.5222 119.117 36.5308 119.288 36.5004C119.432 36.4749 119.562 36.4144 119.59 36.241C119.615 36.076 119.539 35.9639 119.405 35.886C119.2 35.7662 118.964 35.7281 118.742 35.6525C118.52 35.5772 118.291 35.5177 118.08 35.4191C117.289 35.0503 117.19 34.0098 117.889 33.4814C118.258 33.2025 118.689 33.1415 119.132 33.1339Z" fill="#BC955B"/>
<path fill-rule="evenodd" clip-rule="evenodd" d="M172.218 39.9324C172.73 39.9237 173.205 40.0629 173.663 40.2813C173.819 40.3556 173.848 40.4348 173.763 40.5852C173.648 40.788 173.603 41.0835 173.434 41.1874C173.268 41.2891 173.042 41.0477 172.831 40.9818C172.587 40.9052 172.345 40.8266 172.084 40.8396C171.919 40.848 171.738 40.8424 171.699 41.0577C171.662 41.2699 171.805 41.382 171.975 41.4446C172.301 41.5644 172.634 41.664 172.962 41.7774C173.354 41.9127 173.679 42.1245 173.803 42.5523C174.023 43.3123 173.568 44.0029 172.721 44.1564C171.923 44.3009 171.179 44.1403 170.492 43.7069C170.313 43.5943 170.256 43.4806 170.379 43.288C170.493 43.1085 170.541 42.8294 170.697 42.7507C170.836 42.6805 171.02 42.9346 171.201 43.0209C171.527 43.1764 171.856 43.312 172.222 43.309C172.422 43.3072 172.632 43.2727 172.686 43.0408C172.746 42.7834 172.549 42.6708 172.352 42.6C172.016 42.4795 171.668 42.3934 171.332 42.2723C170.797 42.079 170.549 41.7544 170.536 41.2692C170.521 40.7047 170.771 40.3147 171.29 40.0913C171.571 39.9702 171.807 39.9299 172.218 39.9324Z" fill="#BC955B"/>
<path fill-rule="evenodd" clip-rule="evenodd" d="M76.089 33.1356C76.5996 33.1392 77.0778 33.2687 77.5363 33.4898C77.6856 33.5619 77.732 33.64 77.6495 33.7938C77.5386 34.0004 77.4928 34.2918 77.3239 34.4031C77.1526 34.5155 76.9361 34.2611 76.7266 34.1991C76.4515 34.1176 76.1813 34.0223 75.8872 34.0507C75.7468 34.0642 75.6159 34.1023 75.5747 34.2514C75.5299 34.4134 75.6167 34.5347 75.755 34.6026C75.9097 34.6787 76.0742 34.7385 76.2386 34.7916C76.5207 34.8823 76.8083 34.9558 77.0755 35.0876C77.4625 35.2786 77.6959 35.5698 77.7243 36.0152C77.7556 36.5083 77.5909 36.9029 77.1569 37.1535C76.5934 37.4786 75.9843 37.4829 75.37 37.3422C74.9894 37.2551 74.632 37.1019 74.3093 36.8748C74.1963 36.7954 74.1341 36.7259 74.2227 36.5796C74.3439 36.3799 74.3915 36.0795 74.5626 35.9807C74.744 35.8762 74.9154 36.1779 75.1169 36.2586C75.4502 36.3916 75.7755 36.5423 76.1482 36.5147C76.3426 36.5002 76.5319 36.4616 76.5719 36.2394C76.6119 36.0182 76.4533 35.8977 76.2724 35.8331C75.8977 35.6995 75.5119 35.5961 75.1395 35.4564C74.8114 35.3335 74.5578 35.1193 74.4558 34.763C74.2926 34.195 74.5229 33.6467 75.0516 33.3637C75.3746 33.1908 75.7248 33.1308 76.089 33.1356Z" fill="#BC955B"/>
<path fill-rule="evenodd" clip-rule="evenodd" d="M74.8528 44.1995C74.2416 44.199 73.6871 44.0202 73.176 43.6892C73.0249 43.5912 72.9501 43.5089 73.0672 43.3279C73.1881 43.1407 73.2311 42.8467 73.3943 42.7591C73.5549 42.673 73.7357 42.9473 73.9271 43.0324C74.2368 43.17 74.5452 43.3084 74.8907 43.309C75.1092 43.3092 75.3428 43.2898 75.3902 43.0132C75.4353 42.7494 75.2278 42.6587 75.0319 42.591C74.704 42.4777 74.3651 42.3946 74.0403 42.2741C73.4762 42.0647 73.2275 41.7122 73.2355 41.1782C73.2431 40.6577 73.5452 40.2363 74.081 40.0616C74.8823 39.8009 75.653 39.9237 76.3959 40.2953C76.5211 40.3579 76.5588 40.4228 76.4871 40.5556C76.3756 40.7614 76.3323 41.0462 76.1648 41.1682C75.9663 41.3136 75.7565 41.0426 75.5416 40.9798C75.2647 40.8991 74.9927 40.8189 74.7007 40.8424C74.5582 40.8536 74.4348 40.8983 74.4002 41.0531C74.3666 41.203 74.445 41.3072 74.5685 41.3823C74.7898 41.5166 75.0431 41.5672 75.2837 41.6509C75.4663 41.7145 75.6548 41.7648 75.8316 41.842C76.2811 42.0381 76.5475 42.3632 76.5565 42.8758C76.566 43.4175 76.3149 43.7876 75.8387 44.0195C75.5278 44.1707 75.1914 44.1964 74.8528 44.1995Z" fill="#BC955B"/>
<path fill-rule="evenodd" clip-rule="evenodd" d="M108.286 44.1947C107.769 44.186 107.225 44.0019 106.727 43.6732C106.595 43.5866 106.546 43.5044 106.637 43.3521C106.752 43.1601 106.795 42.8728 106.958 42.776C107.154 42.6595 107.313 42.9596 107.511 43.0403C107.834 43.1718 108.15 43.3182 108.508 43.3092C108.72 43.3039 108.941 43.262 108.982 43.0117C109.021 42.7729 108.827 42.6708 108.64 42.6049C108.303 42.4864 107.956 42.3975 107.622 42.2728C107.071 42.0667 106.808 41.7118 106.804 41.2102C106.8 40.7101 107.088 40.2706 107.599 40.0846C108.428 39.7833 109.228 39.9176 109.998 40.3112C110.095 40.361 110.14 40.4246 110.07 40.5293C110.059 40.5459 110.056 40.5676 110.047 40.586C109.948 40.7872 109.898 41.0533 109.738 41.1726C109.54 41.3192 109.348 41.0457 109.142 40.9882C108.865 40.9111 108.595 40.8189 108.302 40.8416C108.151 40.8534 108.009 40.8855 107.971 41.0562C107.933 41.2247 108.047 41.3251 108.174 41.3991C108.369 41.5136 108.591 41.5613 108.805 41.6293C108.999 41.6908 109.193 41.757 109.382 41.8338C109.849 42.0244 110.123 42.3513 110.132 42.8789C110.141 43.4206 109.899 43.7968 109.414 44.0177C109.083 44.1679 108.733 44.232 108.286 44.1947Z" fill="#BC955B"/>
<path fill-rule="evenodd" clip-rule="evenodd" d="M114.773 39.9335C115.275 39.9181 115.741 40.0532 116.191 40.2629C116.362 40.3423 116.431 40.4271 116.32 40.6115C116.205 40.8023 116.163 41.0832 116 41.1859C115.836 41.2901 115.626 41.0528 115.426 40.991C115.152 40.907 114.881 40.8186 114.588 40.8398C114.434 40.8508 114.294 40.8896 114.257 41.0564C114.221 41.2199 114.325 41.3376 114.458 41.3981C114.662 41.4898 114.878 41.5542 115.089 41.629C115.291 41.7003 115.498 41.7605 115.696 41.8428C116.153 42.033 116.413 42.3717 116.423 42.8758C116.432 43.3813 116.212 43.7582 115.757 43.9901C114.985 44.3837 113.58 44.1978 112.943 43.6201C112.907 43.5866 112.838 43.5549 112.861 43.5059C112.981 43.2474 113.101 42.988 113.245 42.7428C113.294 42.6595 113.369 42.764 113.419 42.8002C113.755 43.0436 114.124 43.2114 114.53 43.2934C114.9 43.3677 115.244 43.251 115.261 43.0273C115.287 42.6695 114.979 42.621 114.735 42.5354C114.437 42.4309 114.125 42.3635 113.832 42.2466C113.418 42.0805 113.138 41.7978 113.107 41.3154C113.075 40.8036 113.273 40.4236 113.71 40.1669C114.037 39.9751 114.398 39.9194 114.773 39.9335Z" fill="#BC955B"/>
<path fill-rule="evenodd" clip-rule="evenodd" d="M145.142 39.9339C145.645 39.9153 146.11 40.0552 146.562 40.2606C146.732 40.3377 146.803 40.4245 146.693 40.6094C146.578 40.801 146.536 41.0814 146.374 41.1859C146.208 41.2924 146 41.0546 145.8 40.9905C145.516 40.8993 145.234 40.8181 144.931 40.8429C144.787 40.8549 144.665 40.9031 144.628 41.0536C144.591 41.205 144.683 41.3092 144.8 41.3818C145.001 41.5074 145.236 41.5518 145.457 41.6285C145.669 41.7018 145.886 41.7641 146.092 41.8522C146.538 42.0427 146.785 42.3883 146.798 42.872C146.811 43.3608 146.597 43.739 146.16 43.9745C145.394 44.3877 143.966 44.2074 143.318 43.6221C143.28 43.5884 143.214 43.5557 143.236 43.5077C143.355 43.2489 143.473 42.9887 143.616 42.743C143.665 42.6587 143.739 42.7647 143.789 42.8005C144.109 43.0296 144.458 43.192 144.842 43.2768C144.892 43.2878 144.942 43.2993 144.993 43.3046C145.337 43.3419 145.611 43.2336 145.634 43.027C145.67 42.697 145.398 42.6378 145.168 42.5594C144.849 42.4516 144.52 42.3699 144.208 42.2463C143.791 42.082 143.513 41.8001 143.481 41.3171C143.447 40.8056 143.64 40.4248 144.08 40.1686C144.408 39.9784 144.767 39.9184 145.142 39.9339Z" fill="#BC955B"/>
<path fill-rule="evenodd" clip-rule="evenodd" d="M121.053 50.9902C120.418 50.9956 119.848 50.7994 119.32 50.4575C119.183 50.3686 119.144 50.2899 119.231 50.1413C119.345 49.9485 119.39 49.6629 119.553 49.5649C119.754 49.4448 119.913 49.7475 120.113 49.8287C120.446 49.964 120.772 50.1196 121.139 50.095C121.331 50.0823 121.55 50.0399 121.576 49.7916C121.6 49.5544 121.417 49.4522 121.227 49.3879C120.888 49.2734 120.539 49.1884 120.205 49.0625C119.54 48.8114 119.266 48.271 119.462 47.6259C119.589 47.2086 119.894 46.9552 120.294 46.8332C121.087 46.5905 121.849 46.7164 122.578 47.0898C122.587 47.0944 122.6 47.097 122.604 47.1046C122.8 47.4433 122.44 47.6333 122.385 47.9066C122.349 48.0833 122.229 48.0077 122.128 47.9548C121.836 47.8031 121.531 47.6875 121.205 47.6361C121.104 47.6203 121 47.6067 120.9 47.6165C120.754 47.6305 120.61 47.6762 120.572 47.8425C120.533 48.0098 120.636 48.127 120.77 48.186C121.003 48.2884 121.248 48.3635 121.489 48.4485C121.652 48.5062 121.82 48.5535 121.98 48.6189C122.493 48.8278 122.723 49.1662 122.723 49.6969C122.723 50.2281 122.468 50.6201 121.981 50.8201C121.84 50.8783 121.692 50.9281 121.542 50.9547C121.382 50.9831 121.216 50.9795 121.053 50.9902Z" fill="#BC955B"/>
<path fill-rule="evenodd" clip-rule="evenodd" d="M147.407 46.718C147.92 46.7157 148.395 46.8516 148.853 47.0748C148.995 47.1445 149.026 47.2201 148.954 47.358C148.845 47.5654 148.798 47.8499 148.629 47.9686C148.452 48.0938 148.242 47.8346 148.033 47.7771C147.778 47.7071 147.531 47.6004 147.26 47.6124C147.094 47.6195 146.919 47.6417 146.875 47.8435C146.832 48.044 146.973 48.1543 147.127 48.2136C147.517 48.3635 147.923 48.4736 148.309 48.634C149.015 48.9282 149.259 49.7485 148.843 50.366C148.596 50.7338 148.221 50.9018 147.81 50.958C147.034 51.0643 146.305 50.911 145.643 50.4766C145.488 50.3755 145.435 50.2807 145.543 50.1078C145.656 49.927 145.696 49.6494 145.851 49.5598C146.035 49.4538 146.195 49.7321 146.382 49.8131C146.731 49.964 147.077 50.1247 147.467 50.0905C147.643 50.0749 147.845 50.0401 147.869 49.7937C147.892 49.561 147.729 49.4584 147.555 49.3953C147.161 49.2528 146.747 49.1616 146.365 48.9958C145.68 48.6981 145.484 47.854 145.943 47.2745C146.198 46.9524 146.551 46.8007 146.948 46.7456C147.099 46.7249 147.254 46.7269 147.407 46.718Z" fill="#BC955B"/>
<path fill-rule="evenodd" clip-rule="evenodd" d="M96.4959 39.9403C96.9424 39.9577 97.4562 40.1429 97.9047 40.5216C98.0341 40.6309 98.041 40.6994 97.9273 40.8056C97.8981 40.8329 97.8781 40.8705 97.8515 40.9014C97.7195 41.0572 97.615 41.2819 97.4473 41.3483C97.2759 41.4163 97.1647 41.1504 97.0036 41.0592C96.4928 40.7709 95.9775 40.8163 95.6007 41.2079C95.2159 41.6078 95.166 42.2902 95.4867 42.7642C95.7812 43.1994 96.3181 43.3463 96.8435 43.1345C96.9001 43.1116 96.957 43.0876 97.009 43.0561C97.1527 42.9696 97.3707 42.7714 97.4227 42.8084C97.643 42.9645 97.8151 43.1889 98.0013 43.3917C98.0595 43.4548 98.0082 43.4998 97.9601 43.5419C97.3317 44.091 96.615 44.3612 95.7818 44.1589C95.0105 43.9717 94.4833 43.4954 94.2472 42.7267C93.8045 41.285 94.8225 39.9449 96.4959 39.9403Z" fill="#BC955B"/>
<path fill-rule="evenodd" clip-rule="evenodd" d="M122.525 42.0534C122.526 41.1933 123.017 40.4312 123.794 40.1278C124.701 39.7738 125.536 39.9143 126.291 40.5315C126.406 40.6258 126.414 40.7027 126.307 40.8023C126.263 40.8436 126.227 40.8942 126.188 40.9415C126.07 41.0827 125.979 41.2824 125.829 41.3503C125.635 41.4382 125.556 41.169 125.407 41.0806C124.873 40.7652 124.354 40.8058 123.959 41.229C123.583 41.6305 123.539 42.3001 123.857 42.7586C124.176 43.218 124.736 43.36 125.271 43.1169C125.308 43.1003 125.342 43.0753 125.38 43.0612C125.543 43.0009 125.684 42.7402 125.8 42.8081C126.02 42.9368 126.177 43.1744 126.358 43.3677C126.447 43.4617 126.357 43.5105 126.303 43.5664C125.72 44.1714 124.664 44.3862 123.855 44.0644C123.021 43.7332 122.524 42.9813 122.525 42.0534Z" fill="#BC955B"/>
<path fill-rule="evenodd" clip-rule="evenodd" d="M86.6494 40.0019C86.9729 40.0019 87.2501 40.018 87.5244 39.9968C87.7496 39.9797 87.8497 40.0655 87.9181 40.2731C88.1738 41.0472 88.4461 41.8159 88.7127 42.5867C88.7447 42.6794 88.7814 42.7706 88.8441 42.9384C89.0439 42.373 89.2191 41.8798 89.3928 41.3864C89.5314 40.9923 89.6764 40.6 89.8024 40.2016C89.8513 40.0463 89.9282 39.9927 90.0875 39.9988C90.3734 40.0098 90.66 40.0019 90.9435 40.0019C91.0027 40.0984 90.9361 40.1671 90.9097 40.2343C90.4356 41.4505 89.953 42.6631 89.4858 43.8816C89.4164 44.0629 89.3254 44.1303 89.1364 44.1446C88.275 44.211 88.2762 44.2156 87.9689 43.427C87.558 42.3725 87.1456 41.3184 86.735 40.2642C86.706 40.1904 86.6853 40.1127 86.6494 40.0019Z" fill="#BC955B"/>
<path fill-rule="evenodd" clip-rule="evenodd" d="M66.3885 40.0022C66.6918 40.0022 66.9959 40.0091 67.2994 39.9991C67.4477 39.9942 67.4882 40.0944 67.5422 40.1914C67.824 40.6978 68.1052 41.2048 68.4111 41.7554C68.699 41.2252 68.9728 40.7385 69.2272 40.2417C69.3176 40.0655 69.4178 39.9804 69.6263 39.9968C69.8865 40.0175 70.1496 40.0019 70.4624 40.0019C70.144 40.6028 69.8491 41.1586 69.5546 41.7146C69.521 41.7777 69.4936 41.8448 69.4529 41.9025C69.0479 42.4769 68.8904 43.1129 68.9777 43.8078C69.0084 44.0527 68.9249 44.1482 68.6652 44.1541C67.8696 44.1727 67.856 44.1819 67.8755 43.3892C67.8847 43.0186 67.8004 42.6986 67.616 42.3766C67.221 41.6867 66.8573 40.9788 66.4833 40.277C66.4413 40.1993 66.3749 40.1276 66.3885 40.0022Z" fill="#BC955B"/>
<path fill-rule="evenodd" clip-rule="evenodd" d="M93.3824 48.3512C93.3824 48.7289 93.3831 49.1069 93.3824 49.4846C93.3806 50.5535 92.6772 51.1398 91.6126 50.9585C91.2179 50.8911 90.8775 50.72 90.5942 50.4329C90.5068 50.3443 90.483 50.2695 90.5655 50.1711C90.5916 50.14 90.6121 50.104 90.6349 50.0703C90.7384 49.9183 90.8104 49.7025 90.9541 49.631C91.1336 49.5418 91.2346 49.8011 91.3875 49.8841C91.9482 50.1882 92.2753 50.0077 92.2756 49.3733C92.2756 48.8934 92.2699 48.4133 92.2784 47.9334C92.2814 47.7625 92.2266 47.6953 92.0501 47.7015C91.7433 47.7117 91.4356 47.6966 91.1282 47.7068C90.943 47.7127 90.8562 47.6759 90.8554 47.4573C90.8529 46.7966 90.8421 46.7966 91.5091 46.7966C92.0417 46.7966 92.5745 46.805 93.1067 46.7923C93.3163 46.7872 93.3952 46.8431 93.387 47.0638C93.3708 47.4928 93.3824 47.9221 93.3824 48.3512Z" fill="#BC955B"/>
<path fill-rule="evenodd" clip-rule="evenodd" d="M80.2649 33.2066C80.7767 33.2066 81.2882 33.2151 81.7995 33.202C81.9916 33.1969 82.0439 33.2723 82.0585 33.4462C82.1154 34.1179 82.1197 34.1176 81.4545 34.1176C80.7967 34.1176 80.7967 34.1176 80.7967 34.765C80.7967 35.5402 80.7892 36.3155 80.8013 37.0904C80.8049 37.3085 80.7331 37.3626 80.5223 37.3626C79.7021 37.3632 79.7021 37.3703 79.7021 36.5449C79.7021 35.8206 79.6954 35.0963 79.7065 34.3722C79.7096 34.1705 79.6473 34.102 79.4465 34.1138C79.1914 34.1286 78.9347 34.1092 78.6793 34.1199C78.5151 34.1268 78.4757 34.0612 78.469 33.9064C78.4385 33.2059 78.4337 33.2059 79.1294 33.2059C79.5077 33.2064 79.8863 33.2064 80.2649 33.2066Z" fill="#BC955B"/>
<path fill-rule="evenodd" clip-rule="evenodd" d="M86.967 33.2066C87.4685 33.2066 87.9703 33.2127 88.4719 33.203C88.6494 33.1997 88.7216 33.2383 88.7242 33.4372C88.7337 34.1176 88.7424 34.1176 88.0664 34.1176C87.4811 34.1176 87.4811 34.1176 87.4811 34.7145C87.4811 35.5105 87.4752 36.3066 87.4854 37.1029C87.488 37.3042 87.4265 37.3611 87.2252 37.3631C86.3827 37.3713 86.3827 37.3782 86.3827 36.5267C86.3827 35.8121 86.374 35.0975 86.3878 34.3832C86.3922 34.1649 86.3256 34.099 86.1119 34.1135C85.8573 34.1311 85.6002 34.1112 85.3445 34.1199C85.198 34.125 85.1578 34.0711 85.1493 33.9271C85.1086 33.2064 85.104 33.2066 85.8304 33.2066C86.2095 33.2066 86.5884 33.2066 86.967 33.2066Z" fill="#BC955B"/>
<path fill-rule="evenodd" clip-rule="evenodd" d="M96.1489 33.2066C96.6507 33.2066 97.1527 33.2146 97.6543 33.2023C97.8405 33.1977 97.9035 33.2605 97.9191 33.4411C97.9783 34.1181 97.9834 34.1176 97.3185 34.1176C96.6896 34.1176 96.6899 34.1176 96.6896 34.7359C96.6896 35.5019 96.684 36.2678 96.6927 37.0337C96.6955 37.2761 96.623 37.3688 96.361 37.3644C95.5956 37.3517 95.5953 37.3634 95.5953 36.5998C95.5953 35.8645 95.5887 35.129 95.5997 34.394C95.6028 34.1884 95.5582 34.0862 95.3318 34.1148C95.2109 34.1304 95.0856 34.1253 94.9634 34.1158C94.7728 34.1008 94.498 34.2106 94.4099 34.0665C94.2836 33.8592 94.3651 33.5713 94.373 33.3182C94.3781 33.1599 94.5208 33.2092 94.6125 33.2084C95.1245 33.2043 95.6366 33.2066 96.1489 33.2066Z" fill="#BC955B"/>
<path fill-rule="evenodd" clip-rule="evenodd" d="M151.548 46.7974C152.07 46.7974 152.591 46.803 153.113 46.7943C153.285 46.7913 153.338 46.8462 153.343 47.0199C153.364 47.7048 153.37 47.7048 152.683 47.7048C152.11 47.7048 152.11 47.7048 152.11 48.2902C152.11 49.086 152.105 49.8815 152.113 50.6776C152.115 50.8589 152.067 50.9218 151.874 50.9258C151.003 50.9447 151.003 50.9514 151.003 50.0856C151.003 49.3815 150.995 48.6774 151.008 47.9738C151.011 47.7559 150.939 47.6798 150.727 47.7023C150.606 47.7155 150.481 47.7166 150.36 47.702C150.174 47.6798 149.9 47.8085 149.823 47.6239C149.736 47.4145 149.786 47.1435 149.796 46.9001C149.801 46.764 149.928 46.8082 150.013 46.7977C150.023 46.7964 150.033 46.7975 150.043 46.7975C150.545 46.7975 151.046 46.7974 151.548 46.7974Z" fill="#BC955B"/>
<path fill-rule="evenodd" clip-rule="evenodd" d="M68.1923 46.7974C68.7046 46.7974 69.2166 46.8046 69.7287 46.7936C69.9152 46.7895 69.9715 46.8449 69.9738 47.0342C69.9815 47.7046 69.9892 47.7046 69.3316 47.7046C68.7394 47.7046 68.7394 47.7046 68.7394 48.2981C68.7394 49.074 68.7287 49.8504 68.7458 50.6263C68.7515 50.8773 68.6664 50.9284 68.4341 50.9258C67.6413 50.9174 67.6413 50.9258 67.6413 50.128C67.6413 49.5562 67.6413 48.9841 67.6413 48.4123C67.6413 47.7046 67.6413 47.7051 66.9458 47.7041C66.8334 47.7041 66.7207 47.6984 66.6082 47.6966C66.474 47.6941 66.4179 47.6399 66.4079 47.4933C66.3603 46.7966 66.3549 46.7971 67.056 46.7971C67.4343 46.7974 67.8132 46.7974 68.1923 46.7974Z" fill="#BC955B"/>
<path fill-rule="evenodd" clip-rule="evenodd" d="M161.343 42.0233C161.343 41.442 161.351 40.8605 161.339 40.2797C161.335 40.0762 161.378 39.9758 161.606 39.9991C161.868 40.0259 162.206 39.8943 162.377 40.0494C162.553 40.2087 162.432 40.5497 162.435 40.8102C162.444 41.5036 162.447 42.1972 162.433 42.8904C162.428 43.1218 162.479 43.2165 162.734 43.2037C163.152 43.182 163.572 43.2027 163.991 43.1956C164.147 43.1925 164.211 43.2403 164.207 43.4037C164.182 44.292 164.347 44.1359 163.505 44.1482C162.871 44.1574 162.238 44.1436 161.604 44.1535C161.402 44.1566 161.337 44.0884 161.34 43.8892C161.35 43.2673 161.343 42.6449 161.343 42.0233Z" fill="#BC955B"/>
<path fill-rule="evenodd" clip-rule="evenodd" d="M135.063 42.0542C135.063 41.4627 135.071 40.8707 135.059 40.2792C135.055 40.0772 135.097 39.9965 135.324 39.9965C136.158 39.9955 136.158 39.9868 136.158 40.8117C136.158 41.5261 136.163 42.2401 136.154 42.9542C136.152 43.1373 136.206 43.2063 136.397 43.2014C136.826 43.1897 137.256 43.203 137.686 43.1956C137.84 43.1928 137.896 43.2357 137.904 43.4004C137.938 44.1505 137.944 44.1502 137.189 44.1502C136.565 44.1502 135.941 44.1433 135.317 44.1543C135.114 44.1579 135.055 44.0905 135.059 43.891C135.071 43.2786 135.063 42.6661 135.063 42.0542Z" fill="#BC955B"/>
<path fill-rule="evenodd" clip-rule="evenodd" d="M135.388 48.8589C135.388 48.2575 135.395 47.6555 135.384 47.0541C135.38 46.8569 135.437 46.7946 135.642 46.7923C136.495 46.7828 136.495 46.7757 136.495 47.6188C136.495 48.3124 136.507 49.006 136.488 49.6992C136.482 49.9513 136.568 50.0082 136.801 49.998C137.189 49.9809 137.579 50.0046 137.967 49.9888C138.184 49.9799 138.271 50.0246 138.268 50.2687C138.257 50.921 138.27 50.9212 137.606 50.9212C136.951 50.9212 136.297 50.9136 135.642 50.9256C135.437 50.9297 135.381 50.862 135.384 50.6646C135.395 50.0626 135.388 49.4609 135.388 48.8589Z" fill="#BC955B"/>
<path fill-rule="evenodd" clip-rule="evenodd" d="M67.8777 35.3011C67.8777 35.9031 67.8692 36.5053 67.8823 37.107C67.8869 37.3136 67.817 37.3746 67.62 37.3611C67.4061 37.3465 67.1899 37.3491 66.9755 37.3606C66.8098 37.369 66.768 37.3 66.7688 37.1458C66.7734 35.901 66.7737 34.656 66.7686 33.4112C66.7678 33.2477 66.827 33.2092 66.9824 33.2028C67.878 33.1655 67.8777 33.1614 67.8777 34.0461C67.8777 34.4644 67.8777 34.883 67.8777 35.3011Z" fill="#BC955B"/>
<path fill-rule="evenodd" clip-rule="evenodd" d="M141.228 35.2835C141.228 34.6716 141.233 34.0599 141.224 33.4485C141.221 33.2643 141.275 33.2056 141.465 33.2015C142.334 33.1836 142.334 33.1773 142.334 34.0425C142.334 35.0518 142.328 36.0609 142.34 37.07C142.342 37.2962 142.284 37.3652 142.05 37.3637C141.228 37.3588 141.228 37.3683 141.228 36.537C141.228 36.1191 141.228 35.7013 141.228 35.2835Z" fill="#BC955B"/>
<path fill-rule="evenodd" clip-rule="evenodd" d="M91.9359 42.0639C91.9359 41.4612 91.9428 40.8582 91.9318 40.2558C91.928 40.056 91.9887 39.9978 92.1923 39.9968C93.0304 39.9919 93.0302 39.9848 93.0302 40.8074C93.0302 41.829 93.0253 42.8506 93.0346 43.8721C93.0364 44.0787 92.9856 44.1541 92.7635 44.1548C91.9357 44.1592 91.9359 44.1674 91.9359 43.3511C91.9359 42.9221 91.9359 42.4927 91.9359 42.0639Z" fill="#BC955B"/>
<path fill-rule="evenodd" clip-rule="evenodd" d="M99.0671 42.0553C99.0671 41.4628 99.0748 40.87 99.0628 40.2777C99.0584 40.0711 99.1073 39.9754 99.3325 39.9989C99.5948 40.0264 99.9342 39.8924 100.104 40.0517C100.276 40.2136 100.157 40.5541 100.159 40.8156C100.166 41.827 100.157 42.8383 100.166 43.8497C100.168 44.0612 100.135 44.1567 99.8863 44.1559C99.0672 44.1531 99.0671 44.1638 99.0671 43.3422C99.0671 42.9137 99.0671 42.4843 99.0671 42.0553Z" fill="#BC955B"/>
<path fill-rule="evenodd" clip-rule="evenodd" d="M128.547 42.0752C128.547 42.6764 128.538 43.2778 128.553 43.879C128.558 44.0877 128.472 44.137 128.289 44.15C127.449 44.2097 127.449 44.2131 127.449 43.3784C127.449 42.339 127.454 41.2993 127.445 40.2601C127.444 40.0685 127.487 39.9986 127.696 39.997C128.548 39.9909 128.548 39.983 128.548 40.8219C128.548 41.2393 128.548 41.6571 128.548 42.0752H128.547Z" fill="#BC955B"/>
<path fill-rule="evenodd" clip-rule="evenodd" d="M84.1484 35.2942C84.1484 35.886 84.1426 36.4777 84.1515 37.0689C84.1548 37.2906 84.0816 37.3649 83.85 37.3639C83.0539 37.3598 83.0539 37.3693 83.0539 36.5709C83.0539 35.5409 83.059 34.5107 83.0498 33.4801C83.048 33.2717 83.1016 33.1824 83.3221 33.203C83.5048 33.2199 83.6912 33.2199 83.8739 33.203C84.1008 33.1818 84.1531 33.2894 84.1508 33.4888C84.1442 34.0905 84.1484 34.6922 84.1484 35.2942Z" fill="#BC955B"/>
<path fill-rule="evenodd" clip-rule="evenodd" d="M53.7997 39.8793C53.6898 39.6704 53.7283 39.5197 53.9701 39.449C53.9099 39.5912 53.9035 39.7544 53.7997 39.8793Z" fill="#DCC5A0"/>
<path fill-rule="evenodd" clip-rule="evenodd" d="M57.7424 31.0021C57.6755 30.8583 57.5185 30.6818 57.8582 30.6854C57.8646 30.8072 57.8231 30.9122 57.7424 31.0021Z" fill="#E3D0A8"/>
</g>
<defs>
<linearGradient id="paint0_linear_1169_413284" x1="29.6334" y1="54.1365" x2="29.4903" y2="15.2134" gradientUnits="userSpaceOnUse">
<stop stop-color="#BB945B"/>
<stop offset="1" stop-color="#E4D1A9"/>
</linearGradient>
<clipPath id="clip0_1169_413284">
<rect width="173" height="54" fill="white" transform="translate(0.858398)"/>
</clipPath>
</defs>
</svg>
