<svg width="198" height="50" viewBox="0 0 198 50" fill="none" xmlns="http://www.w3.org/2000/svg">
<g clip-path="url(#clip0_1169_413358)">
<path fill-rule="evenodd" clip-rule="evenodd" d="M20.0017 20.3153C20.2961 20.4003 20.6132 20.4483 20.8841 20.2033L35.3371 0L51.5136 24.2005C54.8152 30.9057 52.9469 37.7187 50.7565 41.3884C46.9603 47.6608 39.1753 52.0041 29.475 49.0577L0.858398 49.2287L1.91322 47.5606L28.5261 48.4599C28.5572 47.5311 28.6077 46.8507 28.9021 45.6693L2.53653 46.6933L4.47626 44.0518L29.1158 45.0176C29.2958 44.0812 29.6752 43.0893 30.0402 42.1538L5.07518 43.2181L7.01407 40.559L30.4869 41.4608C30.8763 40.548 31.4954 39.6226 32.0716 38.7873L7.64242 39.6815L9.57963 37.003L32.7261 37.9612C33.505 36.9845 34.3083 36.1281 35.2378 35.2827L10.1937 36.1921L10.9297 35.1808C10.4822 34.6082 10.0549 34.0171 9.65029 33.4125L36.4752 34.4726C38.5789 32.919 42.736 33.1287 44.4629 34.7589L45.2713 35.249C45.9896 36.1592 46.4001 36.7706 47.0091 37.7398C47.0941 37.8678 47.2547 38.0741 47.4776 37.7347C47.8965 37.2017 48.5409 36.1559 48.7781 35.1092L45.2721 35.2498L44.4663 34.7614L48.8933 34.737C49.0632 33.7931 49.0893 32.7431 49.0548 31.8438L9.24233 32.6151C8.59631 30.8434 8.33386 28.9825 8.67622 27.0331C9.79666 28.4789 13.6332 30.3239 14.3423 30.2531L48.9219 31.1263C48.8353 30.2034 48.6881 29.2486 48.2616 28.3518L13.1782 28.953C12.4766 28.1573 12.0989 27.2874 11.8264 26.2989L32.705 27.0811L29.6499 25.4071C31.9547 25.3575 33.8659 25.2909 36.1723 25.2429C37.1439 25.3516 37.4299 25.3069 37.9051 26.0117C38.0465 26.2239 38.0852 26.5052 38.1567 26.7569C38.2256 27.0138 38.2652 27.2268 38.5301 27.3371C38.5697 27.359 38.658 27.3641 38.6925 27.3641C41.0023 27.3876 45.3907 27.4491 47.9386 27.5224C46.8022 25.7911 45.6742 25.157 43.8716 24.4219L11.7145 25.7077C11.5051 24.5466 11.4765 23.5117 11.6641 22.2469C11.6859 22.1349 11.7675 22.1282 11.8306 22.1964C12.8644 23.3306 14.5467 24.5786 16.4091 24.9432C16.6185 24.9836 16.6211 24.9718 16.5681 24.8682C16.4091 24.6367 15.4468 23.0974 15.7866 23.1092L40.1721 23.766C40.6339 23.7786 39.0012 21.1253 36.7595 20.9072C36.7494 20.9072 17.1165 22.1425 15.5612 22.2048C15.5351 22.2057 15.4577 22.1804 15.4476 22.1459C14.953 20.3178 14.8462 19.3023 15.1372 17.3353C15.1431 17.3167 15.1566 17.3083 15.1684 17.3201C16.6993 18.9133 18.475 19.9052 20.0034 20.3161" fill="#CF1F2E"/>
<path fill-rule="evenodd" clip-rule="evenodd" d="M63.0557 21.6726H81.2224C82.1443 21.6726 82.8013 22.4625 82.8677 23.254V34.1905C82.8677 35.116 82.0762 35.9041 81.2224 35.9041H69.3081V31.224H77.2066C77.5372 31.224 77.8644 30.9638 77.8644 30.6329V26.8773C77.8644 26.5481 77.6003 26.2189 77.2066 26.2189H67.9252V41.5054H63.0557V21.6726ZM87.5421 21.6726H104.59V26.2189H91.6882C91.2273 26.2189 90.8319 26.6811 90.8984 27.0761L90.8319 29.4473H103.075V33.863H90.8319V36.3672C90.8319 36.8287 91.2273 37.1554 91.6882 37.2219H107.091C107.485 37.1537 107.817 36.8287 107.882 36.3672V21.6718H113.083C113.937 21.6718 114.662 22.5947 115.057 23.2532C117.428 26.9422 119.008 30.963 121.377 34.652C121.64 35.0904 121.881 35.0904 122.1 34.652L128.422 23.2532C128.88 22.396 129.537 21.6718 130.46 21.6718H135.332V41.5046H130.46V29.7748L124.336 40.8444C124.206 41.1097 124.008 41.5046 123.612 41.5046H119.991C119.598 41.5046 119.336 41.1097 119.138 40.8444L113.084 29.7748V39.9864C113.084 40.8427 112.358 41.5029 111.569 41.5029H87.5429C86.6875 41.5029 85.9632 40.8427 85.9632 39.9864V23.2523C85.9632 22.3951 86.6866 21.735 87.5421 21.671M139.08 23.5159C139.08 22.529 140.002 21.6718 140.989 21.6718H157.706V26.282H144.937C144.28 26.2163 143.753 26.8091 143.753 27.4045V29.5121L155.797 29.4464V33.8621H143.821V36.3664C143.821 36.8278 144.344 37.2211 144.936 37.2211H164.027C164.226 37.2211 164.356 37.2211 164.554 37.0249C165.87 35.441 167.251 33.8613 168.57 32.2774C168.833 31.9482 168.833 31.752 168.57 31.4227L164.422 26.6803C164.554 26.8765 163.962 26.218 163.696 26.218H160.604V21.6718H165.606C166.858 21.7375 167.516 22.9239 168.174 23.5816L171.662 27.7985C171.882 28.0618 172.101 28.0618 172.322 27.7985L175.941 23.515C176.401 22.9879 177.455 21.671 178.442 21.671H183.245V26.2172H180.285C180.088 26.2172 179.891 26.2829 179.758 26.4816L175.612 31.4227C175.35 31.7292 175.328 32.0141 175.545 32.2774L179.495 37.0249C179.758 37.2211 179.955 37.2211 180.285 37.2211H183.183V41.5037H177.257C176.929 41.5037 176.336 41.3741 176.139 41.1753L171.73 35.8367L167.386 41.1753C167.186 41.3724 166.661 41.5037 166.201 41.5037H140.99C139.936 41.5037 139.08 40.7796 139.08 39.727V23.5167L139.08 23.5159Z" fill="#008A54"/>
<path d="M191.659 36.4481H192.689C193.184 36.4481 193.519 36.3706 193.704 36.2233C193.882 36.0793 193.974 35.8831 193.974 35.6363C193.974 35.4831 193.926 35.3416 193.839 35.2178C193.755 35.0941 193.635 35.0031 193.482 34.9417C193.328 34.8777 193.042 34.8507 192.625 34.8507H191.66V36.4481M190.802 39.418V34.1383H192.617C193.239 34.1383 193.688 34.183 193.968 34.2798C194.243 34.3775 194.463 34.5501 194.63 34.7892C194.795 35.0351 194.875 35.2928 194.875 35.5656C194.875 35.9546 194.738 36.2889 194.464 36.5761C194.188 36.8607 193.822 37.0224 193.365 37.0586C193.551 37.136 193.706 37.2312 193.813 37.3373C194.026 37.5461 194.287 37.8964 194.595 38.3873L195.24 39.4188H194.197L193.731 38.586C193.359 37.9335 193.065 37.5251 192.84 37.3583C192.683 37.2371 192.454 37.1773 192.157 37.1773H191.658V39.4188H190.804L190.802 39.418ZM192.957 32.6075C192.265 32.6075 191.595 32.7843 190.945 33.1346C190.29 33.4883 189.78 33.9944 189.411 34.6511C189.043 35.3088 188.859 35.9951 188.859 36.7041C188.859 37.4131 189.04 38.0918 189.403 38.7359C189.765 39.3851 190.268 39.8929 190.92 40.255C191.571 40.6179 192.248 40.8015 192.956 40.8015C193.664 40.8015 194.341 40.6179 194.988 40.255C195.64 39.8937 196.144 39.3851 196.503 38.7359C196.863 38.0918 197.043 37.4131 197.043 36.7041C197.043 35.9951 196.862 35.3088 196.495 34.6511C196.13 33.9944 195.618 33.4891 194.965 33.1346C194.31 32.7843 193.64 32.6075 192.957 32.6075H192.957ZM192.957 31.7907C193.781 31.7907 194.584 32.0037 195.369 32.4265C196.15 32.8483 196.765 33.4554 197.2 34.2453C197.64 35.0309 197.857 35.8519 197.857 36.7057C197.857 37.5596 197.645 38.368 197.208 39.1477C196.781 39.93 196.172 40.5345 195.398 40.969C194.617 41.401 193.805 41.614 192.957 41.614C192.11 41.614 191.294 41.3993 190.517 40.969C189.735 40.5345 189.132 39.93 188.699 39.1477C188.262 38.3671 188.046 37.5537 188.046 36.7057C188.046 35.8578 188.266 35.0318 188.708 34.2453C189.148 33.4554 189.759 32.8483 190.546 32.4265C191.328 32.0046 192.132 31.7907 192.957 31.7907Z" fill="#5B6770"/>
</g>
<defs>
<clipPath id="clip0_1169_413358">
<rect width="197" height="50" fill="white" transform="translate(0.858398)"/>
</clipPath>
</defs>
</svg>
