<svg width="167" height="34" viewBox="0 0 167 34" fill="none" xmlns="http://www.w3.org/2000/svg">
<g clip-path="url(#clip0_1169_413365)">
<path d="M34.1443 7.19685C27.5779 7.19685 22.2568 11.7144 22.2568 17.2874C22.2568 22.8604 27.58 27.378 34.1443 27.378H50.3819C51.9332 27.378 53.1912 26.4514 53.1912 25.308V9.26688C53.1912 8.12353 51.9332 7.19685 50.3819 7.19685C48.8305 7.19685 47.5725 8.12353 47.5725 9.26688V23.1415H34.1443C30.8389 23.1415 28.1605 20.4987 28.1605 17.2381C28.1605 13.9775 30.8389 11.3348 34.1443 11.3348H42.9058C44.0308 11.3348 44.9426 10.4081 44.9426 9.26473C44.9426 8.12139 44.0308 7.1947 42.9058 7.1947H34.1443V7.19685Z" fill="#0054A6"/>
<path d="M55.2939 19.1751C54.2323 19.1751 53.3711 18.2892 53.3711 17.1931C53.3711 16.0969 54.2323 15.211 55.2939 15.211H63.8169V9.26473C63.8169 8.12139 65.0749 7.1947 66.6284 7.1947C68.1819 7.1947 69.4398 8.12139 69.4398 9.26473V25.2587C69.4398 26.4278 68.1819 27.378 66.6284 27.378C65.0749 27.378 63.8169 26.4299 63.8169 25.2587V19.173H55.2939V19.1751Z" fill="#0054A6"/>
<path d="M83.9908 6.63269C76.502 6.63269 70.4316 10.7749 70.4316 17.2403C70.4316 24.9627 76.502 27.8478 83.9908 27.8478C91.4795 27.8478 97.5499 24.9627 97.5499 17.2403C97.5499 10.7749 91.4795 6.63269 83.9908 6.63269ZM83.9549 23.6177C79.7229 23.6177 76.2931 21.8716 76.2931 17.1952C76.2931 13.2825 79.7229 10.7728 83.9549 10.7728C88.1868 10.7728 91.6167 13.2804 91.6167 17.1952C91.6167 21.8694 88.1868 23.6177 83.9549 23.6177Z" fill="#0054A6"/>
<path d="M131.819 6.63269C124.33 6.63269 118.26 10.7749 118.26 17.2403C118.26 24.9627 124.33 27.8478 131.819 27.8478C139.308 27.8478 145.378 24.9627 145.378 17.2403C145.378 10.7749 139.308 6.63269 131.819 6.63269ZM131.785 23.6177C127.553 23.6177 124.123 21.8716 124.123 17.1952C124.123 13.2825 127.553 10.7728 131.785 10.7728C136.017 10.7728 139.447 13.2804 139.447 17.1952C139.447 21.8694 136.017 23.6177 131.785 23.6177Z" fill="#0054A6"/>
<path d="M98.4658 8.9451C98.4658 7.9798 99.7238 7.19684 101.277 7.19684H108.536C113.443 7.19684 117.422 8.9451 117.422 13.2761C117.422 17.6071 113.443 19.3553 108.536 19.3553H106.638C105.387 19.3553 104.372 18.4908 104.372 17.4269C104.372 16.3629 105.387 15.4984 106.638 15.4984H108.536C110.191 15.4984 111.533 14.4859 111.533 13.2375C111.533 11.989 110.191 10.9765 108.536 10.9765H104.089V25.4517C104.089 26.5179 102.831 27.3823 101.277 27.3823C99.7238 27.3823 98.4658 26.5179 98.4658 25.4517V8.9451Z" fill="#0054A6"/>
<path d="M22.2569 17.2874C22.2569 17.0536 22.2695 16.8241 22.2885 16.5946H1.48759C1.11822 16.5946 0.822725 16.9185 0.860718 17.3025C0.894489 17.635 1.19421 17.8773 1.52348 17.8773H22.278C22.2653 17.6821 22.2547 17.4869 22.2547 17.2874H22.2569Z" fill="#9ACA3C"/>
<path d="M139.447 17.1973C139.447 16.9936 139.436 16.7941 139.417 16.5989H99.9768C99.2655 16.5989 98.6871 16.0175 98.6808 15.2946C98.647 11.3798 98.2207 0.00213623 94.3813 0.00213623C88.2181 0.00213623 79.5199 31.5202 73.7007 31.5202C71.0265 31.5202 70.7099 22.2083 70.6951 18.2956C70.6909 17.3539 69.9395 16.5946 69.015 16.5946H28.1983C28.1751 16.8091 28.1582 17.0236 28.1582 17.2424C28.1582 17.4612 28.173 17.6693 28.1962 17.8795H67.8203C68.6857 17.8795 69.3928 18.5809 69.4097 19.4604C69.4941 23.9008 70.0809 34.0021 73.6986 34.0021C79.5241 34.0021 88.1632 2.48403 94.3792 2.48403C97.1083 2.48403 97.3806 12.491 97.3848 16.3715C97.3848 17.2081 98.0518 17.8838 98.875 17.8838H139.415C139.432 17.6607 139.443 17.4354 139.443 17.1995L139.447 17.1973Z" fill="#9ACA3C"/>
<path d="M166.192 16.5967H145.357C145.37 16.8091 145.379 17.0215 145.379 17.2381C145.379 17.4548 145.372 17.6671 145.362 17.8773H166.226C166.595 17.8773 166.891 17.5534 166.853 17.1695C166.819 16.837 166.519 16.5946 166.19 16.5946L166.192 16.5967Z" fill="#9ACA3C"/>
<path d="M145.642 4.39103V4.37601C145.642 2.79935 146.902 1.47797 148.5 1.47797C150.097 1.47797 151.343 2.78219 151.343 4.35885V4.37387C151.343 5.95052 150.083 7.27191 148.483 7.27191C146.883 7.27191 145.64 5.96768 145.64 4.39103H145.642ZM151.083 4.37387V4.35885C151.083 2.9109 149.973 1.72465 148.5 1.72465C147.026 1.72465 145.901 2.92592 145.901 4.37387V4.38888C145.901 5.83683 147.012 7.02308 148.485 7.02308C149.958 7.02308 151.083 5.82182 151.083 4.37387ZM147.375 2.80579H148.681C149.053 2.80579 149.359 2.92592 149.547 3.11898C149.688 3.25412 149.783 3.45576 149.783 3.69601V3.71103C149.783 4.19153 149.468 4.47898 149.027 4.58409L149.933 5.77677H149.397L148.555 4.65702H147.805V5.77677H147.373V2.80793L147.375 2.80579ZM148.641 4.26232C149.051 4.26232 149.333 4.07141 149.333 3.73462V3.71961C149.333 3.40642 149.082 3.20693 148.664 3.20693H147.805V4.26232H148.641Z" fill="#0054A6"/>
</g>
<defs>
<clipPath id="clip0_1169_413365">
<rect width="166" height="34" fill="white" transform="translate(0.858398)"/>
</clipPath>
</defs>
</svg>
