<svg width="85" height="84" viewBox="0 0 85 84" fill="none" xmlns="http://www.w3.org/2000/svg">
<rect x="0.5" width="84" height="84" rx="42" fill="#1F4060"/>
<path d="M29.3955 45.6365V41.5626L23.8201 44.8256V59.8572H61.1816V45.5582H50.2964C49.967 45.5582 49.6999 45.2895 49.6998 44.9582V40.5194C49.6998 40.188 49.9669 39.9194 50.2964 39.9194C50.6259 39.9195 50.893 40.1881 50.893 40.5194V44.3582H61.7782C62.1077 44.3582 62.3748 44.6269 62.3748 44.9582V60.4572C62.3748 60.7885 62.1077 61.0572 61.7782 61.0572H23.2235C22.8941 61.0572 22.627 60.7885 22.627 60.4572V44.4806C22.627 44.267 22.7399 44.0696 22.9234 43.9621L29.6919 40.0007L29.7269 39.9817C29.9046 39.8931 30.1159 39.899 30.2894 39.9993C30.4745 40.1064 30.5886 40.3047 30.5886 40.5194V45.6365C30.5886 45.9678 30.3215 46.2365 29.9921 46.2365C29.6626 46.2365 29.3955 45.9679 29.3955 45.6365Z" fill="#DBE6F6"/>
<path d="M36.1639 45.6365V41.7208L30.3504 46.116C30.087 46.3152 29.7131 46.2619 29.5151 45.997C29.3172 45.7321 29.3701 45.3561 29.6335 45.157L36.402 40.0396L36.4365 40.0155C36.6128 39.9009 36.8372 39.8875 37.0268 39.9827C37.2291 40.0843 37.357 40.292 37.357 40.5194V45.6365C37.357 45.9678 37.0899 46.2365 36.7605 46.2365C36.431 46.2365 36.1639 45.9679 36.1639 45.6365Z" fill="#DBE6F6"/>
<path d="M42.9314 45.6365V41.7208L37.1179 46.116C36.8546 46.3152 36.4807 46.2619 36.2827 45.997C36.0847 45.7321 36.1377 45.3561 36.4011 45.157L43.1696 40.0396L43.2041 40.0155C43.3803 39.9009 43.6048 39.8875 43.7944 39.9827C43.9966 40.0843 44.1246 40.292 44.1246 40.5194V45.6365C44.1246 45.9678 43.8575 46.2365 43.528 46.2365C43.1985 46.2365 42.9314 45.9679 42.9314 45.6365Z" fill="#DBE6F6"/>
<path d="M49.9886 40.0054C50.2474 39.8482 50.5877 39.9106 50.7732 40.1589C50.9712 40.4238 50.918 40.8001 50.6546 40.9992L43.8863 46.116C43.623 46.3152 43.2491 46.2619 43.0511 45.997C42.8531 45.7321 42.9061 45.3561 43.1695 45.157L49.938 40.0396L49.9886 40.0054Z" fill="#DBE6F6"/>
<path d="M57.5043 25.2826L57.5654 25.2856C57.8662 25.3163 58.1009 25.5719 58.1009 25.8826C58.1009 26.1932 57.8662 26.4488 57.5654 26.4795L57.5043 26.4826H54.6444L53.2019 45.005C53.1761 45.3353 52.889 45.5821 52.5605 45.5562C52.2321 45.5303 51.9867 45.2416 52.0124 44.9112L53.4981 25.8357L53.5053 25.778C53.5549 25.4943 53.8008 25.2826 54.0928 25.2826H57.5043Z" fill="#DBE6F6"/>
<path d="M57.8547 25.2826L57.9123 25.2854C58.1975 25.3129 58.4267 25.5429 58.4495 25.8357L59.9351 44.9112L59.9368 44.9726C59.9298 45.2767 59.6947 45.532 59.3868 45.5562C59.0583 45.5821 58.7712 45.3353 58.7454 45.005L57.3031 26.4826H54.443C54.1135 26.4826 53.8464 26.2139 53.8464 25.8826C53.8464 25.5512 54.1135 25.2826 54.443 25.2826H57.8547Z" fill="#DBE6F6"/>
<path d="M30.0706 51.9944L30.1316 51.9974C30.4325 52.0281 30.6672 52.2837 30.6672 52.5944V56.2382C30.6672 56.5696 30.4001 56.8382 30.0706 56.8382H27.344C27.0145 56.8382 26.7474 56.5696 26.7474 56.2382V52.5944L26.7504 52.533C26.781 52.2305 27.0351 51.9944 27.344 51.9944H30.0706ZM27.9406 55.6382H29.474V53.1944H27.9406V55.6382Z" fill="#DBE6F6"/>
<path d="M35.4084 51.9944L35.4694 51.9974C35.7703 52.0281 36.0049 52.2837 36.0049 52.5944V56.2382C36.0049 56.5696 35.7378 56.8382 35.4084 56.8382H32.6817C32.3523 56.8382 32.0852 56.5696 32.0852 56.2382V52.5944L32.0882 52.533C32.1188 52.2305 32.3729 51.9944 32.6817 51.9944H35.4084ZM33.2783 55.6382H34.8118V53.1944H33.2783V55.6382Z" fill="#DBE6F6"/>
<path d="M40.7461 51.9944L40.8072 51.9974C41.108 52.0281 41.3427 52.2837 41.3427 52.5944V56.2382C41.3427 56.5696 41.0756 56.8382 40.7461 56.8382H38.0195C37.69 56.8382 37.4229 56.5696 37.4229 56.2382V52.5944L37.426 52.533C37.4565 52.2305 37.7106 51.9944 38.0195 51.9944H40.7461ZM38.6161 55.6382H40.1495V53.1944H38.6161V55.6382Z" fill="#DBE6F6"/>
<path d="M49.3691 60.4572V51.959H45.1335V60.4572C45.1334 60.7885 44.8664 61.0572 44.5369 61.0572C44.2075 61.0572 43.9404 60.7885 43.9403 60.4572V51.359L43.9433 51.2976C43.9739 50.9951 44.228 50.759 44.5369 50.759H49.9657L50.0267 50.7621C50.3276 50.7928 50.5622 51.0483 50.5622 51.359V60.4572C50.5622 60.7885 50.2951 61.0572 49.9657 61.0572C49.6362 61.0572 49.3691 60.7885 49.3691 60.4572Z" fill="#DBE6F6"/>
<path d="M53.7616 22.9485C54.759 22.8761 55.7 23.5002 56.5642 24.4752C56.7834 24.7226 56.7618 25.1018 56.516 25.3223C56.27 25.5427 55.8928 25.5211 55.6735 25.2737C54.8769 24.375 54.2741 24.1149 53.8446 24.1457L53.8036 24.1497C53.4862 24.187 53.279 24.3671 52.925 24.7C52.608 24.9981 52.1217 25.4744 51.3496 25.4744C50.5357 25.4744 50.0415 24.9459 49.7353 24.6388C49.3828 24.2852 49.2188 24.1537 48.9649 24.1537C48.7215 24.1537 48.5558 24.2742 48.2045 24.6046C47.9 24.891 47.4423 25.3507 46.7204 25.4608L46.6496 25.4704C45.6477 25.5881 44.703 24.9973 43.8342 24.0463L43.7505 23.953L43.7121 23.9052C43.5347 23.659 43.5681 23.3128 43.7986 23.106C44.029 22.8992 44.3748 22.9052 44.5979 23.1105L44.6408 23.1543L44.7927 23.3202C45.5397 24.1113 46.1055 24.3259 46.5109 24.2784L46.5692 24.2697C46.8548 24.2179 47.0576 24.0402 47.3895 23.728C47.7065 23.4299 48.1929 22.9537 48.9649 22.9537C49.7782 22.9537 50.2723 23.4825 50.578 23.7892C50.9301 24.1424 51.0947 24.2744 51.3496 24.2744C51.593 24.2744 51.7587 24.1538 52.11 23.8234C52.4244 23.5278 52.902 23.0474 53.6649 22.9576L53.7616 22.9485Z" fill="#DBE6F6"/>
</svg>
