<svg width="84" height="84" viewBox="0 0 84 84" fill="none" xmlns="http://www.w3.org/2000/svg">
<rect width="84" height="84" rx="42" fill="#1F4060"/>
<path d="M61.2782 59.857C61.6077 59.857 61.8748 60.1257 61.8748 60.457C61.8748 60.7884 61.6077 61.057 61.2782 61.057H22.7235C22.3941 61.057 22.127 60.7884 22.127 60.457C22.127 60.1257 22.3941 59.857 22.7235 59.857H61.2782Z" fill="#DBE6F6"/>
<path d="M49.0475 48.1725L49.1083 48.1755C49.4092 48.2062 49.644 48.4618 49.644 48.7725V60.457C49.644 60.7884 49.3769 61.057 49.0475 61.057H43.566C43.2366 61.057 42.9695 60.7884 42.9695 60.457V48.7725L42.9725 48.7111C43.0031 48.4086 43.2572 48.1725 43.566 48.1725H49.0475ZM44.1626 59.857H48.4509V49.3725H44.1626V59.857Z" fill="#DBE6F6"/>
<path d="M31.8242 50.8057L31.885 50.8087C32.1859 50.8394 32.4208 51.095 32.4208 51.4057V60.457C32.4208 60.7884 32.1536 61.057 31.8242 61.057H26.3428C26.0133 61.057 25.7462 60.7884 25.7462 60.457V51.4057L25.7492 51.3443C25.7798 51.0418 26.0339 50.8057 26.3428 50.8057H31.8242ZM26.9394 59.857H31.2276V52.0057H26.9394V59.857Z" fill="#DBE6F6"/>
<path d="M57.6591 42.2072L57.7199 42.2102C58.0208 42.2409 58.2557 42.4965 58.2557 42.8072V60.457C58.2557 60.7884 57.9885 61.057 57.6591 61.057H52.1777C51.8482 61.057 51.5811 60.7884 51.5811 60.457V42.8072L51.5841 42.7458C51.6147 42.4432 51.8688 42.2072 52.1777 42.2072H57.6591ZM52.7743 59.857H57.0625V43.4072H52.7743V59.857Z" fill="#DBE6F6"/>
<path d="M40.4358 47.2045L40.4966 47.2076C40.7975 47.2383 41.0324 47.4938 41.0324 47.8045V60.4563C41.0323 60.7876 40.7652 61.0563 40.4358 61.0563H34.9544C34.625 61.0563 34.3579 60.7876 34.3578 60.4563V47.8045L34.3608 47.7431C34.3914 47.4406 34.6455 47.2045 34.9544 47.2045H40.4358ZM35.551 59.8563H39.8392V48.4045H35.551V59.8563Z" fill="#DBE6F6"/>
<path d="M53.8468 25.6682C54.3558 25.1638 55.0804 25.115 55.5456 25.1381C55.9184 25.1565 56.2413 25.2277 56.4021 25.2688L56.5049 25.297L56.5624 25.3174C56.8419 25.4333 56.9942 25.7458 56.9059 26.0434C56.8176 26.3411 56.5201 26.5183 56.2231 26.4613L56.1637 26.4468L56.1485 26.4424C56.1386 26.4396 56.1242 26.436 56.1061 26.4313C56.0698 26.4221 56.0185 26.4098 55.956 26.3971C55.8295 26.3715 55.6636 26.3454 55.4869 26.3367C55.095 26.3173 54.8181 26.3904 54.6841 26.5232C54.6453 26.5616 54.6099 26.5979 54.5788 26.6446C54.5561 26.6786 54.5406 26.7112 54.5319 26.7431L54.5254 26.7747L54.5249 26.7782C54.5249 26.7782 54.5245 26.783 54.5244 26.7874C54.5243 26.796 54.5248 26.812 54.5279 26.8342C54.5341 26.877 54.5517 26.9513 54.6072 27.0477C54.7475 27.2906 54.9645 27.4029 55.3839 27.5852C55.7486 27.7436 56.3148 27.9712 56.6738 28.5524L56.7081 28.6099L56.7512 28.6898C56.9526 29.0842 56.944 29.406 56.9271 29.5577L56.9269 29.5602L56.9267 29.5621L56.9264 29.5645L56.9257 29.5692C56.9253 29.5725 56.9249 29.5762 56.9243 29.5802C56.9232 29.5881 56.9217 29.5974 56.9199 29.6078C56.9163 29.6287 56.911 29.6544 56.9038 29.6842C56.8895 29.7439 56.8667 29.821 56.8306 29.909C56.7673 30.0636 56.6626 30.2531 56.4916 30.4399L56.4142 30.5195C56.0532 30.8706 55.525 31.0008 55.0197 31.0246C54.5271 31.0479 53.9653 30.9751 53.3835 30.8172L53.2667 30.7846L53.2092 30.7647C52.9285 30.6515 52.7731 30.3405 52.8587 30.0419C52.9442 29.7434 53.24 29.5633 53.5375 29.6174L53.5972 29.6315L53.7927 29.6845C54.2425 29.7981 54.6435 29.8411 54.9637 29.826C55.3016 29.8101 55.4811 29.7341 55.558 29.6791L55.5848 29.6568C55.6664 29.5774 55.7073 29.501 55.7274 29.452C55.735 29.4335 55.7391 29.4188 55.7416 29.4098C55.7415 29.4021 55.7411 29.3913 55.7388 29.3774C55.7338 29.3464 55.7192 29.2881 55.6731 29.2073C55.5422 28.9783 55.3357 28.8715 54.9106 28.6867C54.5282 28.5206 53.9389 28.2797 53.5755 27.6506C53.2963 27.1657 53.3229 26.7607 53.3429 26.6144C53.4138 26.0837 53.7595 25.7546 53.8468 25.6682Z" fill="#DBE6F6"/>
<path d="M54.2889 25.7521V24.958C54.2889 24.6266 54.556 24.358 54.8855 24.358C55.215 24.358 55.4821 24.6266 55.4821 24.958V25.7521C55.4821 26.0834 55.215 26.3521 54.8855 26.3521C54.556 26.3521 54.2889 26.0834 54.2889 25.7521Z" fill="#DBE6F6"/>
<path d="M54.2889 31.221V30.4278C54.2889 30.0965 54.556 29.8278 54.8855 29.8278C55.215 29.8278 55.4821 30.0965 55.4821 30.4278V31.221C55.4821 31.5523 55.215 31.821 54.8855 31.821C54.556 31.821 54.2889 31.5523 54.2889 31.221Z" fill="#DBE6F6"/>
<path d="M58.982 28.2361C58.982 25.9788 57.1511 24.143 54.8856 24.143C52.62 24.143 50.7891 25.9788 50.7891 28.2361C50.7892 30.4933 52.62 32.329 54.8856 32.329C57.1511 32.329 58.9819 30.4933 58.982 28.2361ZM60.1752 28.2361C60.1751 31.1625 57.8037 33.529 54.8856 33.529C51.9674 33.529 49.596 31.1625 49.5959 28.2361C49.5959 25.3096 51.9674 22.943 54.8856 22.943C57.8037 22.943 60.1752 25.3096 60.1752 28.2361Z" fill="#DBE6F6"/>
<path d="M51.8592 35.8176C52.1148 35.655 52.4565 35.7103 52.6472 35.9548C52.8505 36.2154 52.8052 36.5926 52.546 36.7971L45.9162 42.0284C45.748 42.1611 45.5219 42.193 45.3238 42.1123L37.7715 39.034L29.2669 45.0326C28.9971 45.2228 28.625 45.1571 28.4358 44.8859C28.2466 44.6146 28.312 44.2403 28.5817 44.0501L37.3525 37.8642L37.3842 37.8434C37.5449 37.7447 37.7432 37.7276 37.9191 37.7993L45.4515 40.8694L51.8094 35.853L51.8592 35.8176Z" fill="#DBE6F6"/>
</svg>
