<svg width="85" height="84" viewBox="0 0 85 84" fill="none" xmlns="http://www.w3.org/2000/svg">
<rect x="0.5" width="84" height="84" rx="42" fill="#1F4060"/>
<path d="M42.5838 21.0493C42.7615 20.9776 42.9625 20.9842 43.1356 21.0687L61.9256 30.2437C62.154 30.3553 62.2984 30.5849 62.2984 30.8362V34.2007C62.2984 34.5659 61.9981 34.8619 61.6277 34.8619H59.7135V54.9487H60.3164C60.6868 54.9487 60.9871 55.2447 60.9871 55.6098V58.3132H63.8293C64.1997 58.3132 64.5 58.6092 64.5 58.9743V62.3388C64.5 62.7039 64.1997 62.9999 63.8293 63H21.1707C20.8003 63 20.5 62.704 20.5 62.3388V58.9743L20.5034 58.9067C20.5378 58.5733 20.8235 58.3132 21.1707 58.3132H24.0111V55.6098C24.0111 55.2447 24.3114 54.9487 24.6818 54.9487H25.3583V34.8619H23.3713C23.0008 34.8619 22.7006 34.5659 22.7006 34.2007V30.8362C22.7006 30.5816 22.8487 30.3495 23.0818 30.2396L42.5487 21.0645L42.5838 21.0493ZM21.8414 61.6777H63.1586V59.6355H21.8414V61.6777ZM25.3525 58.3132H59.6456V56.271H25.3525V58.3132ZM45.1724 54.9487H53.6917V34.8619H45.1724V54.9487ZM31.3801 54.9487H39.1506V34.8619H31.3801V54.9487ZM55.0331 54.9487H58.372V34.8619H55.0331V54.9487ZM40.492 54.9487H43.831V34.8619H40.492V54.9487ZM26.6997 54.9487H30.0387V34.8619H26.6997V54.9487ZM24.042 31.2528V33.5395H60.957V31.2464L42.8327 22.3964L24.042 31.2528ZM44.5753 28.7336C44.5753 27.6156 43.6495 26.7029 42.4995 26.7029C41.3495 26.7029 40.4236 27.6156 40.4236 28.7336C40.4236 29.8517 41.3495 30.7644 42.4995 30.7644C43.6495 30.7644 44.5753 29.8517 44.5753 28.7336ZM45.9168 28.7336C45.9168 30.5891 44.3831 32.0868 42.4995 32.0868C40.6158 32.0868 39.0822 30.5891 39.0822 28.7336C39.0822 26.8782 40.6158 25.3805 42.4995 25.3805C44.3831 25.3805 45.9168 26.8782 45.9168 28.7336Z" fill="#DBE6F6"/>
</svg>
