<svg width="84" height="84" viewBox="0 0 84 84" fill="none" xmlns="http://www.w3.org/2000/svg">
<rect width="84" height="84" rx="42" fill="#1F4060"/>
<path d="M54.7767 58.8651C54.7767 58.1128 54.1652 57.4964 53.4046 57.4964H30.636C29.8754 57.4964 29.2639 58.1128 29.2639 58.8651V59.8575H54.7767V58.8651ZM55.9699 60.4575C55.9699 60.7888 55.7028 61.0575 55.3733 61.0575H28.6673C28.3378 61.0575 28.0707 60.7888 28.0707 60.4575V58.8651C28.0707 57.4436 29.2228 56.2964 30.636 56.2964H53.4046C54.8178 56.2964 55.9699 57.4436 55.9699 58.8651V60.4575Z" fill="#DBE6F6"/>
<path d="M49.0116 55.9596C49.0116 55.2073 48.4001 54.5909 47.6394 54.5909H36.4012C35.6405 54.5909 35.029 55.2073 35.029 55.9596V56.2734H49.0116V55.9596ZM50.2048 56.8734C50.2048 57.2048 49.9377 57.4734 49.6082 57.4734H34.4324C34.1029 57.4734 33.8358 57.2048 33.8358 56.8734V55.9596C33.8358 54.5381 34.988 53.3909 36.4012 53.3909H47.6394C49.0526 53.3909 50.2048 54.5381 50.2048 55.9596V56.8734Z" fill="#DBE6F6"/>
<path d="M39.77 30.7973C39.77 30.466 40.0371 30.1973 40.3666 30.1973C40.696 30.1973 40.9631 30.466 40.9631 30.7973V53.3908H43.0766V30.7973C43.0766 30.466 43.3437 30.1973 43.6732 30.1973C44.0027 30.1973 44.2698 30.466 44.2698 30.7973V53.9908C44.2698 54.3222 44.0027 54.5908 43.6732 54.5908H40.3666C40.0371 54.5908 39.77 54.3222 39.77 53.9908V30.7973Z" fill="#DBE6F6"/>
<path d="M22.125 41.4335C22.125 41.1021 22.3921 40.8335 22.7216 40.8335C23.0511 40.8335 23.3182 41.1021 23.3182 41.4335C23.3182 44.1734 25.5408 46.4008 28.289 46.4009C31.0372 46.4009 33.2598 44.1735 33.2598 41.4335C33.2598 41.1022 33.527 40.8336 33.8564 40.8335C34.1859 40.8335 34.453 41.1021 34.453 41.4335C34.453 44.8426 31.6898 47.6009 28.289 47.6009C24.8882 47.6008 22.125 44.8426 22.125 41.4335Z" fill="#DBE6F6"/>
<path d="M28.2891 27.9948C28.5264 27.9948 28.741 28.1363 28.8359 28.355L34.4035 41.1936C34.4839 41.3791 34.4659 41.5929 34.3557 41.7622C34.2455 41.9315 34.0578 42.0336 33.8565 42.0336H22.7224C22.5212 42.0336 22.3335 41.9315 22.2233 41.7622C22.1131 41.593 22.0951 41.3791 22.1755 41.1936L27.7422 28.355L27.7613 28.315C27.8639 28.1191 28.0667 27.9948 28.2891 27.9948ZM23.6334 40.8336H32.9453L28.2889 30.0955L23.6334 40.8336Z" fill="#DBE6F6"/>
<path d="M53.6745 25.6815C55.1236 25.6816 56.3054 26.8574 56.3054 28.3159V28.5948C56.3054 28.9262 56.0382 29.1948 55.7088 29.1948H45.6296C45.3001 29.1948 45.033 28.9262 45.033 28.5948C45.033 28.2634 45.3001 27.9948 45.6296 27.9948H55.0756C54.9296 27.3591 54.36 26.8816 53.6745 26.8815H45.6804C45.351 26.8815 45.0839 26.6129 45.0839 26.2815C45.0839 25.9502 45.351 25.6816 45.6804 25.6815H53.6745Z" fill="#DBE6F6"/>
<path d="M38.3592 25.6815L38.4203 25.6846C38.7211 25.7153 38.9558 25.9709 38.9558 26.2815C38.9558 26.5922 38.7211 26.8477 38.4203 26.8785L38.3592 26.8815H30.3243C29.6385 26.8815 29.0693 27.3594 28.9233 27.9948H38.4109L38.472 27.9979C38.7728 28.0286 39.0075 28.2842 39.0075 28.5948C39.0075 28.9054 38.7728 29.161 38.472 29.1918L38.4109 29.1948H28.2899C27.9604 29.1948 27.6933 28.9262 27.6933 28.5948V28.3159C27.6933 26.8585 28.8741 25.6815 30.3243 25.6815H38.3592Z" fill="#DBE6F6"/>
<path d="M45.2389 27.3579C45.2389 25.5851 43.8014 24.1426 42.0204 24.1425C40.2393 24.1425 38.8016 25.5851 38.8016 27.3579C38.8016 29.1306 40.2393 30.5731 42.0204 30.5731C42.5218 30.573 42.9941 30.4592 43.4154 30.2562L43.516 30.2056C44.5429 29.6662 45.2389 28.5921 45.2389 27.3579ZM46.4321 27.3579C46.4321 29.1139 45.4085 30.6269 43.9309 31.3383C43.3514 31.6176 42.7034 31.773 42.0204 31.7731C39.5868 31.7731 37.6085 29.7998 37.6084 27.3579C37.6084 24.9159 39.5867 22.9425 42.0204 22.9425C44.454 22.9426 46.4321 24.916 46.4321 27.3579Z" fill="#DBE6F6"/>
<path d="M49.5456 41.4335C49.5456 41.1021 49.8127 40.8335 50.1422 40.8335C50.4717 40.8335 50.7388 41.1021 50.7388 41.4335C50.7388 44.1734 52.9614 46.4008 55.7096 46.4009C58.4578 46.4009 60.6804 44.1735 60.6804 41.4335C60.6804 41.1022 60.9475 40.8336 61.277 40.8335C61.6065 40.8335 61.8736 41.1021 61.8736 41.4335C61.8736 44.8426 59.1104 47.6009 55.7096 47.6009C52.3088 47.6008 49.5456 44.8426 49.5456 41.4335Z" fill="#DBE6F6"/>
<path d="M55.7096 27.9948C55.9469 27.9948 56.1617 28.1363 56.2565 28.355L61.8239 41.1936C61.9044 41.3791 61.8864 41.5929 61.7762 41.7622C61.6659 41.9315 61.4782 42.0336 61.277 42.0336H50.1422C49.941 42.0336 49.7532 41.9315 49.643 41.7622C49.5328 41.5929 49.5148 41.3791 49.5952 41.1936L55.1629 28.355L55.182 28.315C55.2846 28.1192 55.4871 27.9948 55.7096 27.9948ZM51.0534 40.8336H60.366L55.7096 30.0955L51.0534 40.8336Z" fill="#DBE6F6"/>
</svg>
