<svg width="42" height="55" viewBox="0 0 42 55" fill="none" xmlns="http://www.w3.org/2000/svg">
<g clip-path="url(#clip0_1214_362818)">
<path d="M33.394 16.4905C32.3982 15.4678 27.1317 15.7149 25.5859 14.916C23.8353 13.0645 22.9931 6.10619 19.5219 8.67136L16.281 15.0673C13.8268 15.9386 5.69035 14.7328 8.65197 19.2666L13.2938 23.468C13.8396 25.4324 10.5091 32.2565 13.8801 32.3865C15.4963 32.4482 19.2554 29.4442 21.1104 29.1757C23.0358 29.7616 25.3812 31.7792 27.1957 32.2714C27.9356 32.4738 28.9313 32.3438 29.3471 31.6408C30.168 30.2516 28.4324 25.5538 28.5112 23.7918C29.3087 22.3431 33.6093 19.4903 33.8034 18.1885C33.8865 17.6133 33.8119 16.9208 33.394 16.4905ZM24.9505 22.3452C24.5048 23.7769 25.4387 25.7711 25.4942 27.2582C24.0208 27.0303 22.3492 25.3216 20.9121 25.3216C19.6029 25.3194 17.7543 27.1901 16.3279 27.2561C16.1509 27.1006 17.281 23.4829 17.0464 22.6179C16.7948 21.7018 15.1338 20.5555 14.4345 19.8716C14.3193 19.7608 13.556 19.1259 13.7671 18.9512C14.0592 18.7062 17.6157 18.67 18.5411 18.0735C19.2938 17.5877 20.2255 14.7157 20.8076 13.8358C21.1381 13.61 22.7863 17.7688 23.2469 18.1054C24.136 18.7552 27.0763 18.5848 28.266 18.9512C27.6754 20.0932 25.3129 21.1904 24.9505 22.3452Z" fill="#1F4060"/>
<path d="M17.7712 0.25987C-1.35463 3.18298 -6.45911 28.1125 9.4684 38.6906C9.85432 43.2841 9.07394 48.4144 9.49611 52.9397C9.65603 54.674 10.4513 55.3302 12.2168 54.789L20.9098 49.06L29.6049 54.789C30.978 55.3153 32.1443 54.8657 32.3234 53.3616L32.3533 38.6928C32.4258 38.4797 35.366 36.4195 35.8692 35.9188C50.0953 21.7017 37.6987 -2.78681 17.7712 0.25987ZM28.6923 49.8419C26.4663 48.8661 24.0526 46.3201 21.9439 45.4018C21.2424 45.0951 20.7392 45.0162 20.0057 45.3166L13.1272 49.8419V40.4675C18.01 42.4958 23.8095 42.5256 28.6923 40.4675V49.8419ZM20.9396 38.4818C11.2893 38.4818 3.46626 30.6649 3.46626 21.022C3.46626 11.3792 11.2893 3.56008 20.9396 3.56008C30.5899 3.56008 38.4151 11.3771 38.4151 21.022C38.4151 30.667 30.5899 38.4818 20.9396 38.4818Z" fill="#1F4060"/>
</g>
<defs>
<clipPath id="clip0_1214_362818">
<rect width="42" height="55" fill="white"/>
</clipPath>
</defs>
</svg>
