<svg width="84" height="84" viewBox="0 0 84 84" fill="none" xmlns="http://www.w3.org/2000/svg">
<rect width="84" height="84" rx="42" fill="#1F4060"/>
<path d="M44.7035 24.9515C44.7035 23.503 43.4965 22.3224 41.9995 22.3223C40.5025 22.3223 39.2954 23.503 39.2954 24.9515C39.2954 26.4001 40.5025 27.5807 41.9995 27.5807C43.4965 27.5807 44.7035 26.4 44.7035 24.9515ZM46.0538 24.9515C46.0538 27.1375 44.2349 28.9031 41.9995 28.9031C39.764 28.9031 37.9451 27.1375 37.9451 24.9515C37.9451 22.7656 39.764 21 41.9995 21C44.2349 21 46.0538 22.7656 46.0538 24.9515Z" fill="#DBE6F6"/>
<path d="M41.3243 62.3388V28.2419C41.3243 27.8768 41.6266 27.5807 41.9995 27.5807C42.3724 27.5807 42.6746 27.8768 42.6746 28.2419V62.3388C42.6746 62.704 42.3723 63 41.9994 63C41.6265 63 41.3243 62.704 41.3243 62.3388Z" fill="#DBE6F6"/>
<path d="M47.4912 37.8685C47.5827 37.5381 47.9144 37.3343 48.2521 37.3889L48.3196 37.4034L48.4886 37.4522C50.2163 37.9914 51.3589 39.6118 51.1971 41.327C51.0527 42.8689 49.8829 44.1645 48.3135 44.566C47.9527 44.6583 47.5839 44.4467 47.4896 44.0934C47.3954 43.7401 47.6115 43.3788 47.9722 43.2865C49.0244 43.0173 49.7632 42.1612 49.8526 41.2064L49.8598 41.1031C49.9063 40.0754 49.1991 39.0616 48.0796 38.7123L47.9662 38.6797L47.9005 38.6588C47.581 38.5389 47.3998 38.1989 47.4912 37.8685Z" fill="#DBE6F6"/>
<path d="M38.614 59.0325C39.201 58.4462 39.9777 58.4394 40.2257 58.4527L40.2987 58.4581L40.367 58.4679C40.7027 58.533 40.9401 58.8378 40.9071 59.1787C40.8742 59.5194 40.5826 59.7751 40.2404 59.7773L40.1713 59.7745L40.0927 59.7724C40.0469 59.7733 39.9846 59.7777 39.9155 59.7915C39.78 59.8187 39.6547 59.8739 39.5608 59.9759C39.5333 60.0065 39.4815 60.065 39.4424 60.1456C39.4096 60.2133 39.3971 60.2733 39.4044 60.3311L39.4089 60.3559L39.4157 60.3806C39.4343 60.4365 39.472 60.4863 39.5294 60.5336C39.5971 60.5893 39.6635 60.6169 39.6676 60.6185C39.7723 60.6612 39.8814 60.6574 39.9917 60.627C40.0923 60.5993 40.1628 60.5572 40.1711 60.5521L40.2307 60.5175C40.5335 60.3616 40.9136 60.4526 41.1068 60.7378C41.3128 61.0422 41.228 61.4524 40.9172 61.6542L40.8639 61.6872C40.6708 61.8013 40.0027 62.1417 39.234 61.8716L39.1483 61.8391C39.0676 61.8062 38.2821 61.49 38.0905 60.642C37.8972 59.7881 38.4848 59.172 38.5473 59.1025L38.5497 59.0999L38.614 59.0325Z" fill="#DBE6F6"/>
<path d="M48.9964 52.3726C48.7829 52.6719 48.3619 52.7451 48.0562 52.536C47.7506 52.327 47.6759 51.9149 47.8893 51.6156L48.9964 52.3726ZM35.7265 37.6183C35.9785 37.3492 36.4056 37.331 36.6805 37.5778C36.9553 37.8245 36.9738 38.2428 36.7219 38.5119C36.6079 38.6337 36.1445 39.1398 35.7716 39.8351C35.3934 40.5403 35.1576 41.3475 35.3539 42.1151L35.3768 42.1982C35.6329 43.0582 36.447 43.9184 37.7267 44.4535C38.991 44.9821 40.655 45.1636 42.4823 44.6998L42.6595 44.6528C45.7125 43.8068 48.8037 45.1552 49.7668 47.5612L49.8098 47.6733C50.2355 48.8322 50.0627 49.9544 49.7866 50.7839C49.5012 51.6413 49.0863 52.2465 48.9964 52.3726L47.8893 51.6156C47.9388 51.5462 48.2741 51.0608 48.5027 50.3741C48.7246 49.7074 48.8282 48.9074 48.5389 48.1199L48.5096 48.0437C47.8482 46.3914 45.5464 45.2266 43.0261 45.9256L43.0248 45.9261C40.8454 46.5259 38.7976 46.3391 37.1966 45.6697C35.6609 45.0275 34.4785 43.9104 34.0801 42.567L34.0439 42.4364C33.7315 41.2144 34.1291 40.0541 34.5762 39.2204C35.0286 38.3766 35.5824 37.7723 35.7265 37.6183Z" fill="#DBE6F6"/>
<path d="M37.3767 45.9967C37.6289 45.7278 38.056 45.7098 38.3306 45.9567C38.6053 46.2037 38.6234 46.6219 38.3712 46.8909C38.2944 46.9729 37.9762 47.3205 37.7214 47.7959C37.4775 48.2508 37.3346 48.7415 37.4197 49.1993L37.44 49.2905L37.4545 49.3434C37.6168 49.8886 38.1456 50.4663 39.0232 50.8331C39.9131 51.2051 41.1045 51.3292 42.4192 50.9672C44.6752 50.3427 46.9975 51.3304 47.7276 53.1578C48.0922 54.0692 47.9566 54.9515 47.745 55.5871C47.5331 56.2239 47.2256 56.6732 47.1556 56.7713L47.1131 56.8248C46.8898 57.0787 46.5019 57.1306 46.2154 56.9345C45.9098 56.7254 45.8352 56.3133 46.0487 56.014L46.1038 55.9314C46.1876 55.7995 46.3448 55.5268 46.4612 55.1772C46.6168 54.7098 46.6802 54.165 46.4702 53.64C46.0418 52.5679 44.5102 51.762 42.7858 52.2397C41.1884 52.6795 39.6791 52.5451 38.4931 52.0493C37.3231 51.5602 36.4047 50.6868 36.1301 49.612L36.1092 49.5245C35.9092 48.6198 36.2071 47.7759 36.5259 47.1812C36.8604 46.5573 37.2689 46.1118 37.3767 45.9967Z" fill="#DBE6F6"/>
<path d="M45.6825 61.5668C45.4688 61.866 45.0479 61.9392 44.7423 61.73C44.4367 61.5208 44.3623 61.1086 44.5759 60.8093L45.6825 61.5668ZM38.7461 53.9292C39.0017 53.7065 39.3931 53.7053 39.6507 53.9367C39.9254 54.1836 39.9439 54.6018 39.6918 54.8709L39.6304 54.9391C39.5461 55.0365 39.4025 55.2168 39.282 55.4414C39.116 55.7509 39.043 56.0521 39.1085 56.3082L39.1253 56.3647C39.2234 56.652 39.5223 56.9888 40.0603 57.2137C40.6179 57.4467 41.377 57.529 42.2252 57.2958L42.3774 57.257C43.9506 56.8913 45.5673 57.5913 46.0958 58.911L46.1424 59.0383C46.3553 59.6734 46.2554 60.2753 46.1121 60.7057C45.9589 61.166 45.7368 61.4907 45.6825 61.5668L44.5759 60.8093C44.5894 60.7903 44.7318 60.5855 44.8283 60.2959C44.9191 60.0231 44.9523 59.728 44.8589 59.4492L44.8386 59.3937C44.595 58.7854 43.68 58.267 42.5929 58.5683C41.4615 58.8797 40.3841 58.7867 39.5302 58.4299C38.7184 58.0906 38.0493 57.4819 37.8194 56.7049L37.7985 56.6289C37.6171 55.9187 37.8517 55.2643 38.0865 54.8265C38.3267 54.3786 38.6189 54.0599 38.6968 53.9767L38.7461 53.9292Z" fill="#DBE6F6"/>
<path d="M33.5557 28.6655C34.7881 28.1394 35.9079 27.9044 37.0712 28.1529C37.7781 28.3035 38.8261 28.7048 39.9211 29.9047L39.9601 29.952C40.0458 30.0654 40.0927 30.2032 40.0928 30.3453V36.721C40.0927 36.9453 39.9765 37.1542 39.7842 37.276C39.5918 37.3979 39.3496 37.4158 39.1407 37.3238C38.8513 37.1964 38.3965 37.021 37.8199 36.9026L37.7031 36.8796C35.9511 36.5537 34.29 37.0001 32.9069 37.478C32.2522 37.7042 31.5847 37.9664 31.0853 38.1015C30.8298 38.1706 30.5475 38.2281 30.2777 38.2179C29.9932 38.2072 29.6504 38.1159 29.4022 37.8166C29.1487 37.5104 29.1334 37.1522 29.1532 36.9176C29.159 36.8485 29.1689 36.7793 29.1811 36.7117C29.0327 36.7904 28.8665 36.8723 28.6848 36.9496C28.1322 37.1843 27.4792 37.363 26.9157 37.4318C26.6367 37.4658 26.3452 37.4773 26.0839 37.4387C25.8604 37.4058 25.4642 37.308 25.2426 36.9493C25.105 36.7265 25.0937 36.4934 25.1176 36.3181C25.1411 36.1461 25.2028 35.9896 25.2653 35.863C25.2961 35.8005 25.3309 35.7381 25.3684 35.6763C25.0734 35.6578 24.7616 35.6045 24.4422 35.4989C23.9743 35.3444 23.5066 35.084 23.1599 34.8049C22.9882 34.6666 22.8175 34.501 22.6942 34.3157C22.5945 34.166 22.4375 33.8687 22.5262 33.5216C22.5313 33.499 22.5372 33.4764 22.5449 33.4541L22.5599 33.4128C22.7253 32.9982 23.1349 32.8886 23.311 32.8544C23.5237 32.8132 23.775 32.8098 23.9917 32.8098C24.4671 32.8098 25.0062 32.8287 25.6094 32.746L25.7265 32.7287C26.9181 32.5404 27.5231 32.054 29.1875 31.0631L29.8265 30.6832C31.2814 29.8195 32.4915 29.1198 33.5557 28.6655ZM36.7837 29.4447C36.006 29.2785 35.1917 29.4098 34.0952 29.8779C33.1214 30.2936 31.9912 30.9448 30.5341 31.8095L29.889 32.193C28.3152 33.1299 27.4191 33.8324 25.7972 34.0554C25.3606 34.1153 24.9459 34.1305 24.593 34.1334C24.6474 34.1585 24.7021 34.1826 24.7571 34.2039L24.8736 34.2457L24.9538 34.2705C25.7772 34.509 26.5479 34.22 26.8577 34.0817L26.9146 34.0593C27.2026 33.9604 27.5263 34.0634 27.6987 34.316C27.8826 34.5854 27.8403 34.9456 27.5985 35.1667C27.4722 35.2822 27.1014 35.6262 26.7999 35.9857C26.7592 36.0343 26.7214 36.0812 26.687 36.1257C26.707 36.1236 26.7276 36.1223 26.7488 36.1198C27.1755 36.0677 27.7036 35.9248 28.1471 35.7365L28.2882 35.674C28.6062 35.5265 28.8469 35.3729 29.0859 35.2347C29.2056 35.1655 29.3705 35.0727 29.5419 35.02C29.7283 34.9628 30.0386 34.9188 30.3379 35.1128C30.7742 35.3949 30.7474 35.8722 30.7277 36.0431C30.7039 36.2487 30.6321 36.4817 30.5897 36.6291C30.5619 36.7258 30.5406 36.8058 30.5251 36.8734C30.5804 36.8626 30.6469 36.8482 30.7258 36.8269C31.1673 36.7075 31.7065 36.4906 32.4577 36.2311C33.8865 35.7374 35.8343 35.186 37.9552 35.5805L38.0971 35.6084C38.3293 35.6561 38.545 35.7113 38.7424 35.7695V30.6052C37.9254 29.7785 37.2095 29.5355 36.7837 29.4447Z" fill="#DBE6F6"/>
<path d="M46.9287 28.1528C48.092 27.9043 49.2119 28.1393 50.4445 28.6655C51.6607 29.1847 53.0676 30.0242 54.8126 31.063L55.4073 31.4218C56.6886 32.2023 57.2787 32.593 58.3907 32.7459C58.994 32.8287 59.5329 32.8097 60.0084 32.8097C60.2252 32.8097 60.4764 32.8132 60.6891 32.8544C60.8709 32.8897 61.3013 33.0055 61.4552 33.4541C61.4628 33.4762 61.4686 33.4986 61.4737 33.521C61.5626 33.8684 61.4057 34.1659 61.306 34.3157C61.1826 34.5009 61.012 34.6666 60.8402 34.8049C60.4935 35.084 60.0257 35.3441 59.5577 35.4986C59.2381 35.6042 58.9266 35.6578 58.6315 35.6763C58.669 35.7381 58.7039 35.8005 58.7348 35.863C58.7973 35.9895 58.8591 36.1461 58.8825 36.3181C58.9064 36.4934 58.8949 36.7262 58.7573 36.949C58.5356 37.3078 58.1397 37.4057 57.9162 37.4387C57.6549 37.4773 57.3634 37.4658 57.0844 37.4317C56.5209 37.3629 55.8682 37.1843 55.3156 36.9496C55.1337 36.8722 54.967 36.7902 54.8184 36.7114C54.8307 36.7791 54.8411 36.8484 54.8469 36.9175C54.8667 37.1521 54.8517 37.5099 54.5982 37.816C54.35 38.1154 54.0069 38.2072 53.7224 38.2179C53.4526 38.2281 53.1703 38.1705 52.9148 38.1014C52.4154 37.9664 51.7479 37.7042 51.0932 37.478C49.7101 37.0001 48.0488 36.5534 46.2968 36.8793C45.6646 36.997 45.168 37.1879 44.8594 37.3238C44.6505 37.4158 44.4083 37.3978 44.2159 37.276C44.0236 37.1542 43.9074 36.9453 43.9074 36.721V30.3453C43.9074 30.1828 43.9685 30.0259 44.0791 29.9047C45.174 28.7048 46.2218 28.3035 46.9287 28.1528ZM49.9049 29.8778C48.8084 29.4098 47.9941 29.2785 47.2164 29.4447C46.7906 29.5355 46.0747 29.7783 45.2577 30.6049V35.7695C45.4947 35.6996 45.7583 35.6338 46.0449 35.5805L46.2432 35.5464C48.2871 35.2205 50.1583 35.7528 51.5424 36.231C52.2936 36.4906 52.8328 36.7075 53.2743 36.8269C53.353 36.8482 53.4195 36.8626 53.4747 36.8734C53.4593 36.8058 53.4382 36.7257 53.4104 36.629C53.368 36.4817 53.2962 36.2487 53.2724 36.043C53.2528 35.8722 53.2261 35.3949 53.6622 35.1127L53.7184 35.0792C53.9997 34.9244 54.2831 34.9664 54.4579 35.02C54.6294 35.0726 54.7945 35.1655 54.9142 35.2346C55.1873 35.3925 55.4627 35.5705 55.8531 35.7365C56.2965 35.9248 56.8246 36.0676 57.2514 36.1197C57.2724 36.1223 57.2929 36.1236 57.3128 36.1257C57.2785 36.0812 57.2409 36.0342 57.2002 35.9857C56.9741 35.7161 56.7091 35.4551 56.5374 35.2927L56.4016 35.1667C56.1598 34.9456 56.1173 34.5853 56.3011 34.316C56.4851 34.0466 56.8413 33.9474 57.1424 34.0817L57.2846 34.1414C57.6657 34.2912 58.3799 34.4927 59.1262 34.246L59.2431 34.2039C59.298 34.1826 59.3526 34.1585 59.4068 34.1334C59.054 34.1305 58.6397 34.1152 58.2032 34.0554C56.6826 33.8463 55.7998 33.2158 54.3986 32.3658L54.1111 32.193C52.335 31.1356 51.0178 30.353 49.9049 29.8778Z" fill="#DBE6F6"/>
</svg>
