<?xml version="1.0" encoding="UTF-8"?>
<svg id="Capa_1" data-name="Capa 1" xmlns="http://www.w3.org/2000/svg" xmlns:xlink="http://www.w3.org/1999/xlink" viewBox="0 0 118.18 90.16">
  <defs>
    <style>
      .cls-1 {
        fill: url(#Degradado_sin_nombre_48);
      }

      .cls-2 {
        fill: url(#Degradado_sin_nombre_43);
      }

      .cls-3 {
        fill: url(#Degradado_sin_nombre_35);
      }

      .cls-4 {
        fill: url(#Degradado_sin_nombre_48-2);
      }
    </style>
    <linearGradient id="Degradado_sin_nombre_48" data-name="Degradado sin nombre 48" x1="-1572.2" y1="-612.34" x2="-1572.2" y2="-627.99" gradientTransform="translate(-552.22 1665.75) rotate(90)" gradientUnits="userSpaceOnUse">
      <stop offset="0" stop-color="#263344"/>
      <stop offset=".02" stop-color="#263344"/>
      <stop offset=".45" stop-color="#263344"/>
      <stop offset=".52" stop-color="#314856"/>
      <stop offset=".67" stop-color="#48747b"/>
      <stop offset=".81" stop-color="#599496"/>
      <stop offset=".92" stop-color="#64a8a7"/>
      <stop offset="1" stop-color="#68afad"/>
    </linearGradient>
    <linearGradient id="Degradado_sin_nombre_48-2" data-name="Degradado sin nombre 48" x1="-1662.04" y1="-610.31" x2="-1662.04" y2="-613.38" xlink:href="#Degradado_sin_nombre_48"/>
    <linearGradient id="Degradado_sin_nombre_35" data-name="Degradado sin nombre 35" x1="-183.18" y1="44.54" x2="183.59" y2="44.54" gradientUnits="userSpaceOnUse">
      <stop offset="0" stop-color="#fff"/>
      <stop offset=".03" stop-color="#fff"/>
      <stop offset=".77" stop-color="#fff"/>
      <stop offset=".8" stop-color="#f9fcfc"/>
      <stop offset=".84" stop-color="#ebf4f4"/>
      <stop offset=".88" stop-color="#d3e7e7"/>
      <stop offset=".93" stop-color="#b1d6d5"/>
      <stop offset=".97" stop-color="#87bfbd"/>
      <stop offset="1" stop-color="#68afad"/>
    </linearGradient>
    <linearGradient id="Degradado_sin_nombre_43" data-name="Degradado sin nombre 43" x1="-1815.06" y1="-475.69" x2="-1815.06" y2="-842.4" gradientTransform="translate(-523.84 1981.22) rotate(89.46)" gradientUnits="userSpaceOnUse">
      <stop offset="0" stop-color="#fff"/>
      <stop offset=".02" stop-color="#fff"/>
      <stop offset=".45" stop-color="#fff"/>
      <stop offset=".58" stop-color="#cee5e4"/>
      <stop offset=".71" stop-color="#a2cdcc"/>
      <stop offset=".83" stop-color="#82bdbb"/>
      <stop offset=".93" stop-color="#6eb2b0"/>
      <stop offset="1" stop-color="#68afad"/>
    </linearGradient>
  </defs>
  <g>
    <path class="cls-1" d="M60.12,85.93c4.42,5.88,9.61,11.1,15.65,15.25l-10.89-9.49c-1.72-1.81-3.23-3.76-4.76-5.75Z"/>
    <path class="cls-4" d="M61.16,1.81c-1.02,1.29-2.15,2.47-3.07,3.8h0c.92-1.36,2.05-2.51,3.07-3.8Z"/>
    <path class="cls-3" d="M114.76-24.27c-4.3,0-8.41.51-12.48,1.28-1.31.26-2.59.57-3.91.9-2.66.69-5.32,1.51-7.88,2.46-1.4.54-2.76,1.04-4.12,1.66-2.66,1.23-5.21,2.63-7.7,4.17-.89.54-1.89,1.02-2.79,1.66h0l-.1.05-10.82,9.34v.03c-1.38,1.43-2.49,3.04-3.79,4.54-1.02,1.29-2.15,2.44-3.07,3.8h0c-30.79,32.63-85.43,32.48-116.08-.36-.51-.77-1.18-1.39-1.71-2.1-1.54-1.97-2.99-3.93-4.71-5.73l-10.95-9.51-.07-.05h0c-.9-.64-1.87-1.13-2.84-1.66-2.43-1.54-4.99-2.94-7.67-4.17-1.31-.61-2.72-1.12-4.12-1.66-2.56-.95-5.19-1.77-7.91-2.46-1.28-.33-2.55-.64-3.89-.9-4.06-.77-8.21-1.28-12.48-1.28-37.99,0-68.84,30.8-68.84,68.81,0,38.01,30.85,68.81,68.84,68.81,4.26,0,8.41-.51,12.48-1.27,1.33-.23,2.61-.57,3.89-.87,2.71-.72,5.35-1.52,7.91-2.46,1.4-.54,2.81-1.08,4.12-1.69,2.69-1.2,5.25-2.61,7.67-4.14.97-.56,1.95-1.02,2.84-1.66h0l.07-.08,10.79-9.31.05-.05c1.33-1.43,2.51-3.02,3.76-4.55,1.02-1.29,2.15-2.41,3.07-3.76,0-.03.03-.03.03-.03,30.77-32.62,85.41-32.49,116.05.38.51.75,1.18,1.36,1.72,2.08,1.53,1.99,3.04,3.94,4.76,5.75l10.89,9.49.1.08h0c.9.63,1.9,1.1,2.79,1.66,2.49,1.54,5.04,2.94,7.7,4.14,1.35.61,2.71,1.15,4.12,1.69,2.56.94,5.22,1.74,7.88,2.46,1.33.3,2.61.63,3.91.87,4.07.76,8.19,1.27,12.48,1.27,38.01,0,68.84-30.79,68.84-68.81,0-38.01-30.83-68.81-68.84-68.81Z"/>
  </g>
  <path class="cls-2" d="M231.94,90.11c-4.35.04-8.44.59-12.5,1.4-1.3.27-2.6.59-3.91.91-2.7.74-5.31,1.59-7.88,2.53-1.4.58-2.78,1.1-4.13,1.72-2.62,1.25-5.17,2.69-7.59,4.25-.94.53-1.93,1.03-2.79,1.68h-.05s-.03.05-.03.05l-10.76,9.44v.03c-1.37,1.44-2.5,3.07-3.74,4.58-1.01,1.3-2.15,2.46-3.06,3.83h0c-30.49,32.92-85.1,33.32-116.02.73-.55-.76-1.22-1.38-1.79-2.08-1.53-1.95-3.06-3.91-4.76-5.68l-11.02-9.41-.07-.05h-.03c-.9-.64-1.9-1.11-2.83-1.63-2.49-1.51-5.04-2.9-7.71-4.1-1.33-.59-2.72-1.09-4.16-1.64-2.57-.89-5.2-1.69-7.9-2.38-1.31-.3-2.57-.6-3.92-.84-4.1-.73-8.2-1.2-12.47-1.16-38.01.36-68.54,31.45-68.18,69.46S-33.88,230.25,4.13,229.89c4.28-.04,8.36-.59,12.45-1.39,1.35-.25,2.6-.58,3.91-.91,2.68-.75,5.3-1.56,7.85-2.53,1.43-.55,2.81-1.07,4.13-1.73,2.65-1.22,5.17-2.66,7.63-4.21.92-.57,1.91-1.04,2.8-1.67h.03s.07-.1.07-.1l10.71-9.41v-.05c1.34-1.45,2.5-3.04,3.72-4.58,1.04-1.29,2.17-2.43,3.08-3.79v-.03c30.49-32.91,85.13-33.3,116.03-.72.55.74,1.22,1.35,1.79,2.06,1.53,1.95,3.03,3.91,4.76,5.71l11.06,9.39.03.1h.05c.88.61,1.88,1.06,2.82,1.62,2.45,1.51,5.02,2.89,7.66,4.06,1.36.63,2.75,1.13,4.16,1.65,2.59.93,5.21,1.69,7.92,2.38,1.31.3,2.62.61,3.92.83,4.08.72,8.17,1.2,12.52,1.15,37.96-.36,68.47-31.44,68.11-69.46-.36-38.01-31.45-68.51-69.41-68.16Z"/>
</svg>