<?xml version="1.0" encoding="UTF-8"?>
<svg id="Capa_1" data-name="Capa 1" xmlns="http://www.w3.org/2000/svg" xmlns:xlink="http://www.w3.org/1999/xlink" viewBox="0 0 118.18 90.16">
  <defs>
    <style>
      .cls-1 {
        fill: url(#Degradado_sin_nombre_48);
      }

      .cls-2 {
        fill: url(#Degradado_sin_nombre_10);
      }

      .cls-3 {
        fill: url(#Degradado_sin_nombre_48-2);
      }
    </style>
    <linearGradient id="Degradado_sin_nombre_48" data-name="Degradado sin nombre 48" x1="-1571.02" y1="-612.36" x2="-1571.02" y2="-628.4" gradientTransform="translate(-552.22 1665.75) rotate(90)" gradientUnits="userSpaceOnUse">
      <stop offset="0" stop-color="#263344"/>
      <stop offset=".02" stop-color="#263344"/>
      <stop offset=".45" stop-color="#263344"/>
      <stop offset=".52" stop-color="#314856"/>
      <stop offset=".67" stop-color="#48747b"/>
      <stop offset=".81" stop-color="#599496"/>
      <stop offset=".92" stop-color="#64a8a7"/>
      <stop offset="1" stop-color="#68afad"/>
    </linearGradient>
    <linearGradient id="Degradado_sin_nombre_48-2" data-name="Degradado sin nombre 48" x1="-1663.05" y1="-610.29" x2="-1663.05" y2="-613.43" xlink:href="#Degradado_sin_nombre_48"/>
    <linearGradient id="Degradado_sin_nombre_10" data-name="Degradado sin nombre 10" x1="-189.09" y1="44.52" x2="186.63" y2="44.52" gradientUnits="userSpaceOnUse">
      <stop offset="0" stop-color="#263344"/>
      <stop offset=".03" stop-color="#263344"/>
      <stop offset=".77" stop-color="#263344"/>
      <stop offset=".81" stop-color="#283848"/>
      <stop offset=".85" stop-color="#304654"/>
      <stop offset=".9" stop-color="#3d5e68"/>
      <stop offset=".94" stop-color="#4f8085"/>
      <stop offset="1" stop-color="#65aaa9"/>
      <stop offset="1" stop-color="#68afad"/>
    </linearGradient>
  </defs>
  <path class="cls-1" d="M60.15,86.92c4.53,6.02,9.85,11.37,16.03,15.62l-11.16-9.72c-1.76-1.86-3.31-3.85-4.87-5.89Z"/>
  <path class="cls-3" d="M61.21.76c-1.05,1.32-2.2,2.53-3.15,3.89h0c.95-1.39,2.1-2.57,3.15-3.89Z"/>
  <path class="cls-2" d="M116.11-25.96c-4.4,0-8.62.52-12.79,1.31-1.34.26-2.65.58-4.01.92-2.73.71-5.45,1.55-8.07,2.52-1.44.55-2.83,1.07-4.22,1.7-2.73,1.26-5.34,2.7-7.89,4.27-.91.55-1.94,1.05-2.86,1.7h0l-.1.06-11.08,9.56v.03c-1.41,1.46-2.55,3.11-3.88,4.65-1.05,1.32-2.2,2.5-3.15,3.89h0c-31.54,33.43-87.52,33.28-118.91-.37-.52-.79-1.21-1.42-1.75-2.15-1.57-2.02-3.06-4.03-4.82-5.87l-11.21-9.74-.08-.06h0c-.92-.66-1.92-1.15-2.91-1.7-2.48-1.57-5.11-3.02-7.86-4.27-1.34-.63-2.78-1.15-4.22-1.7-2.62-.97-5.32-1.81-8.1-2.52-1.31-.34-2.62-.66-3.98-.92-4.16-.79-8.41-1.31-12.78-1.31-38.91,0-70.52,31.55-70.52,70.49s31.61,70.49,70.52,70.49c4.37,0,8.62-.52,12.78-1.3,1.37-.24,2.67-.58,3.98-.89,2.78-.74,5.48-1.55,8.1-2.52,1.44-.55,2.88-1.1,4.22-1.73,2.75-1.23,5.38-2.67,7.86-4.24.99-.57,1.99-1.05,2.91-1.7h0l.08-.08,11.06-9.54.06-.06c1.37-1.46,2.57-3.09,3.85-4.66,1.05-1.32,2.2-2.47,3.15-3.85,0-.03.03-.03.03-.03,31.52-33.41,87.49-33.28,118.88.39.52.77,1.21,1.39,1.76,2.13,1.57,2.04,3.11,4.04,4.87,5.89l11.16,9.72.1.08h0c.92.65,1.95,1.13,2.86,1.7,2.55,1.57,5.16,3.02,7.89,4.24,1.39.63,2.78,1.18,4.22,1.73,2.62.97,5.35,1.78,8.07,2.52,1.36.31,2.67.65,4.01.89,4.17.78,8.39,1.3,12.79,1.3,38.94,0,70.51-31.54,70.51-70.49S155.05-25.96,116.11-25.96Z"/>
</svg>