<svg width="49" height="54" viewBox="0 0 49 54" fill="none" xmlns="http://www.w3.org/2000/svg">
<g clip-path="url(#clip0_589_47014)">
<path d="M1.92754 54.0001C0.0570164 53.0592 -0.116643 52.1038 0.0481862 50.1404C0.246865 47.7526 1.72592 39.1056 2.81055 37.3347C3.20349 36.6929 5.03575 35.1044 5.0799 34.9454C5.19322 34.5429 4.87828 34.0134 4.88564 33.5291C4.90771 32.2148 5.91141 30.6832 7.33159 30.6832H18.4576C18.6577 29.862 18.8859 28.307 18.5591 27.5369C18.4282 27.2262 16.4811 25.7587 15.9513 25.0805C15.5628 24.5845 15.083 23.8362 14.8151 23.2659C14.6238 22.8589 14.0881 20.9072 13.9792 20.8386C13.417 20.4842 11.4788 21.2865 10.4339 19.4164C9.68336 18.073 9.71573 13.8924 10.846 12.7401C11.1477 12.4323 12.2838 12.0006 12.3221 11.8474C12.6135 10.6557 12.1911 7.90023 12.3162 6.42405C12.5885 3.2106 14.5944 0.634588 17.9528 0.246582C20.8947 -0.0932883 27.8749 -0.0655736 30.8566 0.226161C33.4644 0.481428 36.0281 2.58483 36.4196 5.21482C36.4843 5.65096 36.5977 6.86165 36.3828 7.16798C36.1871 7.44512 35.4409 7.45388 35.1893 7.27446C34.9921 7.13443 34.8787 5.52405 34.7213 5.00768C34.2665 3.51109 32.8596 2.13848 31.2643 1.92114C27.0596 1.34788 21.5202 2.22892 17.1831 2.00136C12.3986 3.78532 14.4399 9.19845 13.9969 13.1164L15.2817 13.4563V8.73021C15.2817 8.65874 15.5922 7.58516 15.6584 7.42324C16.54 5.2717 19.763 5.10979 21.7262 5.70493C22.6637 5.98937 23.4746 6.96376 24.5062 6.95355C25.4187 6.9448 26.5401 5.78078 27.7763 5.56927C29.0126 5.35776 30.9375 5.35047 32.0178 6.00979C32.371 6.22567 33.5101 7.56911 33.5101 7.89148V13.4578C33.7691 13.4665 34.889 13.3192 34.97 13.2258C35.2731 12.8743 34.5594 9.95987 35.3394 9.70169C37.1407 9.10655 36.1915 11.4886 36.505 11.9597C36.6374 12.1595 38.4137 12.3433 38.7596 14.031C38.9215 14.8216 38.9215 17.9738 38.7596 18.7659C38.4755 20.156 37.1481 20.2975 36.945 20.6417C36.6168 21.1975 37.3129 22.8647 36.4888 23.6568C35.6896 24.4241 34.0973 23.9266 33.5101 24.2767C33.2672 24.4211 32.5402 25.6814 32.1414 26.0709C31.8529 26.3524 30.3297 27.3137 30.3297 27.426V30.6817H41.6676C41.806 30.6817 42.6816 31.0537 42.87 31.1704C44.4948 32.1798 43.5588 33.6852 43.937 34.944C44.0503 35.3203 45.6515 36.674 46.1019 37.4208C46.5522 38.1677 46.7994 38.8693 47.0099 39.6715C47.5927 41.8946 49.0629 49.3323 49.0011 51.373C48.9599 52.7004 48.1254 53.3626 47.0732 53.9986H1.92754V54.0001ZM33.2834 15.5685C33.1863 15.4766 32.2856 15.7289 32.0649 14.9923C31.5851 13.398 32.8228 8.09277 31.1244 7.31238C30.602 7.0717 28.5122 7.0717 27.9014 7.16798C26.6387 7.36927 26.3282 8.49683 24.2796 8.42681C22.5401 8.36846 22.309 7.43054 21.2744 7.20007C20.7578 7.08629 18.4414 7.06295 17.9719 7.20007C15.9145 7.7952 17.7291 14.6991 16.6224 15.3657C16.306 15.5553 15.5142 15.4693 15.4789 15.6793C15.342 16.4743 15.4112 18.9774 15.4951 19.8613C16.1985 27.2626 26.3429 30.2573 31.1745 24.5933C30.7241 24.6195 29.6645 24.6399 29.326 24.8602C29.1877 24.9506 29.0758 25.3561 28.858 25.5458C27.3996 26.8061 24.0515 27.0642 23.763 24.6764C23.4893 22.4169 26.3414 21.937 28.0574 22.325C28.6785 22.4651 28.8345 23.0631 29.5792 23.139C29.8735 23.1696 32.3165 22.8895 32.4519 22.8122C33.46 22.2244 33.5542 15.8266 33.2849 15.5699L33.2834 15.5685ZM14.0072 19.0255C14.1912 18.4304 14.0072 15.6122 14.0072 14.7195C14.0072 14.6043 12.1587 14.9266 12.2073 13.6707C11.4391 13.996 11.4965 18.2101 11.8703 18.7834C12.0881 19.1189 13.8173 19.644 14.0072 19.027V19.0255ZM34.9891 19.3406C35.7662 19.38 36.8199 19.237 37.1613 18.4464C37.5189 17.6179 37.6337 14.1579 36.5785 13.6693C36.6624 14.8348 34.9906 14.613 34.9906 14.7181V19.3391L34.9891 19.3406ZM35.413 20.8095C34.4048 20.5396 34.8979 21.7882 34.3548 22.4884L35.4159 22.4913V20.808L35.413 20.8095ZM27.7822 24.5889C28.496 23.4715 25.6586 23.7604 25.4643 23.9748C25.4334 24.0098 25.4128 24.5524 25.4422 24.6749C25.5511 25.1315 27.7189 24.6895 27.7837 24.5889H27.7822ZM20.1544 30.6832H28.8433L28.6299 28.3741C25.7748 29.3135 23.1096 29.42 20.2619 28.3698L20.153 30.6832H20.1544ZM41.3468 49.379C41.65 44.5873 42.0282 39.7955 42.1975 34.9921C42.2122 34.5531 42.7905 32.3636 41.8766 32.3636H7.11967C6.13364 32.3636 6.76793 35.6544 6.79884 36.2524L7.46699 49.0348C7.77163 49.9537 10.4987 48.5563 10.2014 50.3213C10.1366 50.7093 10.0439 50.7808 9.66275 50.8493C8.65317 51.0331 4.95481 50.3665 4.71198 51.4182C4.67666 51.5728 4.84738 52.3197 4.89447 52.3197H43.7854C44.1474 52.3197 44.4094 50.8493 43.5735 50.8493H12.8416C12.2264 50.8493 12.2264 49.379 12.8416 49.379H41.3468ZM45.7987 52.3211C47.4794 52.5195 47.3778 51.4576 47.2557 50.139C47.0364 47.7745 45.7148 39.797 44.6154 38.0524C44.3756 37.6717 44.1121 37.1743 43.6809 36.9847L43.0422 49.379C44.8656 49.0829 45.9738 50.6451 45.7987 52.3197V52.3211ZM5.95556 49.3805L5.00043 37.2006C4.30285 37.8949 3.78923 38.7745 3.51255 39.7138C2.46912 43.2599 2.3764 47.703 1.50663 51.3555C1.64497 52.3868 2.28369 52.4072 3.19908 52.3226C2.94742 50.4453 3.99968 49.1617 5.95409 49.3819L5.95556 49.3805Z" fill="#1F4060"/>
<path d="M31.9792 41.0499C31.9792 45.1677 28.612 48.5051 24.4574 48.5051C20.3028 48.5051 16.9355 45.1677 16.9355 41.0499C16.9355 36.932 20.3028 33.5946 24.4574 33.5946C28.612 33.5946 31.9792 36.932 31.9792 41.0499ZM22.2748 46.6453C28.0144 48.5037 32.9093 42.0199 29.052 37.3055C24.7988 32.1068 16.4779 37.0502 18.887 43.286C21.2344 42.6413 19.7435 38.9129 21.3182 37.8204C21.9805 37.3609 25.1167 36.8095 25.829 37.1406C28.2323 38.2565 23.8098 40.78 24.397 41.3941C25.8834 41.276 26.5825 38.6124 28.2117 39.4001C28.4015 39.492 28.7061 39.9282 28.7606 40.1324C28.8945 40.6312 28.2352 44.1437 27.8879 44.5434C26.8886 45.6943 23.1343 44.6907 22.2763 46.6453H22.2748ZM23.9702 38.8779C21.3388 38.4505 22.2351 40.9113 21.5905 42.7142C21.252 43.6623 20.6575 44.1875 19.9481 44.8628C21.0092 46.2573 21.0622 45.1677 21.9908 44.5828C23.2903 43.7659 26.5428 43.6609 26.7164 43.4888C26.7841 43.4217 26.8562 41.8988 26.9342 41.6056C24.2808 44.6484 21.0048 41.664 23.9688 38.8765L23.9702 38.8779Z" fill="#1F4060"/>
</g>
<defs>
<clipPath id="clip0_589_47014">
<rect width="49" height="54" fill="white"/>
</clipPath>
</defs>
</svg>
