<svg width="54" height="54" viewBox="0 0 54 54" fill="none" xmlns="http://www.w3.org/2000/svg">
<path d="M47.7815 20.5173C48.0352 20.679 51.8944 20.4485 52.6592 20.534C53.5574 20.6344 53.8278 21.0601 53.9055 21.9245C54.2 25.2129 53.6963 28.9754 53.8666 32.314C53.7407 32.762 53.4018 33.0705 52.9389 33.143C52.0926 33.275 47.9815 32.9386 47.6852 33.2955L46.1722 37.1527C46.7463 38.0748 49.8611 40.4374 49.95 41.3037C49.9685 41.4784 49.9537 41.6457 49.887 41.8112L42.1148 49.7041C41.5889 49.9793 41.3611 49.9235 40.8666 49.6744C40.0944 49.284 37.4555 46.0439 37.0463 46.0811C35.874 46.7429 34.6166 47.1927 33.3611 47.6649C33.1166 48.033 33.4018 51.7099 33.2814 52.5706C33.1685 53.3811 32.8425 53.619 32.0592 53.6915C28.724 53.9945 24.9277 53.4591 21.5425 53.6748C21.3147 53.6432 21.1092 53.5632 20.9536 53.3867C20.1777 52.5055 20.7925 49.0089 20.5629 47.7653C20.5055 47.5924 19.1277 47.0589 18.9092 47.0812C18.3425 47.137 13.0036 53.0818 12.0444 53.8402C11.5944 54.1414 11.0092 53.9889 10.6444 53.6153L4.58693 47.5236C3.93323 46.0904 6.49064 44.9156 6.3999 44.3932C5.53879 43.1645 3.17397 42.1904 4.43508 40.4839C4.84249 39.9337 7.81286 37.2847 7.83138 37.0431C7.22027 35.7939 6.52953 34.554 6.2499 33.1691C6.05545 32.9999 1.85359 33.2657 1.08693 33.1449C0.466555 33.0482 0.0961835 32.5352 0.122109 31.9143C0.444332 28.7281 -0.290854 24.7389 0.138776 21.6512C0.225813 21.021 0.607296 20.6381 1.23507 20.5507C2.04248 20.4373 5.97768 20.692 6.24619 20.521C6.65175 19.1844 7.19805 17.8962 7.83324 16.6526C7.81101 16.3663 4.69434 13.6858 4.2999 13.0556C4.03693 12.6336 3.98508 12.2154 4.14064 11.7339C4.27952 11.3026 7.4999 8.20567 8.08879 7.63127C9.3462 6.4081 10.7018 5.26673 11.9092 3.98779C12.3018 3.73498 12.6444 3.77959 13.0407 3.98779C14.0295 4.50829 15.5407 6.76315 16.5592 7.49929C17.0795 7.80973 17.8962 7.09404 18.4388 6.87655C19.1758 6.58098 19.9296 6.33375 20.661 6.02888C20.9555 5.5846 20.5462 1.80356 20.7592 0.848081C20.8796 0.307137 21.424 -0.0311863 21.9629 0.00227424L32.7055 0.0859255C32.9314 0.294124 33.2277 0.493028 33.2907 0.818339C33.4592 1.70876 33.0796 5.64037 33.3574 6.03074C34.674 6.46573 35.9444 7.00667 37.1907 7.61268C37.5833 7.64986 40.2389 4.46925 40.8963 4.04914C41.6444 3.57139 42.1148 3.91901 42.7203 4.40419L49.8833 11.732C50.0315 12.2191 49.9889 12.628 49.7241 13.0537C49.3296 13.6839 46.2148 16.3663 46.1907 16.6507C46.8481 17.8832 47.3722 19.1789 47.7778 20.5191L47.7815 20.5173ZM30.9592 2.35195H23.0703V7.11821C23.0703 8.05138 20.4907 8.55329 19.7129 8.88046C18.7351 9.28942 17.1555 10.5089 16.1962 10.2059C15.4684 9.97536 12.9073 6.69066 12.4999 6.76316L7.13879 12.1001L7.06657 12.47L10.3703 15.7622C10.9036 16.6916 9.52768 18.5468 9.12398 19.5116C8.8462 20.1752 8.25731 22.8818 7.51472 22.8818H2.47026V30.8008H7.36472C8.15916 30.8008 8.56842 33.091 8.82768 33.7323C9.08694 34.3736 10.4444 36.8274 10.4629 37.2048C10.5221 38.4094 7.58694 40.3612 6.86286 41.3074C6.82953 41.5007 8.03694 42.7016 8.22027 42.67L17.4962 33.3475C12.2258 25.0958 18.3129 14.6673 28.1148 15.3978C33.1703 15.7752 37.9537 20.3537 38.4074 25.4508C38.9018 31.0146 36.5055 33.4219 33.0796 37.11C31.1629 39.1734 28.6925 40.2422 25.8499 39.9634L20.8036 45.0271C20.6518 45.3822 22.2296 45.555 22.5425 45.7762C22.6759 45.871 23.0703 46.4845 23.0703 46.5663V51.4794H30.9592V46.5663C30.9592 46.4213 31.3833 45.845 31.5833 45.7261C32.0777 45.4342 33.2648 45.2483 33.9166 44.9899C34.6148 44.7129 37.0203 43.4061 37.4592 43.4061C38.4592 43.4024 40.5389 46.4715 41.55 46.9399C43.5352 45.2725 45.2852 43.2463 47.1722 41.4357C46.5333 40.5657 43.5592 38.283 43.5389 37.333C43.5315 36.9445 44.7074 34.8458 44.95 34.2156C45.2555 33.4237 45.6963 30.8027 46.6648 30.8027H51.5592L51.7055 22.8837H46.6648C45.8592 22.8837 45.3259 20.3202 45.0555 19.6603C44.7852 19.0004 43.5315 16.7864 43.5389 16.3552C43.5611 15.1896 47.2555 12.7953 47.1648 12.2711L41.8481 6.88956C41.7222 6.74643 41.65 6.72784 41.4796 6.81706C40.8426 7.14795 39.3222 9.14815 38.5574 9.75973C37.1185 10.9123 36.5851 9.84896 35.2481 9.26526C34.6685 9.01244 34.0685 8.78008 33.4777 8.54772C32.924 8.33022 32.0129 8.21125 31.5833 7.95658C31.3833 7.83761 30.9592 7.26134 30.9592 7.11635V2.35195ZM35.1944 30.9495C38.5944 23.7276 32.1037 15.8979 24.3851 18.1174C19.4166 19.5469 16.7425 25.0289 18.3981 29.9234C18.8351 29.4141 18.9388 28.5627 19.2481 27.9176C20.8388 24.5902 24.3703 22.9655 27.9648 23.3242C29.2759 23.4562 32.3166 24.3281 31.0407 26.1163C30.0592 27.4882 27.6777 29.0051 26.8055 30.3695C26.2148 31.2916 27.0166 32.1597 27.9481 31.6633C29.0314 30.9402 31.8462 27.2243 32.9333 27.1239C34.1018 27.0179 34.2055 27.9697 34.6166 28.8192L35.1963 30.9477L35.1944 30.9495ZM32.7111 30.364C31.1092 31.5462 29.724 34.1469 27.5259 34.1878C24.9703 34.2361 23.3222 31.2767 24.8222 29.1166C25.1999 28.572 28.0296 26.1201 28.0351 25.8914C28.0425 25.5587 26.2407 25.6572 25.937 25.6888C23.3629 25.9639 21.0166 28.2968 20.7499 30.8956C20.6629 31.747 20.9962 33.0482 20.587 33.6654L7.57583 46.7113L7.5036 47.0812C8.77027 48.0367 10.074 50.0536 11.3073 50.905C11.4369 50.9942 11.5055 51.1151 11.6758 50.9775L24.6888 37.926C25.4462 37.3107 26.2981 37.768 27.2407 37.7011C30.8999 37.4427 33.3833 33.9033 32.7129 30.364H32.7111Z" fill="#1F4060"/>
</svg>
