<svg width="78" height="54" viewBox="0 0 78 54" fill="none" xmlns="http://www.w3.org/2000/svg">
<path d="M78 47.8298C77.7063 48.1089 77.5932 48.5092 77.1572 48.5937C76.3127 48.7571 73.0875 48.3788 72.6588 48.669C70.738 55.7225 61.1265 55.7703 59.2695 48.6892L59.0305 48.5882L35.5699 48.6176C35.1011 49.4917 34.8202 50.4503 34.2291 51.262C31.3068 55.2763 25.1065 54.7731 22.7606 50.4301C22.4103 49.78 22.3118 49.1538 21.9671 48.6176L10.3927 48.4541C9.46606 47.9014 9.88926 45.0311 10.2085 44.0964C10.7941 42.3738 12.0454 41.2922 13.5285 40.3722V34.9144H0.797617C-0.265872 34.9144 -0.265872 32.4537 0.797617 32.4537H13.5248V29.9929H8.57039C7.75134 29.9929 7.08552 28.7331 7.59446 27.9325C7.67837 27.8002 8.34419 27.3797 8.41716 27.3797H13.523V24.9189H0.797617C-0.265872 24.9189 -0.265872 22.4582 0.797617 22.4582H11.3906C11.1352 22.1166 10.6536 21.9091 10.3216 21.6134C4.66485 16.5946 4.49338 7.80379 10.3216 2.85288C16.4836 -2.37716 26.0605 -0.136762 29.251 7.29144C29.5556 8.00028 29.7763 9.28759 30.0153 9.74853C30.07 9.85504 30.0937 9.96338 30.2342 9.98909L50.4478 10.0479C52.9396 10.3343 55.7452 13.4268 55.7452 15.928V22.4619H67.2538C67.6369 22.4619 69.2732 23.0146 69.7201 23.2038C73.8081 24.9171 75.4188 29.7927 78 33.0707V47.8298ZM27.8154 12.2405C27.8154 6.85805 23.4903 2.49662 18.1546 2.49662C12.8189 2.49662 8.49378 6.85989 8.49378 12.2405C8.49378 17.6211 12.8189 21.9844 18.1546 21.9844C23.4903 21.9844 27.8154 17.6211 27.8154 12.2405ZM53.1549 39.9884V15.4652C53.1549 14.3726 51.0151 12.4939 49.8641 12.4811L30.2907 12.4664C30.2324 16.5175 28.1346 20.1021 24.9569 22.46H32.6549C32.6986 22.46 33.2295 23.0036 33.2605 23.077C33.5286 23.7124 33.1766 24.9189 32.5016 24.9189H16.117V27.3797H24.8821C25.7267 27.3797 26.398 28.8176 25.6519 29.5411C25.557 29.633 24.8018 29.9947 24.7289 29.9947H16.117V32.4555H18.9371C20.0006 32.4555 20.0006 34.9163 18.9371 34.9163H16.117V39.9902H53.1567L53.1549 39.9884ZM75.5611 46.1384V33.9154C73.4597 31.1314 70.9241 24.9208 66.796 24.9208H55.7452V46.1366H59.0214C59.3826 45.2092 59.6069 44.2837 60.1341 43.4169C63.4669 37.9408 71.8471 39.8929 72.6625 46.1366H75.5593L75.5611 46.1384ZM15.2779 42.4473C15.1848 42.4473 14.094 42.978 13.9316 43.0882C12.9429 43.7585 12.4176 44.9668 12.3063 46.1366H22.0619C22.02 45.5508 22.2334 44.9833 22.4468 44.449C22.7478 43.6887 23.2604 43.1616 23.5869 42.4473H15.2779ZM53.1549 42.4473H33.7968C34.7107 43.4683 35.4021 44.7299 35.4732 46.1366H53.1549V42.4473ZM33.1273 47.1099C33.1273 44.6767 31.1718 42.7044 28.7603 42.7044C26.3487 42.7044 24.3932 44.6767 24.3932 47.1099C24.3932 49.5431 26.3487 51.5154 28.7603 51.5154C31.1718 51.5154 33.1273 49.5431 33.1273 47.1099ZM70.2801 47.1136C70.2801 44.6822 68.3264 42.7099 65.9149 42.7099C63.5033 42.7099 61.5497 44.6822 61.5497 47.1136C61.5497 49.5449 63.5033 51.5172 65.9149 51.5172C68.3264 51.5172 70.2801 49.5449 70.2801 47.1136Z" fill="#1F4060"/>
<path d="M18.2075 5.57992C18.8715 5.43485 19.5865 5.73601 19.7416 6.42833C19.8966 7.12065 19.882 11.8016 19.7398 12.5105C19.6668 12.8741 17.1951 16.3687 16.8047 16.7764C15.7777 17.8488 14.2819 17.1951 14.6248 15.6544C14.8364 14.7013 16.9907 12.7694 17.2698 11.864C17.6584 10.5969 17.1221 8.01314 17.3465 6.56055C17.4176 6.10513 17.7532 5.68276 18.2111 5.58176L18.2075 5.57992Z" fill="#1F4060"/>
<path d="M62.8667 26.1842C63.4286 26.0575 65.1013 26.0961 65.7361 26.1457C67.0951 26.254 68.6676 26.9261 69.6253 27.9123C70.2108 28.5146 73.2499 33.6932 73.4797 34.4792C73.9066 35.941 73.2043 37.2338 71.6847 37.3825C69.6034 37.5864 65.2272 37.5735 63.1349 37.3825C62.2885 37.3054 61.9455 36.9436 61.8434 36.0713C61.6336 34.3011 61.6464 29.3979 61.847 27.6111C61.9163 26.9886 62.2027 26.333 62.8704 26.1824L62.8667 26.1842ZM70.8365 34.9144L67.7938 29.6054C66.8616 28.7478 65.6668 28.5789 64.4355 28.6119V34.9163H70.8365V34.9144Z" fill="#1F4060"/>
<path d="M28.7676 49.1428C29.8838 49.1428 30.7887 48.2301 30.7887 47.1044C30.7887 45.9786 29.8838 45.066 28.7676 45.066C27.6513 45.066 26.7464 45.9786 26.7464 47.1044C26.7464 48.2301 27.6513 49.1428 28.7676 49.1428Z" fill="#1F4060"/>
<path d="M65.9222 49.1373C67.0364 49.1373 67.9397 48.2255 67.9397 47.1007C67.9397 45.9759 67.0364 45.0641 65.9222 45.0641C64.8079 45.0641 63.9047 45.9759 63.9047 47.1007C63.9047 48.2255 64.8079 49.1373 65.9222 49.1373Z" fill="#1F4060"/>
</svg>
